<?xml version="1.0" encoding="UTF-8"?>
<svg width="563px" height="129px" viewBox="0 0 563 129" version="1.1" xmlns="http://www.w3.org/2000/svg" xmlns:xlink="http://www.w3.org/1999/xlink">
    <!-- Generator: Sketch 50.2 (55047) - http://www.bohemiancoding.com/sketch -->
    <title>logo</title>
    <desc>Created with Sketch.</desc>
    <defs>
        <circle id="path-1" cx="38.78" cy="76.25" r="37.05"></circle>
        <filter x="-32.4%" y="-32.4%" width="164.8%" height="164.8%" filterUnits="objectBoundingBox" id="filter-2">
            <feMorphology radius="3" operator="dilate" in="SourceAlpha" result="shadowSpreadOuter1"></feMorphology>
            <feOffset dx="0" dy="0" in="shadowSpreadOuter1" result="shadowOffsetOuter1"></feOffset>
            <feGaussianBlur stdDeviation="5" in="shadowOffsetOuter1" result="shadowBlurOuter1"></feGaussianBlur>
            <feColorMatrix values="0 0 0 0 0.498039216   0 0 0 0 0.51372549   0 0 0 0 0.215686275  0 0 0 1 0" type="matrix" in="shadowBlurOuter1"></feColorMatrix>
        </filter>
        <linearGradient x1="-0.195%" y1="50.007%" x2="99.911%" y2="50.007%" id="linearGradient-3">
            <stop stop-color="#888A31" offset="37%"></stop>
            <stop stop-color="#8E903A" offset="47%"></stop>
            <stop stop-color="#9D9F53" offset="64%"></stop>
            <stop stop-color="#B6B87B" offset="86%"></stop>
            <stop stop-color="#C8CA98" offset="100%"></stop>
        </linearGradient>
        <linearGradient x1="0.034%" y1="49.984%" x2="100.02%" y2="49.984%" id="linearGradient-4">
            <stop stop-color="#888A31" offset="37%"></stop>
            <stop stop-color="#8E903A" offset="47%"></stop>
            <stop stop-color="#9D9F53" offset="64%"></stop>
            <stop stop-color="#B6B87B" offset="86%"></stop>
            <stop stop-color="#C8CA98" offset="100%"></stop>
        </linearGradient>
        <linearGradient x1="0.022%" y1="50.089%" x2="99.92%" y2="50.089%" id="linearGradient-5">
            <stop stop-color="#888A31" offset="37%"></stop>
            <stop stop-color="#8E903A" offset="47%"></stop>
            <stop stop-color="#9D9F53" offset="64%"></stop>
            <stop stop-color="#B6B87B" offset="86%"></stop>
            <stop stop-color="#C8CA98" offset="100%"></stop>
        </linearGradient>
        <linearGradient x1="0.005%" y1="49.975%" x2="100.024%" y2="49.975%" id="linearGradient-6">
            <stop stop-color="#888A31" offset="37%"></stop>
            <stop stop-color="#8E903A" offset="47%"></stop>
            <stop stop-color="#9D9F53" offset="64%"></stop>
            <stop stop-color="#B6B87B" offset="86%"></stop>
            <stop stop-color="#C8CA98" offset="100%"></stop>
        </linearGradient>
    </defs>
    <g id="Page-1" stroke="none" stroke-width="1" fill="none" fill-rule="evenodd">
        <g id="logo" transform="translate(14.000000, 0.000000)">
            <path d="M130.08,49.32 C129.310134,49.3058164 128.575083,49.6402647 128.08,50.23 C127.55976,50.7998883 127.182694,51.4854616 126.98,52.23 L116.42,84.23 L107.4,58 L98.35,84.33 L87.73,52.33 C87.5236134,51.6070746 87.1845084,50.9288646 86.73,50.33 C86.3784685,49.7450569 85.7612156,49.3709642 85.08,49.33 L85.08,48.8 L93.32,48.8 L93.32,49.33 C92.8401674,49.3184303 92.3807858,49.5242332 92.07,49.89 C91.7337583,50.2847866 91.5587808,50.7918642 91.58,51.31 C91.59,51.544 91.631,51.776 91.7,52 L99.24,74.64 L108.47,48.47 L117.35,74.59 L125,52 C125.015796,51.8475057 125.045929,51.6968395 125.09,51.55 C125.141579,51.3674471 125.171781,51.1795215 125.18,50.99 C125.19988,50.5434898 125.033252,50.1088095 124.72,49.79 C124.481931,49.5226203 124.147405,49.3607528 123.79,49.34 L123.79,48.81 L130.11,48.81 L130.08,49.32 Z M135.83,84 L135.83,83.47 C136.131314,83.472586 136.42181,83.3578221 136.64,83.15 C136.874,82.934 137.07,82.68 137.22,82.4 C137.378289,82.1073008 137.496034,81.7944337 137.57,81.47 C137.644425,81.1654205 137.684673,80.8534953 137.69,80.54 L137.69,65.76 C137.692743,65.1677482 137.594676,64.5793486 137.4,64.02 C137.207,63.467 136.647,63.173 135.72,63.14 L135.72,62.66 L141.52,60.95 L141.52,80.55 C141.525,80.864 141.565,81.175 141.64,81.48 C141.714,81.805 141.831,82.117 141.99,82.41 C142.14,82.69 142.336,82.944 142.57,83.16 C142.788,83.368 143.079,83.483 143.38,83.48 L143.38,84 L135.83,84 Z M136.12,55.8 C136.10855,55.109858 136.392346,54.4476689 136.9,53.98 C137.421169,53.4819146 138.119318,53.2120119 138.84,53.23 C139.579399,53.2069952 140.298045,53.4764873 140.84,53.98 C141.363,54.44 141.66,55.104 141.65,55.8 C141.66375,56.4797487 141.36526,57.1283185 140.84,57.56 C140.282538,58.0310648 139.569336,58.2771194 138.84,58.25 C138.129479,58.2727458 137.436581,58.0263028 136.9,57.56 C136.397634,57.1265508 136.112198,56.493467 136.12,55.83 L136.12,55.8 Z M169.89,77.94 C169.895388,78.8482682 169.634657,79.7382292 169.14,80.5 C168.601762,81.3205833 167.900583,82.0217618 167.08,82.56 C166.157194,83.1744281 165.145361,83.6432439 164.08,83.95 C162.853872,84.2978964 161.584492,84.4696163 160.31,84.46 C158.930772,84.5062847 157.554732,84.2995397 156.25,83.85 C155.329733,83.5013042 154.437183,83.0834437 153.58,82.6 C153.08,82.313 152.617,82.073 152.19,81.88 C151.753199,81.6836157 151.278887,81.5846586 150.8,81.59 L150.8,77.53 L151.38,77.53 C151.565599,78.1511908 151.910323,78.7130901 152.38,79.16 C152.97733,79.7832624 153.649037,80.3307041 154.38,80.79 C155.206486,81.2878764 156.085069,81.6936341 157,82 C157.920058,82.3343831 158.891067,82.5069318 159.87,82.51 C160.592,82.51 161.312,82.439 162.02,82.3 C162.717501,82.1716157 163.391715,81.9390119 164.02,81.61 C164.595212,81.3098913 165.107745,80.9025801 165.53,80.41 C165.939069,79.9239948 166.156058,79.3050438 166.14,78.67 C166.149843,78.0246787 165.922057,77.3982667 165.5,76.91 C165.037538,76.3812862 164.485827,75.9378866 163.87,75.6 C163.150573,75.1947752 162.393734,74.8598911 161.61,74.6 C160.765501,74.3161045 159.915326,74.0493829 159.06,73.8 C158.045817,73.5108285 157.044849,73.1771724 156.06,72.8 C155.100181,72.4733492 154.175552,72.0512358 153.3,71.54 C152.517947,71.0991486 151.836705,70.4996561 151.3,69.78 C150.78981,69.0554968 150.5268,68.1858104 150.55,67.3 C150.541366,66.510648 150.694513,65.7278936 151,65 C151.356741,64.2173512 151.916006,63.5441619 152.62,63.05 C153.50993,62.4339133 154.501904,61.9802458 155.55,61.71 C156.970251,61.3439924 158.433605,61.1724267 159.9,61.2 C161.080163,61.1658182 162.259825,61.2834483 163.41,61.55 C164.114026,61.7371053 164.802703,61.977808 165.47,62.27 C165.787959,62.4389502 166.123237,62.5730614 166.47,62.67 C166.85,62.762 167.24,62.805 167.63,62.8 L167.63,66.54 L167.17,66.54 C166.426729,65.3255581 165.306347,64.3878085 163.98,63.87 C162.586597,63.2717758 161.08639,62.9622093 159.57,62.96 C158.723395,62.9436247 157.879559,63.0617618 157.07,63.31 C156.457625,63.4985978 155.880062,63.7856907 155.36,64.16 C154.942,64.46 154.6,64.854 154.36,65.31 C154.154681,65.7057628 154.045077,66.1441766 154.04,66.59 C154.025071,67.1569477 154.221054,67.709266 154.59,68.14 C155.014,68.61 155.528,68.99 156.1,69.26 C156.798,69.606 157.516,69.91 158.25,70.17 C159.043,70.457 159.883,70.723 160.77,70.97 C161.85,71.29 162.933,71.623 164.02,71.97 C165.035187,72.3117076 166.00813,72.7679843 166.92,73.33 C167.729128,73.8273629 168.438002,74.4717944 169.01,75.23 C169.601366,76.00782 169.911581,76.9631419 169.89,77.94 Z M194.79,84 L194.79,81.65 C194.01575,82.4106043 193.124408,83.0419717 192.15,83.52 C190.854,84.129491 189.43126,84.4208958 188,84.37 C186.16049,84.4069116 184.332919,84.0665819 182.63,83.37 C181.198509,82.7775281 179.904818,81.8957756 178.83,80.78 C177.837062,79.7307725 177.077118,78.4835112 176.6,77.12 C175.614528,74.3757912 175.614528,71.3742088 176.6,68.63 C177.093516,67.2347858 177.862024,65.9528062 178.86,64.86 C179.918433,63.7187849 181.202161,62.809619 182.63,62.19 C184.27964,61.4910637 186.058843,61.1502203 187.85,61.19 C189.175171,61.192377 190.490392,61.4189061 191.74,61.86 C192.853765,62.2168986 193.877162,62.8104685 194.74,63.6 L194.74,53.21 C194.743688,52.6274584 194.645545,52.0487536 194.45,51.5 C194.257,50.967 193.697,50.683 192.77,50.65 L192.77,50.12 L198.57,48.46 L198.57,80.56 C198.575,80.874 198.615,81.185 198.69,81.49 C198.764,81.815 198.881,82.127 199.04,82.42 C199.19,82.7 199.386,82.954 199.62,83.17 C199.838,83.378 200.129,83.493 200.43,83.49 L200.43,84 L194.79,84 Z M188.41,82.61 C189.224565,82.6109218 190.032002,82.4582552 190.79,82.16 C191.524153,81.8714878 192.201309,81.4550368 192.79,80.93 C193.368927,80.4136602 193.849962,79.7971215 194.21,79.11 C194.578,78.41 194.767,77.63 194.76,76.84 L194.76,69.52 C194.772904,68.5735247 194.531134,67.640984 194.06,66.82 C193.609582,66.0335959 193.020003,65.3355895 192.32,64.76 C191.636145,64.1971125 190.861851,63.7541759 190.03,63.45 C188.1234,62.73243 186.000588,62.8671539 184.2,63.82 C183.215899,64.3562968 182.348917,65.0838818 181.65,65.96 C180.951279,66.8357432 180.419139,67.8322354 180.08,68.9 C179.739767,69.9430775 179.564324,71.0328442 179.56,72.13 C179.562,73.39 179.758,74.64 180.14,75.84 C180.509721,77.0357965 181.088696,78.156502 181.85,79.15 C182.605371,80.1297659 183.542452,80.9548051 184.61,81.58 C185.759093,82.2582316 187.065778,82.6236896 188.4,82.64 L188.41,82.61 Z M219.74,84.4 C217.960948,84.4267473 216.191956,84.1285263 214.52,83.52 C213.044386,82.9854079 211.686106,82.1704399 210.52,81.12 C209.424423,80.1143237 208.555204,78.8871903 207.97,77.52 C206.743015,74.528106 206.775465,71.1676411 208.06,68.2 C208.697977,66.7845277 209.628372,65.5201444 210.79,64.49 C211.995886,63.4320379 213.394871,62.6170955 214.91,62.09 C218.241542,60.9688717 221.848458,60.9688717 225.18,62.09 C226.650392,62.5983141 228.008647,63.3861018 229.18,64.41 C230.291967,65.3947984 231.181666,66.6049253 231.79,67.96 C232.42,69.38 232.736,70.917 232.72,72.47 C232.721419,73.9961196 232.43649,75.5089575 231.88,76.93 C231.322981,78.3641544 230.471308,79.6655111 229.38,80.75 C228.213699,81.8962044 226.834476,82.8032305 225.32,83.42 C223.543607,84.1142346 221.646643,84.447393 219.74,84.4 Z M219.36,63 C218.083904,63.0416382 216.831926,63.3588969 215.69,63.93 C214.666195,64.4537315 213.760832,65.1821057 213.03,66.07 C212.308583,66.9608529 211.759233,67.978168 211.41,69.07 C211.046988,70.1530901 210.861264,71.2876952 210.86,72.43 C210.855672,73.7320685 211.079035,75.0248671 211.52,76.25 C211.949243,77.4516268 212.596775,78.5636189 213.43,79.53 C214.262192,80.4937548 215.283237,81.2765554 216.43,81.83 C217.639891,82.410462 218.968243,82.7014668 220.31,82.68 C221.623534,82.7078414 222.924167,82.4161427 224.1,81.83 C225.162085,81.2908506 226.099001,80.5345035 226.85,79.61 C227.585976,78.6980785 228.145532,77.6569664 228.5,76.54 C228.861178,75.4358069 229.046771,74.2817579 229.05,73.12 C229.044076,71.913569 228.848349,70.7155842 228.47,69.57 C228.086434,68.3792352 227.478873,67.2727281 226.68,66.31 C225.857587,65.3154522 224.835546,64.504633 223.68,63.93 C222.333985,63.2822158 220.853334,62.9634646 219.36,63 Z M276.49,80.56 C276.495,80.873 276.536,81.185 276.61,81.49 C276.683,81.815 276.801,82.128 276.96,82.42 C277.105831,82.6954503 277.291121,82.9481183 277.51,83.17 C277.715,83.38 277.997,83.496 278.29,83.49 L278.29,84 L270.75,84 L270.75,83.47 C271.051314,83.472586 271.34181,83.3578221 271.56,83.15 C271.797429,82.9297782 272.002767,82.6773145 272.17,82.4 C272.345915,82.112483 272.474235,81.7984386 272.55,81.47 C272.624021,81.1653455 272.664263,80.8534653 272.67,80.54 L272.67,69 C272.67205,68.2012079 272.543695,67.4074376 272.29,66.65 C272.053314,65.9283672 271.668418,65.2641675 271.16,64.7 C270.636775,64.1323971 270.004071,63.6765778 269.3,63.36 C268.513742,63.009997 267.660527,62.8359413 266.8,62.85 C265.855963,62.8249886 264.922825,63.0565453 264.1,63.52 C263.378395,63.9351066 262.746216,64.4891129 262.24,65.15 C261.784885,65.740917 261.423948,66.3986993 261.17,67.1 C260.965409,67.6206667 260.847187,68.1712405 260.82,68.73 L260.82,80.53 C260.825,80.844 260.865,81.155 260.94,81.46 C261.015,81.789 261.143,82.103 261.32,82.39 C261.482917,82.6621095 261.677617,82.9138776 261.9,83.14 C262.105,83.35 262.387,83.466 262.68,83.46 L262.68,84 L255.19,84 L255.19,83.47 C255.471763,83.4633546 255.740227,83.3488101 255.94,83.15 C256.177624,82.9299603 256.382984,82.6774676 256.55,82.4 C256.725915,82.112483 256.854235,81.7984386 256.93,81.47 C257.004425,81.1654205 257.044673,80.8534953 257.05,80.54 L257.05,68.7 C257.058694,67.8807591 256.891604,67.0691797 256.56,66.32 C256.248611,65.6187308 255.791873,64.9915689 255.22,64.48 C254.656196,63.9819232 254.009846,63.5859913 253.31,63.31 C252.617478,63.0287108 251.877465,62.8827449 251.13,62.88 C250.221595,62.8588192 249.319843,63.0398528 248.49,63.41 C247.129998,64.0059739 246.054452,65.1066158 245.49,66.48 C245.248758,67.0464748 245.119707,67.6543724 245.11,68.27 L245.11,80.55 C245.115,80.864 245.155,81.175 245.23,81.48 C245.305,81.809 245.433,82.123 245.61,82.41 C245.772,82.682 245.967,82.934 246.19,83.16 C246.395,83.37 246.677,83.486 246.97,83.48 L246.97,84 L239.48,84 L239.48,83.47 C239.761763,83.4633546 240.030227,83.3488101 240.23,83.15 C240.467429,82.9297782 240.672767,82.6773145 240.84,82.4 C241.016231,82.1126427 241.144572,81.7985455 241.22,81.47 C241.294021,81.1653455 241.334263,80.8534653 241.34,80.54 L241.34,66.3 C241.338098,65.9658269 241.318069,65.6320031 241.28,65.3 C241.243054,64.95876 241.16585,64.623092 241.05,64.3 C240.936532,63.9836806 240.735358,63.7061997 240.47,63.5 C240.150316,63.271503 239.762368,63.1586453 239.37,63.18 L239.37,62.7 L245.11,60.94 L245.11,63.66 C245.822609,62.9582428 246.634649,62.3652183 247.52,61.9 C248.761296,61.286692 250.136571,60.9944461 251.52,61.05 C252.503518,61.0361826 253.482807,61.1813875 254.42,61.48 C255.211352,61.73552 255.962239,62.1025453 256.65,62.57 C257.267923,62.9975784 257.823261,63.5091627 258.3,64.09 C258.72957,64.6120805 259.117431,65.1671238 259.46,65.75 C259.7901,65.1828657 260.157579,64.6383291 260.56,64.12 C261.005824,63.5492087 261.52343,63.0383246 262.1,62.6 C262.750421,62.1113263 263.47678,61.732944 264.25,61.48 C265.196224,61.1758651 266.18629,61.0305652 267.18,61.05 C268.94703,60.9609878 270.707125,61.32954 272.29,62.12 C273.413717,62.7233602 274.363972,63.6047558 275.05,64.68 C275.632593,65.633454 276.016921,66.6946068 276.18,67.8 C276.32,68.71 276.396,69.63 276.41,70.55 L276.49,80.56 Z" id="Shape" fill="#888A35" fill-rule="nonzero"></path>
            <path d="M333.3,49.32 C332.530134,49.3058164 331.795083,49.6402647 331.3,50.23 C330.77976,50.7998883 330.402694,51.4854616 330.2,52.23 L319.64,84.23 L310.61,58 L301.56,84.33 L290.94,52.33 C290.733613,51.6070746 290.394508,50.9288646 289.94,50.33 C289.588469,49.7450569 288.971216,49.3709642 288.29,49.33 L288.29,48.8 L296.53,48.8 L296.53,49.33 C296.050167,49.3184303 295.590786,49.5242332 295.28,49.89 C294.943758,50.2847866 294.768781,50.7918642 294.79,51.31 C294.8,51.544 294.841,51.776 294.91,52 L302.45,74.64 L311.68,48.47 L320.56,74.59 L328.19,52 C328.205796,51.8475057 328.235929,51.6968395 328.28,51.55 C328.331579,51.3674471 328.361781,51.1795215 328.37,50.99 C328.38988,50.5434898 328.223252,50.1088095 327.91,49.79 C327.671931,49.5226203 327.337405,49.3607528 326.98,49.34 L326.98,48.81 L333.3,48.81 L333.3,49.32 Z M347.46,84 L347.46,81.28 L347.17,81.55 C346.194815,82.4438357 345.062337,83.149091 343.83,83.63 C341.248,84.4951349 338.472851,84.6061408 335.83,83.95 C334.962703,83.7176185 334.152547,83.3091364 333.45,82.75 C332.832457,82.2922996 332.334945,81.6918531 332,81 C331.7114,80.3237117 331.565032,79.5952763 331.57,78.86 C331.552464,77.7027026 331.929878,76.5739869 332.64,75.66 C333.485536,74.6277601 334.542646,73.7888918 335.74,73.2 C337.34086,72.3924686 339.015112,71.7395103 340.74,71.25 C342.693,70.663 344.927,70.083 347.44,69.51 C347.418331,68.329491 347.098409,67.1736435 346.51,66.15 C345.583273,64.5965359 344.04332,63.5069459 342.27,63.15 C341.582551,63.0037143 340.882714,62.9233502 340.18,62.91 C339.281281,62.893112 338.386907,63.0387864 337.54,63.34 C336.820407,63.5964481 336.145527,63.9642577 335.54,64.43 C335.006928,64.8471816 334.529686,65.3311462 334.12,65.87 C333.767554,66.3318229 333.456358,66.8237134 333.19,67.34 L332.67,67.34 L332.67,63.44 C332.974,63.405 333.27,63.314 333.54,63.17 C333.863686,63.0051969 334.19772,62.861562 334.54,62.74 C335.337887,62.4417816 336.131307,62.1317476 336.92,61.81 C338.283263,61.3454363 339.721065,61.1385827 341.16,61.2 C342.910772,61.1437116 344.657696,61.3976249 346.32,61.95 C347.468119,62.3620754 348.498038,63.0486881 349.32,63.95 C350.023857,64.7473126 350.51261,65.7110505 350.74,66.75 C350.974051,67.8106907 351.091415,68.8937944 351.09,69.98 L351.09,80.55 C351.085161,81.2507055 351.264478,81.9403884 351.61,82.55 C351.853981,83.1031547 352.395602,83.465534 353,83.48 L353,84 L347.46,84 Z M347.46,78.93 L347.46,71.29 L346.88,71.4 C345.953,71.613 344.823,71.897 343.49,72.25 C342.183595,72.5964801 340.911627,73.0617524 339.69,73.64 C338.568889,74.1485158 337.530615,74.8227198 336.61,75.64 C335.807086,76.316617 335.339587,77.310053 335.33,78.36 C335.326964,79.4968509 335.89398,80.5595358 336.84,81.19 C337.999525,81.9836128 339.386487,82.3768779 340.79,82.31 C341.960041,82.3391021 343.118703,82.0743632 344.16,81.54 C345.145588,81.0115148 346.045733,80.3372487 346.83,79.54 L347.46,78.93 Z M367.71,91.67 C367.360386,92.8638836 366.638666,93.914932 365.65,94.67 C364.886297,95.1823097 363.989571,95.4603645 363.07,95.47 C362.548915,95.4797271 362.029455,95.4088916 361.53,95.26 C361.125343,95.1342746 360.736204,94.9631874 360.37,94.75 C360.091972,94.5898171 359.830671,94.4022159 359.59,94.19 C359.44399,94.0732797 359.324651,93.9266631 359.24,93.76 L361.16,89.43 C361.296,89.931 361.49,90.415 361.74,90.87 C361.94,91.254 362.216,91.594 362.55,91.87 C362.913916,92.157386 363.366386,92.3093876 363.83,92.3 C364.757,92.3 365.49,91.677 366.03,90.43 L368.87,83.86 L359.53,64.42 C359.258677,63.8905688 358.922783,63.3968053 358.53,62.95 C358.087292,62.3972974 357.407465,62.0889607 356.7,62.12 L356.7,61.59 L364.36,61.59 L364.36,62.12 C364.207,62.12 364.013,62.243 363.78,62.49 C363.531943,62.7617146 363.405528,63.1229001 363.43,63.49 C363.425,63.79 363.505,64.084 363.66,64.34 L370.8,79.45 L377.69,64 C377.79581,63.784968 377.853806,63.5495749 377.86,63.31 C377.869707,62.9835186 377.729762,62.6704835 377.48,62.46 C377.267262,62.2625033 376.990146,62.1488147 376.7,62.14 L376.7,61.61 L382.33,61.61 L382.33,62.14 C381.717155,62.1350296 381.13272,62.3980258 380.73,62.86 C380.286845,63.3413584 379.925407,63.8919603 379.66,64.49 L367.71,91.67 Z M404.55,77.94 C404.555388,78.8482682 404.294657,79.7382292 403.8,80.5 C403.261762,81.3205833 402.560583,82.0217618 401.74,82.56 C400.817194,83.1744281 399.805361,83.6432439 398.74,83.95 C397.513872,84.2978964 396.244492,84.4696163 394.97,84.46 C393.590772,84.5062847 392.214732,84.2995397 390.91,83.85 C389.989733,83.5013042 389.097183,83.0834437 388.24,82.6 C387.74,82.313 387.277,82.073 386.85,81.88 C386.413199,81.6836157 385.938887,81.5846586 385.46,81.59 L385.46,77.53 L386,77.53 C386.185599,78.1511908 386.530323,78.7130901 387,79.16 C387.59733,79.7832624 388.269037,80.3307041 389,80.79 C389.821559,81.3010625 390.696817,81.7202476 391.61,82.04 C392.530058,82.3743831 393.501067,82.5469318 394.48,82.55 C395.202,82.55 395.922,82.479 396.63,82.34 C397.327501,82.2116157 398.001715,81.9790119 398.63,81.65 C399.205212,81.3498913 399.717745,80.9425801 400.14,80.45 C400.549069,79.9639948 400.766058,79.3450438 400.75,78.71 C400.759843,78.0646787 400.532057,77.4382667 400.11,76.95 C399.647538,76.4212862 399.095827,75.9778866 398.48,75.64 C397.760573,75.2347752 397.003734,74.8998911 396.22,74.64 C395.375501,74.3561045 394.525326,74.0893829 393.67,73.84 C392.655817,73.5508285 391.654849,73.2171724 390.67,72.84 C389.710181,72.5133492 388.785552,72.0912358 387.91,71.58 C387.127947,71.1391486 386.446705,70.5396561 385.91,69.82 C385.39981,69.0954968 385.1368,68.2258104 385.16,67.34 C385.157075,66.5310072 385.324008,65.7304099 385.65,64.99 C386.006741,64.2073512 386.566006,63.5341619 387.27,63.04 C388.15993,62.4239133 389.151904,61.9702458 390.2,61.7 C391.620251,61.3339924 393.083605,61.1624267 394.55,61.19 C395.730163,61.1558182 396.909825,61.2734483 398.06,61.54 C398.764026,61.7271053 399.452703,61.967808 400.12,62.26 C400.437959,62.4289502 400.773237,62.5630614 401.12,62.66 C401.5,62.752 401.89,62.795 402.28,62.79 L402.28,66.53 L401.82,66.53 C401.076729,65.3155581 399.956347,64.3778085 398.63,63.86 C397.236597,63.2617758 395.73639,62.9522093 394.22,62.95 C393.373395,62.9336247 392.529559,63.0517618 391.72,63.3 C391.107625,63.4885978 390.530062,63.7756907 390.01,64.15 C389.592,64.45 389.25,64.844 389.01,65.3 C388.804681,65.6957628 388.695077,66.1341766 388.69,66.58 C388.675071,67.1469477 388.871054,67.699266 389.24,68.13 C389.664,68.6 390.178,68.98 390.75,69.25 C391.448,69.596 392.166,69.9 392.9,70.16 C393.693,70.447 394.533,70.713 395.42,70.96 C396.5,71.28 397.583,71.613 398.67,71.96 C399.685187,72.3017076 400.65813,72.7579843 401.57,73.32 C402.379128,73.8173629 403.088002,74.4617944 403.66,75.22 C404.257096,75.9992093 404.570997,76.9585469 404.55,77.94 Z M183.69,108.18 L183.84,108.18 C184.327,108.18 184.57,107.98 184.57,107.58 C184.567259,107.42257 184.536793,107.266855 184.48,107.12 L181.74,100.5 L176.42,100.5 L173.78,107 C173.723224,107.129384 173.692636,107.268732 173.69,107.41 C173.678088,107.617899 173.754324,107.821196 173.9,107.97 C174.020398,108.095527 174.186084,108.167564 174.36,108.17 L174.51,108.17 L174.51,108.44 L171.14,108.44 L171.14,108.17 L171.29,108.17 C171.594891,108.146462 171.875142,107.993598 172.06,107.75 C172.321308,107.453813 172.530902,107.115758 172.68,106.75 L179.68,90.14 L186.49,106.59 C186.64,106.968 186.838,107.324 187.08,107.65 C187.302,107.983 187.68,108.18 188.08,108.17 L188.23,108.17 L188.23,108.44 L183.73,108.44 L183.69,108.18 Z M176.69,99.58 L181.37,99.58 L179.03,93.89 L176.69,99.58 Z M201.86,91.19 C200.524333,91.1594214 199.196703,91.4045224 197.96,91.91 C196.925304,92.3436492 195.989659,92.9832902 195.21,93.79 C194.494185,94.5357695 193.939362,95.4207619 193.58,96.39 C193.234726,97.3042478 193.05525,98.2727407 193.05,99.25 C193.054097,100.334907 193.292894,101.406082 193.75,102.39 C194.214284,103.411279 194.869353,104.334486 195.68,105.11 C196.515754,105.91192 197.487578,106.558674 198.55,107.02 C200.075742,107.680491 201.758221,107.892102 203.4,107.63 C203.90619,107.554569 204.400366,107.413376 204.87,107.21 C205.366559,106.995182 205.823045,106.697621 206.22,106.33 C206.672224,105.920369 207.015811,105.404988 207.22,104.83 L207.52,104.83 L207.52,107.83 C207.183607,107.829258 206.848188,107.866154 206.52,107.94 L205.41,108.18 C204.883,108.307 204.3,108.423 203.66,108.53 C202.998969,108.639071 202.329964,108.692591 201.66,108.69 C200.07151,108.720547 198.492226,108.44205 197.01,107.87 C195.768632,107.38877 194.633833,106.668478 193.67,105.75 C192.797901,104.903337 192.116112,103.880654 191.67,102.75 C191.23712,101.689511 191.01302,100.555431 191.01,99.41 C191.014225,98.2614493 191.238256,97.1243231 191.67,96.06 C192.11391,94.9281953 192.795992,93.9050722 193.67,93.06 C194.660413,92.1266621 195.826288,91.3992647 197.1,90.92 C198.654027,90.3435022 200.30285,90.0653056 201.96,90.1 C202.567153,90.0930134 203.173488,90.1466121 203.77,90.26 C204.31,90.367 204.79,90.477 205.21,90.59 C205.486039,90.6723262 205.766479,90.7390978 206.05,90.79 C206.294113,90.8351575 206.541749,90.8585826 206.79,90.86 L206.79,93.86 L206.49,93.86 C206.389837,93.3437913 206.15918,92.8618222 205.82,92.46 C205.50601,92.0949617 205.117231,91.8016721 204.68,91.6 C204.234181,91.3981135 203.763327,91.2568573 203.28,91.18 C202.80715,91.1456763 202.332319,91.1490202 201.86,91.19 Z M211.31,90.48 L215.63,90.48 L215.63,90.75 L215.48,90.75 C215.323268,90.7465089 215.170554,90.799781 215.05,90.9 C214.923806,91.0049921 214.815702,91.1299872 214.73,91.27 C214.639112,91.411624 214.571583,91.5669391 214.53,91.73 C214.492016,91.873648 214.471864,92.0214266 214.47,92.17 L214.47,102.92 C214.459335,103.594445 214.540069,104.267227 214.71,104.92 C215.01082,106.114252 215.889099,107.078857 217.05,107.49 C217.790555,107.754883 218.573761,107.880332 219.36,107.86 C220.192444,107.892995 221.021978,107.742792 221.79,107.42 C222.347159,107.17176 222.829771,106.782223 223.19,106.29 C223.516755,105.820404 223.735334,105.284205 223.83,104.72 C223.9362,104.152647 223.993079,103.577165 224,103 L224,92.17 C223.997643,92.0214635 223.977499,91.8737444 223.94,91.73 C223.898092,91.5670506 223.830585,91.4117856 223.74,91.27 C223.654298,91.1299872 223.546194,91.0049921 223.42,90.9 C223.309106,90.8034197 223.167055,90.7501506 223.02,90.75 L222.87,90.75 L222.87,90.48 L226.18,90.48 L226.18,90.75 L226,90.75 C225.849181,90.7457366 225.70246,90.7994152 225.59,90.9 C225.473131,91.0086427 225.37214,91.1331984 225.29,91.27 C225.199112,91.411624 225.131583,91.5669391 225.09,91.73 C225.052115,91.8736677 225.031965,92.0214341 225.03,92.17 L225.03,102.9 C225.062074,103.889697 224.89546,104.875783 224.54,105.8 C224.255029,106.499372 223.793287,107.112731 223.2,107.58 C222.609719,108.026959 221.925998,108.334633 221.2,108.48 C220.40414,108.64568 219.592899,108.726134 218.78,108.72 C217.926403,108.725854 217.074709,108.638673 216.24,108.46 C215.514725,108.306825 214.831963,107.996168 214.24,107.55 C213.647043,107.082409 213.185371,106.469144 212.9,105.77 C212.546407,104.862692 212.37974,103.893304 212.41,102.92 L212.41,92.17 C212.408035,92.0214341 212.387885,91.8736677 212.35,91.73 C212.308092,91.5670506 212.240585,91.4117856 212.15,91.27 C212.064298,91.1299872 211.956194,91.0049921 211.83,90.9 C211.721713,90.8056456 211.583605,90.7525271 211.44,90.75 L211.29,90.75 L211.31,90.48 Z M230.22,90.48 L234.54,90.48 C236.322606,90.3675173 238.099943,90.7701953 239.66,91.64 C240.788563,92.3411094 241.456059,93.592187 241.41,94.92 C241.412064,95.6327883 241.199509,96.3296913 240.8,96.92 C240.379761,97.5310835 239.834363,98.0458032 239.2,98.43 C238.507248,98.8519005 237.755733,99.1686828 236.97,99.37 C236.167779,99.5862089 235.340841,99.6971397 234.51,99.7 L233.35,99.7 L233.35,106.64 C233.351,106.802 233.371,106.963 233.41,107.12 C233.449,107.29 233.517,107.452 233.61,107.6 C233.695,107.738 233.795,107.866 233.91,107.98 C234.019103,108.087053 234.167225,108.144857 234.32,108.14 L234.47,108.14 L234.47,108.41 L230.21,108.41 L230.21,108.14 L230.36,108.14 C230.505466,108.137468 230.644668,108.08036 230.75,107.98 C230.87,107.87 230.972,107.742 231.05,107.6 C231.204253,107.303278 231.286472,106.974404 231.29,106.64 L231.29,92.17 C231.27733,91.8655021 231.195241,91.5679266 231.05,91.3 C230.930578,91.007349 230.66338,90.8012242 230.35,90.76 L230.2,90.76 L230.22,90.48 Z M233.35,91.48 L233.35,98.83 L234.27,98.83 C235.007623,98.8402678 235.742569,98.7391283 236.45,98.53 C237.025388,98.3621575 237.566912,98.0947801 238.05,97.74 C238.46086,97.4438804 238.802136,97.0616516 239.05,96.62 C239.268633,96.2284964 239.385535,95.7883919 239.39,95.34 C239.392915,94.8322716 239.294317,94.3290818 239.1,93.86 C238.891778,93.3766519 238.565039,92.9536113 238.15,92.63 C237.634067,92.2391481 237.046218,91.9537183 236.42,91.79 C235.562131,91.5642554 234.676847,91.4599063 233.79,91.48 L233.35,91.48 Z M245.17,90.48 L249.49,90.48 L249.49,90.75 L249.34,90.75 C249.183268,90.7465089 249.030554,90.799781 248.91,90.9 C248.783806,91.0049921 248.675702,91.1299872 248.59,91.27 C248.499112,91.411624 248.431583,91.5669391 248.39,91.73 C248.352016,91.873648 248.331864,92.0214266 248.33,92.17 L248.33,102.92 C248.319335,103.594445 248.400069,104.267227 248.57,104.92 C248.87082,106.114252 249.749099,107.078857 250.91,107.49 C251.650555,107.754883 252.433761,107.880332 253.22,107.86 C254.052444,107.892995 254.881978,107.742792 255.65,107.42 C256.207159,107.17176 256.689771,106.782223 257.05,106.29 C257.376755,105.820404 257.595334,105.284205 257.69,104.72 C257.789493,104.152063 257.83968,103.576586 257.84,103 L257.84,92.17 C257.837643,92.0214635 257.817499,91.8737444 257.78,91.73 C257.738092,91.5670506 257.670585,91.4117856 257.58,91.27 C257.494298,91.1299872 257.386194,91.0049921 257.26,90.9 C257.149106,90.8034197 257.007055,90.7501506 256.86,90.75 L256.71,90.75 L256.71,90.48 L260,90.48 L260,90.75 L259.85,90.75 C259.699181,90.7457366 259.55246,90.7994152 259.44,90.9 C259.323131,91.0086427 259.22214,91.1331984 259.14,91.27 C259.049112,91.411624 258.981583,91.5669391 258.94,91.73 C258.902115,91.8736677 258.881965,92.0214341 258.88,92.17 L258.88,102.9 C258.912074,103.889697 258.74546,104.875783 258.39,105.8 C258.105029,106.499372 257.643287,107.112731 257.05,107.58 C256.459719,108.026959 255.775998,108.334633 255.05,108.48 C254.25414,108.64568 253.442899,108.726134 252.63,108.72 C251.776403,108.725854 250.924709,108.638673 250.09,108.46 C249.364725,108.306825 248.681963,107.996168 248.09,107.55 C247.497043,107.082409 247.035371,106.469144 246.75,105.77 C246.396407,104.862692 246.22974,103.893304 246.26,102.92 L246.26,92.17 C246.258035,92.0214341 246.237885,91.8736677 246.2,91.73 C246.158092,91.5670506 246.090585,91.4117856 246,91.27 C245.914298,91.1299872 245.806194,91.0049921 245.68,90.9 C245.571713,90.8056456 245.433605,90.7525271 245.29,90.75 L245.14,90.75 L245.17,90.48 Z M267.29,108.18 L267.44,108.18 L267.44,108.45 L264.07,108.45 L264.07,108.18 L264.22,108.18 C264.371284,108.176813 264.516545,108.120125 264.63,108.02 C264.759587,107.914556 264.868147,107.785641 264.95,107.64 C265.034675,107.488113 265.101774,107.327075 265.15,107.16 C265.199683,107.004697 265.226629,106.843022 265.23,106.68 L265.23,92.17 C265.243529,92.0236453 265.243529,91.8763547 265.23,91.73 C265.198605,91.5684758 265.141192,91.4131209 265.06,91.27 C264.979021,91.1235631 264.866259,90.9971326 264.73,90.9 C264.576727,90.7966178 264.394787,90.7441351 264.21,90.75 L264,90.75 L264,90.48 L267.07,90.48 L278.07,106.05 L278.07,92.17 C278.065774,92.0201278 278.0388,91.8717678 277.99,91.73 C277.940808,91.567995 277.870183,91.4132919 277.78,91.27 C277.694298,91.1299872 277.586194,91.0049921 277.46,90.9 C277.339446,90.799781 277.186732,90.7465089 277.03,90.75 L276.88,90.75 L276.88,90.48 L280.28,90.48 L280.28,90.75 L280.13,90.75 C279.973268,90.7465089 279.820554,90.799781 279.7,90.9 C279.573806,91.0049921 279.465702,91.1299872 279.38,91.27 C279.289415,91.4117856 279.221908,91.5670506 279.18,91.73 C279.142016,91.873648 279.121864,92.0214266 279.12,92.17 L279.12,108.45 L277.24,108.45 L266.24,92.82 L266.24,106.68 C266.241,106.842 266.261,107.003 266.3,107.16 C266.34,107.33 266.407,107.492 266.5,107.64 C266.588,107.781 266.696,107.909 266.82,108.02 C266.947541,108.136472 267.117886,108.194462 267.29,108.18 Z M292.06,108.18 L292.21,108.18 L292.21,108.45 L287.89,108.45 L287.89,108.18 L288,108.18 C288.15852,108.183614 288.312399,108.126356 288.43,108.02 C288.554001,107.909007 288.661728,107.78108 288.75,107.64 C288.843,107.492 288.91,107.33 288.95,107.16 C288.988163,107.002798 289.008292,106.841759 289.01,106.68 L289.01,91.49 L285.48,91.49 C285.185465,91.4836049 284.89378,91.5488051 284.63,91.68 C284.397271,91.7986288 284.190036,91.9616994 284.02,92.16 C283.708799,92.5182516 283.535121,92.9754856 283.53,93.45 L283.23,93.45 L283.23,90.45 L296.87,90.45 L296.87,93.45 L296.57,93.45 C296.568577,93.2214506 296.527989,92.9948362 296.45,92.78 C296.270382,92.2984674 295.912286,91.9045617 295.45,91.68 C295.186356,91.5484242 294.894575,91.4832027 294.6,91.49 L291.01,91.49 L291.01,106.68 C291.011,106.842 291.031,107.003 291.07,107.16 C291.109,107.33 291.177,107.492 291.27,107.64 C291.355,107.778 291.455,107.906 291.57,108.02 C291.698,108.15 291.88,108.21 292.06,108.18 Z M299.77,90.48 L304.09,90.48 L304.09,90.75 L303.94,90.75 C303.783268,90.7465089 303.630554,90.799781 303.51,90.9 C303.383806,91.0049921 303.275702,91.1299872 303.19,91.27 C303.099112,91.411624 303.031583,91.5669391 302.99,91.73 C302.952016,91.873648 302.931864,92.0214266 302.93,92.17 L302.93,102.92 C302.919335,103.594445 303.000069,104.267227 303.17,104.92 C303.47082,106.114252 304.349099,107.078857 305.51,107.49 C306.250555,107.754883 307.033761,107.880332 307.82,107.86 C308.652444,107.892995 309.481978,107.742792 310.25,107.42 C310.807159,107.17176 311.289771,106.782223 311.65,106.29 C311.976755,105.820404 312.195334,105.284205 312.29,104.72 C312.389493,104.152063 312.43968,103.576586 312.44,103 L312.44,92.17 C312.437643,92.0214635 312.417499,91.8737444 312.38,91.73 C312.338092,91.5670506 312.270585,91.4117856 312.18,91.27 C312.094298,91.1299872 311.986194,91.0049921 311.86,90.9 C311.749106,90.8034197 311.607055,90.7501506 311.46,90.75 L311.31,90.75 L311.31,90.48 L314.62,90.48 L314.62,90.75 L314.47,90.75 C314.319181,90.7457366 314.17246,90.7994152 314.06,90.9 C313.943131,91.0086427 313.84214,91.1331984 313.76,91.27 C313.669112,91.411624 313.601583,91.5669391 313.56,91.73 C313.522115,91.8736677 313.501965,92.0214341 313.5,92.17 L313.5,102.9 C313.532074,103.889697 313.36546,104.875783 313.01,105.8 C312.725029,106.499372 312.263287,107.112731 311.67,107.58 C311.079719,108.026959 310.395998,108.334633 309.67,108.48 C308.87414,108.64568 308.062899,108.726134 307.25,108.72 C306.396403,108.725854 305.544709,108.638673 304.71,108.46 C303.984725,108.306825 303.301963,107.996168 302.71,107.55 C302.117043,107.082409 301.655371,106.469144 301.37,105.77 C301.016407,104.862692 300.84974,103.893304 300.88,102.92 L300.88,92.17 C300.878035,92.0214341 300.857885,91.8736677 300.82,91.73 C300.778092,91.5670506 300.710585,91.4117856 300.62,91.27 C300.534298,91.1299872 300.426194,91.0049921 300.3,90.9 C300.191713,90.8056456 300.053605,90.7525271 299.91,90.75 L299.76,90.75 L299.77,90.48 Z M322.84,108.18 L323,108.18 L323,108.45 L318.7,108.45 L318.7,108.18 L318.85,108.18 C318.995466,108.177468 319.134668,108.12036 319.24,108.02 C319.364001,107.909007 319.471728,107.78108 319.56,107.64 C319.653,107.492 319.72,107.33 319.76,107.16 C319.7986,107.002878 319.818737,106.841789 319.82,106.68 L319.82,92.17 C319.818035,92.0214341 319.797885,91.8736677 319.76,91.73 C319.718092,91.5670506 319.650585,91.4117856 319.56,91.27 C319.474298,91.1299872 319.366194,91.0049921 319.24,90.9 C319.131713,90.8056456 318.993605,90.7525271 318.85,90.75 L318.7,90.75 L318.7,90.48 L324,90.48 C325.63187,90.3857296 327.257287,90.7530948 328.69,91.54 C329.772773,92.2024971 330.40893,93.4019989 330.35,94.67 C330.363909,95.2945 330.233886,95.9138216 329.97,96.48 C329.728473,96.985449 329.3885,97.437613 328.97,97.81 C328.525802,98.1944776 328.018279,98.4989914 327.47,98.71 C326.875776,98.9403605 326.259088,99.1079388 325.63,99.21 L327.82,102.21 C328.347,102.937 328.883,103.65 329.43,104.35 C329.977,105.05 330.513,105.77 331.04,106.51 C331.18,106.69 331.34,106.88 331.51,107.08 C331.679166,107.273884 331.863045,107.45442 332.06,107.62 C332.245,107.777 332.45,107.908 332.67,108.01 C332.873,108.108 333.095,108.159 333.32,108.16 L333.32,108.43 L332,108.43 C331.294811,108.462108 330.596744,108.277121 330,107.9 C329.502585,107.563068 329.066321,107.143715 328.71,106.66 C327.797,105.46 326.89,104.243 325.99,103.01 C325.09,101.777 324.193,100.56 323.3,99.36 L322.59,99.29 L321.88,99.19 L321.88,106.65 C321.881,106.812 321.901,106.973 321.94,107.13 C321.979,107.3 322.047,107.462 322.14,107.61 C322.225,107.748 322.325,107.876 322.44,107.99 C322.542277,108.104655 322.686509,108.173165 322.84,108.18 Z M321.84,91.41 L321.84,98.33 L324.1,98.33 C324.555626,98.3248511 325.008942,98.264409 325.45,98.15 C325.928846,98.0314321 326.382648,97.8282375 326.79,97.55 C327.198885,97.2598801 327.540046,96.8846024 327.79,96.45 C328.082024,95.9251964 328.223877,95.3301057 328.2,94.73 C328.224168,94.1354982 328.071011,93.5472362 327.76,93.04 C327.447717,92.605773 327.027073,92.2609828 326.54,92.04 C325.949841,91.764099 325.31787,91.5883638 324.67,91.52 C323.873623,91.4242181 323.072112,91.3774633 322.27,91.38 L321.84,91.41 Z M336.3,108.18 L336.45,108.18 C336.606732,108.183491 336.759446,108.130219 336.88,108.03 C337.006194,107.925008 337.114298,107.800013 337.2,107.66 C337.28918,107.516169 337.359744,107.361601 337.41,107.2 C337.4593,107.051475 337.486261,106.896449 337.49,106.74 L337.49,92.17 C337.485321,92.0201755 337.458358,91.8718829 337.41,91.73 C337.359744,91.5683994 337.28918,91.4138309 337.2,91.27 C337.114298,91.1299872 337.006194,91.0049921 336.88,90.9 C336.759446,90.799781 336.606732,90.7465089 336.45,90.75 L336.3,90.75 L336.3,90.48 L348,90.48 L348,93 L347.7,93 C347.655788,92.5788675 347.460379,92.1880492 347.15,91.9 C346.726107,91.5464544 346.18006,91.3740185 345.63,91.42 L339.52,91.42 L339.52,98.31 L344.52,98.31 C344.942524,98.3246671 345.356729,98.1901391 345.69,97.93 C345.980213,97.7212374 346.154521,97.3874569 346.16,97.03 L346.46,97.03 L346.46,100.43 L346.16,100.43 C346.159434,100.090008 345.98616,99.7735955 345.7,99.59 C345.357081,99.3442357 344.941463,99.2209592 344.52,99.24 L339.52,99.24 L339.52,107.49 L346.17,107.49 C346.518555,107.498532 346.863284,107.415797 347.17,107.25 C347.44,107.096 347.68,106.897 347.88,106.66 C348.067682,106.445668 348.213533,106.198061 348.31,105.93 C348.393,105.716 348.44,105.49 348.45,105.26 L348.75,105.26 L348.75,108.45 L336.3,108.45 L336.3,108.18 Z M364.63,108.45 L364.63,107.45 L364.52,107.54 C364.165288,107.858551 363.755174,108.109365 363.31,108.28 C362.36911,108.586601 361.361352,108.624695 360.4,108.39 C360.088138,108.308902 359.795705,108.166086 359.54,107.97 C359.328711,107.802133 359.160692,107.586109 359.05,107.34 C358.944867,107.10392 358.890363,106.848431 358.89,106.59 C358.885022,106.179503 359.02289,105.780041 359.28,105.46 C359.590504,105.092933 359.975744,104.796332 360.41,104.59 C360.987274,104.30461 361.589877,104.073612 362.21,103.9 C362.917,103.693 363.727,103.49 364.64,103.29 C364.631727,102.870569 364.514562,102.460492 364.3,102.1 C364.123272,101.816829 363.888007,101.574745 363.61,101.39 C363.354131,101.224354 363.06905,101.108964 362.77,101.05 C362.515483,101.009105 362.257669,100.992364 362,101 C361.660287,100.98822 361.321306,101.039067 361,101.15 C360.515412,101.331874 360.089982,101.643164 359.77,102.05 C359.640897,102.212494 359.52708,102.386567 359.43,102.57 L359.24,102.57 L359.24,101.19 C359.351372,101.180363 359.459932,101.149831 359.56,101.1 L359.92,100.95 L360.78,100.62 C361.275792,100.454084 361.797583,100.379542 362.32,100.4 C362.953639,100.378634 363.586223,100.466587 364.19,100.66 C364.608,100.8 364.986,101.04 365.29,101.36 C365.548,101.642 365.727,101.987 365.81,102.36 C365.896,102.734 365.94,103.116 365.94,103.5 L365.94,107.23 C365.938971,107.479364 366.004565,107.724478 366.13,107.94 C366.222342,108.138968 366.420665,108.267294 366.64,108.27 L366.64,108.46 L364.63,108.45 Z M364.63,106.66 L364.63,104 L364.42,104 L363.19,104.3 C362.716307,104.421849 362.254466,104.585836 361.81,104.79 C361.406333,104.97361 361.032236,105.216268 360.7,105.51 C360.401477,105.755191 360.231928,106.123775 360.24,106.51 C360.241,106.915 360.448,107.292 360.79,107.51 C361.212106,107.791782 361.712954,107.931879 362.22,107.91 C362.642529,107.920108 363.061193,107.827453 363.44,107.64 C363.807849,107.456145 364.145146,107.216664 364.44,106.93 L364.63,106.66 Z M378,107.23 C377.987083,107.339621 377.987083,107.450379 378,107.56 C378.028,107.677 378.075,107.789 378.14,107.89 C378.2,107.984 378.27,108.072 378.35,108.15 C378.424867,108.222637 378.525712,108.262254 378.63,108.26 L378.63,108.45 L375.92,108.45 L375.92,108.26 C376.020634,108.258606 376.117043,108.219328 376.19,108.15 C376.274943,108.073865 376.348975,107.986373 376.41,107.89 C376.474724,107.788567 376.522042,107.677031 376.55,107.56 C376.562917,107.450379 376.562917,107.339621 376.55,107.23 L376.55,103.72 C376.558999,103.313378 376.487635,102.90898 376.34,102.53 C376.212225,102.209558 376.017952,101.919853 375.77,101.68 C375.538559,101.457718 375.262435,101.287271 374.96,101.18 C374.66485,101.074031 374.353597,101.0199 374.04,101.02 C373.728898,101.021338 373.420603,101.078931 373.13,101.19 C372.842446,101.294991 372.572656,101.443376 372.33,101.63 C372.10222,101.806424 371.90898,102.023395 371.76,102.27 C371.618113,102.498255 371.541984,102.761246 371.54,103.03 L371.54,107.21 C371.527614,107.319651 371.527614,107.430349 371.54,107.54 C371.568,107.657 371.615,107.769 371.68,107.87 C371.74,107.965 371.81,108.052 371.89,108.13 C371.964867,108.202637 372.065712,108.242254 372.17,108.24 L372.17,108.43 L369.43,108.43 L369.43,108.24 C369.530634,108.238606 369.627043,108.199328 369.7,108.13 C369.784943,108.053865 369.858975,107.966373 369.92,107.87 C369.984724,107.768567 370.032042,107.657031 370.06,107.54 C370.072825,107.430374 370.072825,107.319626 370.06,107.21 L370.06,102 C370.058681,101.791854 370.021469,101.585496 369.95,101.39 C369.877,101.197 369.673,101.093 369.34,101.08 L369.34,100.91 L371.44,100.31 L371.44,101.31 C371.617541,101.190979 371.804883,101.087272 372,101 C372.174776,100.86815 372.36239,100.754242 372.56,100.66 C372.803118,100.545936 373.05796,100.458753 373.32,100.4 C373.648474,100.328928 373.983956,100.29538 374.32,100.3 C374.894566,100.284823 375.466198,100.386901 376,100.6 C376.43,100.777 376.819,101.043 377.14,101.38 C377.424723,101.684984 377.642699,102.046006 377.78,102.44 C377.909,102.8 377.977,103.178 377.98,103.56 L378,107.23 Z M388.21,108.45 L388.21,107.62 C387.914628,107.892728 387.576891,108.115635 387.21,108.28 C386.739941,108.494694 386.226475,108.597387 385.71,108.58 C385.043162,108.594566 384.380149,108.475563 383.76,108.23 C383.242858,108.023755 382.773268,107.714098 382.38,107.32 C382.021564,106.952315 381.745453,106.512581 381.57,106.03 C381.220084,105.060001 381.223626,103.997645 381.58,103.03 C381.76,102.536 382.04,102.083 382.4,101.7 C382.787359,101.296016 383.253693,100.97605 383.77,100.76 C384.368436,100.510957 385.011916,100.388389 385.66,100.4 C386.14,100.402 386.616,100.483 387.07,100.64 C387.472108,100.764605 387.84349,100.972442 388.16,101.25 L388.16,97.57 C388.159161,97.3650633 388.121916,97.1619059 388.05,96.97 C387.977,96.783 387.773,96.683 387.44,96.67 L387.44,96.48 L389.54,95.9 L389.54,107.23 C389.527614,107.339651 389.527614,107.450349 389.54,107.56 C389.568,107.675 389.612,107.787 389.67,107.89 C389.724919,107.987833 389.79591,108.075727 389.88,108.15 C389.959616,108.221467 390.063015,108.260687 390.17,108.26 L390.17,108.45 L388.21,108.45 Z M385.9,108 C386.194048,107.999801 386.485555,107.945567 386.76,107.84 C387.03,107.742 387.28,107.596 387.5,107.41 C387.710953,107.230203 387.887194,107.013292 388.02,106.77 C388.153302,106.524559 388.222118,106.249296 388.22,105.97 L388.22,103.39 C388.234205,103.039598 388.147429,102.692493 387.97,102.39 C387.806044,102.110449 387.592563,101.863082 387.34,101.66 C387.090879,101.461517 386.810352,101.306044 386.51,101.2 C385.819261,100.94755 385.054525,100.994666 384.4,101.33 C384.042851,101.515119 383.72658,101.770176 383.47,102.08 C383.220936,102.376014 383.027793,102.714862 382.9,103.08 C382.775855,103.44733 382.7117,103.832262 382.71,104.22 C382.71,104.665 382.782,105.107 382.92,105.53 C383.055,105.954 383.265,106.35 383.54,106.7 C383.815,107.048 384.155,107.34 384.54,107.56 C384.948,107.82 385.417,107.972 385.9,108 Z M407.82,108.26 L407.93,108.26 C408.028971,108.25952 408.124594,108.224105 408.2,108.16 C408.287661,108.086551 408.362074,107.998609 408.42,107.9 C408.484,107.794 408.53,107.68 408.56,107.56 C408.572386,107.450349 408.572386,107.339651 408.56,107.23 L408.56,102.1 L401.83,102.1 L401.83,107.23 C401.817614,107.339651 401.817614,107.450349 401.83,107.56 C401.858,107.675 401.902,107.787 401.96,107.89 C402.014,107.986 402.081,108.074 402.16,108.15 C402.234867,108.222637 402.335712,108.262254 402.44,108.26 L402.55,108.26 L402.55,108.45 L399.6,108.45 L399.6,108.26 L399.7,108.26 C399.798971,108.25952 399.894594,108.224105 399.97,108.16 C400.057661,108.086551 400.132074,107.998609 400.19,107.9 C400.254,107.794 400.3,107.68 400.33,107.56 C400.342386,107.450349 400.342386,107.339651 400.33,107.23 L400.33,97.23 C400.342,97.13 400.342,97.03 400.33,96.93 C400.30098,96.8180631 400.257267,96.7104614 400.2,96.61 C400.146207,96.5142969 400.074982,96.4295044 399.99,96.36 C399.908029,96.2937306 399.805395,96.2583397 399.7,96.26 L399.6,96.26 L399.6,96 L402.55,96 L402.55,96.19 L402.44,96.19 C402.334605,96.1883397 402.231971,96.2237306 402.15,96.29 C402.066117,96.357967 401.997896,96.443243 401.95,96.54 C401.899031,96.6422254 401.858816,96.7494672 401.83,96.86 C401.818,96.96 401.818,97.06 401.83,97.16 L401.83,101.42 L408.56,101.42 L408.56,97.16 C408.572,97.06 408.572,96.96 408.56,96.86 C408.53098,96.7480631 408.487267,96.6404614 408.43,96.54 C408.376015,96.44443 408.304817,96.3596708 408.22,96.29 C408.138029,96.2237306 408.035395,96.1883397 407.93,96.19 L407.82,96.19 L407.82,96 L410.77,96 L410.77,96.19 L410.66,96.19 C410.554605,96.1883397 410.451971,96.2237306 410.37,96.29 C410.286338,96.3581867 410.218159,96.4434108 410.17,96.54 C410.118548,96.6420141 410.078312,96.7493083 410.05,96.86 C410.038,96.96 410.038,97.06 410.05,97.16 L410.05,107.16 C410.05,107.272 410.067,107.383 410.1,107.49 C410.134,107.605 410.181,107.716 410.24,107.82 C410.294,107.916 410.361,108.004 410.44,108.08 C410.508075,108.150537 410.601971,108.190262 410.7,108.19 L410.81,108.19 L410.81,108.38 L407.86,108.38 L407.82,108.26 Z M414.49,104.64 C414.546,105.073 414.667,105.494 414.85,105.89 C415.034,106.263 415.28,106.601 415.58,106.89 C415.894952,107.203476 416.268791,107.451569 416.68,107.62 C417.16,107.81 417.674,107.901 418.19,107.89 C418.860442,107.880069 419.52006,107.719437 420.12,107.42 C420.408992,107.272458 420.675088,107.083833 420.91,106.86 C421.12941,106.65528 421.291441,106.396719 421.38,106.11 L421.57,106.11 L421.57,107.52 C421.471985,107.526135 421.376461,107.553427 421.29,107.6 L420.92,107.79 C420.552282,107.977733 420.171254,108.138166 419.78,108.27 C419.168221,108.457556 418.529504,108.542042 417.89,108.52 C417.281718,108.524751 416.675788,108.443961 416.09,108.28 C415.546269,108.129185 415.03689,107.874496 414.59,107.53 C414.162867,107.177652 413.820997,106.733222 413.59,106.23 C413.316107,105.638466 413.182634,104.991635 413.2,104.34 C413.203176,103.858377 413.291189,103.38108 413.46,102.93 C413.637,102.45 413.91,102.012 414.26,101.64 C414.649715,101.236683 415.119889,100.919827 415.64,100.71 C416.276139,100.458355 416.95604,100.335973 417.64,100.35 C418.268253,100.336708 418.893122,100.445381 419.48,100.67 C419.975,100.865 420.42,101.17 420.78,101.56 C421.13,101.946 421.392,102.403 421.55,102.9 C421.722536,103.44992 421.806914,104.02369 421.8,104.6 L414.49,104.64 Z M417.54,101.02 C417.102346,101.008318 416.667853,101.09727 416.27,101.28 C415.58641,101.615307 415.05181,102.192674 414.77,102.9 C414.633625,103.239873 414.542836,103.596301 414.5,103.96 L420.5,103.96 C420.484817,103.593807 420.410525,103.232478 420.28,102.89 C420.150162,102.546126 419.96058,102.2279 419.72,101.95 C419.468367,101.663837 419.157977,101.435308 418.81,101.28 C418.412232,101.094928 417.978714,100.999349 417.54,101 L417.54,101.02 Z M429.49,101.91 C429.368835,101.700119 429.182863,101.5352 428.96,101.44 C428.756427,101.375346 428.543533,101.344932 428.33,101.35 C428.162736,101.351902 427.997023,101.382339 427.84,101.44 C427.65941,101.503234 427.485283,101.5836 427.32,101.68 C427.15,101.78 426.99,101.89 426.83,102.01 C426.67,102.13 426.53,102.24 426.42,102.34 L426.42,107.24 C426.406822,107.34626 426.406822,107.45374 426.42,107.56 C426.449881,107.676389 426.497074,107.78763 426.56,107.89 C426.616,107.987 426.687,108.075 426.77,108.15 C426.847534,108.217193 426.947442,108.252874 427.05,108.25 L427.05,108.44 L424.32,108.44 L424.32,108.25 C424.418971,108.24952 424.514594,108.214105 424.59,108.15 C424.677661,108.076551 424.752074,107.988609 424.81,107.89 C424.872404,107.787362 424.919563,107.6762 424.95,107.56 C424.962687,107.453711 424.962687,107.346289 424.95,107.24 L424.95,102 C424.944286,101.80769 424.877768,101.622139 424.76,101.47 C424.627155,101.290216 424.430205,101.168466 424.21,101.13 L424.21,101 L426.34,100.43 L426.34,101.56 C426.467,101.42 426.6,101.283 426.74,101.15 C426.883838,101.014119 427.041342,100.893477 427.21,100.79 C427.392717,100.681366 427.587331,100.594125 427.79,100.53 C428.03,100.458 428.28,100.424 428.53,100.43 C428.787,100.437 429.042,100.474 429.29,100.54 C429.5498,100.597862 429.804087,100.678163 430.05,100.78 L429.49,101.91 Z M436.77,100.4 C437.45256,100.380403 438.13226,100.495952 438.77,100.74 C439.287469,100.94099 439.757436,101.24749 440.15,101.64 C440.51,102.009 440.788,102.448 440.97,102.93 C441.149,103.403 441.24,103.904 441.24,104.41 C441.240705,104.928656 441.149285,105.443316 440.97,105.93 C440.787167,106.42838 440.504763,106.884309 440.14,107.27 C439.754525,107.695649 439.28452,108.036233 438.76,108.27 C438.161564,108.519043 437.518084,108.641611 436.87,108.63 C436.371585,108.637091 435.877348,108.538243 435.42,108.34 C435.042442,108.172762 434.702368,107.931309 434.42,107.63 L434.42,108.5 L432.36,108.5 L432.36,108.31 C432.460634,108.308606 432.557043,108.269328 432.63,108.2 C432.714943,108.123865 432.788975,108.036373 432.85,107.94 C432.914724,107.838567 432.962042,107.727031 432.99,107.61 C433.002825,107.500374 433.002825,107.389626 432.99,107.28 L432.99,97.67 C432.989161,97.4650633 432.951916,97.2619059 432.88,97.07 C432.807,96.883 432.603,96.783 432.27,96.77 L432.27,96.58 L434.37,96 L434.37,101.39 C434.706843,101.092594 435.097085,100.861842 435.52,100.71 C435.915205,100.533994 436.338351,100.429054 436.77,100.4 Z M436.98,107.94 C437.432405,107.927489 437.876402,107.814782 438.28,107.61 C438.633557,107.423768 438.946345,107.168778 439.2,106.86 C439.445632,106.564931 439.632344,106.225456 439.75,105.86 C439.86868,105.477883 439.929356,105.080122 439.93,104.68 C439.93,104.232 439.86,103.786 439.72,103.36 C439.585203,102.94206 439.375077,102.55231 439.1,102.21 C438.82802,101.869405 438.487273,101.589993 438.1,101.39 C437.668266,101.176594 437.191499,101.070265 436.71,101.08 C436.414088,101.08101 436.121479,101.142254 435.85,101.26 C435.575764,101.374181 435.322334,101.532997 435.1,101.73 C434.88,101.927 434.7,102.164 434.57,102.43 C434.437079,102.697111 434.368582,102.991647 434.37,103.29 L434.37,105.63 C434.358398,105.977663 434.437674,106.32234 434.6,106.63 C434.75,106.917 434.957,107.169 435.21,107.37 C435.464,107.572 435.752,107.727 436.06,107.83 C436.365,107.918 436.683,107.955 437,107.94 L436.98,107.94 Z M449.45,108.45 L449.45,107.45 L449.34,107.54 C448.985288,107.858551 448.575174,108.109365 448.13,108.28 C447.18911,108.586601 446.181352,108.624695 445.22,108.39 C444.908138,108.308902 444.615705,108.166086 444.36,107.97 C444.148711,107.802133 443.980692,107.586109 443.87,107.34 C443.764867,107.10392 443.710363,106.848431 443.71,106.59 C443.705022,106.179503 443.84289,105.780041 444.1,105.46 C444.410504,105.092933 444.795744,104.796332 445.23,104.59 C445.807274,104.30461 446.409877,104.073612 447.03,103.9 C447.737,103.693 448.547,103.49 449.46,103.29 C449.451727,102.870569 449.334562,102.460492 449.12,102.1 C448.943272,101.816829 448.708007,101.574745 448.43,101.39 C448.174131,101.224354 447.88905,101.108964 447.59,101.05 C447.339719,100.999673 447.085275,100.972889 446.83,100.97 C446.490287,100.95822 446.151306,101.009067 445.83,101.12 C445.345412,101.301874 444.919982,101.613164 444.6,102.02 C444.470897,102.182494 444.35708,102.356567 444.26,102.54 L444.07,102.54 L444.07,101.16 C444.181372,101.150363 444.289932,101.119831 444.39,101.07 L444.75,100.92 L445.61,100.59 C446.105792,100.424084 446.627583,100.349542 447.15,100.37 C447.783639,100.348634 448.416223,100.436587 449.02,100.63 C449.438,100.77 449.816,101.01 450.12,101.33 C450.378,101.612 450.557,101.957 450.64,102.33 C450.726,102.704 450.77,103.086 450.77,103.47 L450.77,107.2 C450.768971,107.449364 450.834565,107.694478 450.96,107.91 C451.052342,108.108968 451.250665,108.237294 451.47,108.24 L451.47,108.43 L449.45,108.45 Z M449.45,106.66 L449.45,104 L449.24,104 L448.01,104.3 C447.536307,104.421849 447.074466,104.585836 446.63,104.79 C446.226333,104.97361 445.852236,105.216268 445.52,105.51 C445.221477,105.755191 445.051928,106.123775 445.06,106.51 C445.061,106.915 445.268,107.292 445.61,107.51 C446.032106,107.791782 446.532954,107.931879 447.04,107.91 C447.462529,107.920108 447.881193,107.827453 448.26,107.64 C448.627849,107.456145 448.965146,107.216664 449.26,106.93 L449.45,106.66 Z M454.42,108.45 L454.42,108.26 C454.526985,108.260687 454.630384,108.221467 454.71,108.15 C454.794943,108.073865 454.868975,107.986373 454.93,107.89 C454.994724,107.788567 455.042042,107.677031 455.07,107.56 C455.082386,107.450349 455.082386,107.339651 455.07,107.23 L455.07,97.58 C455.069161,97.3750633 455.031916,97.1719059 454.96,96.98 C454.89,96.79 454.68,96.69 454.33,96.68 L454.33,96.49 L456.46,95.91 L456.46,107.24 C456.447083,107.349621 456.447083,107.460379 456.46,107.57 C456.488,107.687 456.535,107.799 456.6,107.9 C456.66,107.994 456.73,108.082 456.81,108.16 C456.884867,108.232637 456.985712,108.272254 457.09,108.27 L457.09,108.46 L454.42,108.45 Z M477.62,108.26 L477.73,108.26 C477.830634,108.258606 477.927043,108.219328 478,108.15 C478.084943,108.073865 478.158975,107.986373 478.22,107.89 C478.284724,107.788567 478.332042,107.677031 478.36,107.56 C478.372917,107.450379 478.372917,107.339621 478.36,107.23 L478.36,97.31 L473,108.66 L467.85,97.9 L467.85,107.23 C467.837083,107.339621 467.837083,107.450379 467.85,107.56 C467.908423,107.78819 468.033802,107.993673 468.21,108.15 C468.289616,108.221467 468.393015,108.260687 468.5,108.26 L468.61,108.26 L468.61,108.45 L466.32,108.45 L466.32,108.26 L466.43,108.26 C466.530634,108.258606 466.627043,108.219328 466.7,108.15 C466.78409,108.075727 466.855081,107.987833 466.91,107.89 C466.968437,107.786566 467.012191,107.6755 467.04,107.56 C467.052386,107.450349 467.052386,107.339651 467.04,107.23 L467.04,97.23 C467.052,97.13 467.052,97.03 467.04,96.93 C467.01098,96.8180631 466.967267,96.7104614 466.91,96.61 C466.856015,96.51443 466.784817,96.4296708 466.7,96.36 C466.624165,96.2966303 466.528817,96.2613161 466.43,96.26 L466.32,96.26 L466.32,96 L468.47,96 L473.35,106.31 L478.23,96 L480.61,96 L480.61,96.19 L480.5,96.19 C480.394605,96.1883397 480.291971,96.2237306 480.21,96.29 C480.123209,96.3604511 480.048845,96.444956 479.99,96.54 C479.92628,96.6383638 479.878995,96.7464436 479.85,96.86 C479.838,96.96 479.838,97.06 479.85,97.16 L479.85,107.16 C479.837083,107.269621 479.837083,107.380379 479.85,107.49 C479.908423,107.71819 480.033802,107.923673 480.21,108.08 C480.289616,108.151467 480.393015,108.190687 480.5,108.19 L480.61,108.19 L480.61,108.38 L477.61,108.38 L477.62,108.26 Z M484.63,104.64 C484.686,105.073 484.807,105.494 484.99,105.89 C485.174,106.263 485.42,106.601 485.72,106.89 C486.034952,107.203476 486.408791,107.451569 486.82,107.62 C487.3,107.81 487.814,107.901 488.33,107.89 C489.000442,107.880069 489.66006,107.719437 490.26,107.42 C490.548992,107.272458 490.815088,107.083833 491.05,106.86 C491.26941,106.65528 491.431441,106.396719 491.52,106.11 L491.71,106.11 L491.71,107.52 C491.611985,107.526135 491.516461,107.553427 491.43,107.6 L491.06,107.79 C490.692282,107.977733 490.311254,108.138166 489.92,108.27 C489.308221,108.457556 488.669504,108.542042 488.03,108.52 C487.421718,108.524751 486.815788,108.443961 486.23,108.28 C485.686269,108.129185 485.17689,107.874496 484.73,107.53 C484.302867,107.177652 483.960997,106.733222 483.73,106.23 C483.456107,105.638466 483.322634,104.991635 483.34,104.34 C483.343176,103.858377 483.431189,103.38108 483.6,102.93 C483.777,102.45 484.05,102.012 484.4,101.64 C484.789715,101.236683 485.259889,100.919827 485.78,100.71 C486.416139,100.458355 487.09604,100.335973 487.78,100.35 C488.408253,100.336708 489.033122,100.445381 489.62,100.67 C490.115,100.865 490.56,101.17 490.92,101.56 C491.27,101.946 491.532,102.403 491.69,102.9 C491.862536,103.44992 491.946914,104.02369 491.94,104.6 L484.63,104.64 Z M487.68,101.02 C487.242346,101.008318 486.807853,101.09727 486.41,101.28 C485.72641,101.615307 485.19181,102.192674 484.91,102.9 C484.773625,103.239873 484.682836,103.596301 484.64,103.96 L490.64,103.96 C490.624817,103.593807 490.550525,103.232478 490.42,102.89 C490.290162,102.546126 490.10058,102.2279 489.86,101.95 C489.608367,101.663837 489.297977,101.435308 488.95,101.28 C488.552232,101.094928 488.118714,100.999349 487.68,101 L487.68,101.02 Z M501.18,108.45 L501.18,107.62 C500.884628,107.892728 500.546891,108.115635 500.18,108.28 C499.709941,108.494694 499.196475,108.597387 498.68,108.58 C498.013162,108.594566 497.350149,108.475563 496.73,108.23 C496.212858,108.023755 495.743268,107.714098 495.35,107.32 C494.991564,106.952315 494.715453,106.512581 494.54,106.03 C494.190084,105.060001 494.193626,103.997645 494.55,103.03 C494.73,102.536 495.01,102.083 495.37,101.7 C495.757359,101.296016 496.223693,100.97605 496.74,100.76 C497.338436,100.510957 497.981916,100.388389 498.63,100.4 C499.11,100.402 499.586,100.483 500.04,100.64 C500.442108,100.764605 500.81349,100.972442 501.13,101.25 L501.13,97.57 C501.129161,97.3650633 501.091916,97.1619059 501.02,96.97 C500.947,96.783 500.743,96.683 500.41,96.67 L500.41,96.48 L502.51,95.9 L502.51,107.23 C502.497614,107.339651 502.497614,107.450349 502.51,107.56 C502.538,107.675 502.582,107.787 502.64,107.89 C502.694919,107.987833 502.76591,108.075727 502.85,108.15 C502.929616,108.221467 503.033015,108.260687 503.14,108.26 L503.14,108.45 L501.18,108.45 Z M498.87,107.96 C499.164048,107.959801 499.455555,107.905567 499.73,107.8 C500,107.702 500.25,107.556 500.47,107.37 C500.680953,107.190203 500.857194,106.973292 500.99,106.73 C501.123302,106.484559 501.192118,106.209296 501.19,105.93 L501.19,103.35 C501.204205,102.999598 501.117429,102.652493 500.94,102.35 C500.776044,102.070449 500.562563,101.823082 500.31,101.62 C500.060879,101.421517 499.780352,101.266044 499.48,101.16 C498.789261,100.90755 498.024525,100.954666 497.37,101.29 C497.012851,101.475119 496.69658,101.730176 496.44,102.04 C496.190936,102.336014 495.997793,102.674862 495.87,103.04 C495.745855,103.40733 495.6817,103.792262 495.68,104.18 C495.68,104.625 495.752,105.067 495.89,105.49 C496.025,105.914 496.235,106.31 496.51,106.66 C496.785,107.008 497.125,107.3 497.51,107.52 C497.914,107.794 498.383,107.96 498.87,108 L498.87,107.96 Z M506.4,108.45 L506.4,108.26 C506.506985,108.260687 506.610384,108.221467 506.69,108.15 C506.77409,108.075727 506.845081,107.987833 506.9,107.89 C506.958437,107.786566 507.002191,107.6755 507.03,107.56 C507.042386,107.450349 507.042386,107.339651 507.03,107.23 L507.03,102 C507.029085,101.791817 506.991861,101.585389 506.92,101.39 C506.85,101.2 506.65,101.09 506.31,101.08 L506.31,100.91 L508.41,100.31 L508.41,107.23 C508.397083,107.339621 508.397083,107.450379 508.41,107.56 C508.437,107.676 508.481,107.787 508.54,107.89 C508.594919,107.987833 508.66591,108.075727 508.75,108.15 C508.829616,108.221467 508.933015,108.260687 509.04,108.26 L509.04,108.45 L506.4,108.45 Z M506.51,98.45 C506.505993,98.2061336 506.608179,97.9725666 506.79,97.81 C506.981008,97.6361983 507.231848,97.5430293 507.49,97.55 C507.754985,97.5377395 508.013985,97.631267 508.21,97.81 C508.396651,97.9698777 508.502853,98.2042532 508.5,98.45 C508.505551,98.6906334 508.398258,98.9200189 508.21,99.07 C508.008357,99.2380636 507.752407,99.3269352 507.49,99.32 C507.233212,99.3297018 506.982545,99.2401778 506.79,99.07 C506.620043,98.9283154 506.51826,98.7211143 506.51,98.5 L506.51,98.45 Z M520,107.77 C519.889513,107.769796 519.78031,107.793684 519.68,107.84 L519.34,108 C519.045894,108.150556 518.741854,108.280858 518.43,108.39 C517.9681,108.537171 517.484553,108.6048 517,108.59 C516.320788,108.597824 515.644973,108.493073 515,108.28 C514.423662,108.091127 513.887768,107.796047 513.42,107.41 C513.000451,107.05039 512.659962,106.607754 512.42,106.11 C512.172488,105.609642 512.045762,105.058214 512.05,104.5 C512.05,103.966 512.162,103.438 512.38,102.95 C512.6,102.457 512.92,102.014 513.32,101.65 C513.757383,101.256212 514.266712,100.950615 514.82,100.75 C515.460862,100.517565 516.138332,100.402396 516.82,100.41 C517.245745,100.397885 517.670795,100.451859 518.08,100.57 C518.4,100.68 518.68,100.78 518.9,100.88 C519.02,100.94 519.143,100.99 519.27,101.03 C519.39,101.069 519.514,101.09 519.64,101.09 L519.64,102.52 L519.43,102.52 C519.358783,102.281184 519.228021,102.064394 519.05,101.89 C518.864033,101.706203 518.651698,101.551164 518.42,101.43 C518.17356,101.302507 517.911261,101.208348 517.64,101.15 C517.370822,101.089855 517.095816,101.059672 516.82,101.06 C516.303735,101.048884 515.790423,101.140668 515.31,101.33 C514.907081,101.49286 514.542629,101.738099 514.24,102.05 C513.964252,102.337078 513.749892,102.677333 513.61,103.05 C513.47,103.424 513.4,103.82 513.4,104.22 C513.39718,105.168459 513.746384,106.084229 514.38,106.79 C514.702636,107.147385 515.093683,107.43642 515.53,107.64 C516.006,107.86 516.526,107.97 517.05,107.96 C517.415442,107.963758 517.779414,107.913206 518.13,107.81 C518.429097,107.72116 518.712504,107.586204 518.97,107.41 C519.18549,107.262507 519.374772,107.079986 519.53,106.87 C519.655503,106.705169 519.741077,106.513483 519.78,106.31 L520,106.31 L520,107.77 Z M522.5,108.45 L522.5,108.26 C522.606985,108.260687 522.710384,108.221467 522.79,108.15 C522.87409,108.075727 522.945081,107.987833 523,107.89 C523.058437,107.786566 523.102191,107.6755 523.13,107.56 C523.142386,107.450349 523.142386,107.339651 523.13,107.23 L523.13,102 C523.129085,101.791817 523.091861,101.585389 523.02,101.39 C522.95,101.2 522.75,101.09 522.41,101.08 L522.41,100.91 L524.51,100.31 L524.51,107.23 C524.497083,107.339621 524.497083,107.450379 524.51,107.56 C524.537,107.676 524.581,107.787 524.64,107.89 C524.694919,107.987833 524.76591,108.075727 524.85,108.15 C524.929616,108.221467 525.033015,108.260687 525.14,108.26 L525.14,108.45 L522.5,108.45 Z M522.61,98.45 C522.605993,98.2061336 522.708179,97.9725666 522.89,97.81 C523.081008,97.6361983 523.331848,97.5430293 523.59,97.55 C523.854985,97.5377395 524.113985,97.631267 524.31,97.81 C524.496651,97.9698777 524.602853,98.2042532 524.6,98.45 C524.605551,98.6906334 524.498258,98.9200189 524.31,99.07 C524.108357,99.2380636 523.852407,99.3269352 523.59,99.32 C523.333212,99.3297018 523.082545,99.2401778 522.89,99.07 C522.716305,98.9301845 522.610751,98.7227169 522.6,98.5 L522.61,98.45 Z M536.76,107.23 C536.747083,107.339621 536.747083,107.450379 536.76,107.56 C536.788,107.677 536.835,107.789 536.9,107.89 C536.96,107.984 537.03,108.072 537.11,108.15 C537.184867,108.222637 537.285712,108.262254 537.39,108.26 L537.39,108.45 L534.68,108.45 L534.68,108.26 C534.780634,108.258606 534.877043,108.219328 534.95,108.15 C535.034943,108.073865 535.108975,107.986373 535.17,107.89 C535.234724,107.788567 535.282042,107.677031 535.31,107.56 C535.322917,107.450379 535.322917,107.339621 535.31,107.23 L535.31,103.72 C535.318999,103.313378 535.247635,102.90898 535.1,102.53 C534.972225,102.209558 534.777952,101.919853 534.53,101.68 C534.298559,101.457718 534.022435,101.287271 533.72,101.18 C533.42485,101.074031 533.113597,101.0199 532.8,101.02 C532.488898,101.021338 532.180603,101.078931 531.89,101.19 C531.602446,101.294991 531.332656,101.443376 531.09,101.63 C530.86222,101.806424 530.66898,102.023395 530.52,102.27 C530.378113,102.498255 530.301984,102.761246 530.3,103.03 L530.3,107.21 C530.287614,107.319651 530.287614,107.430349 530.3,107.54 C530.328,107.657 530.375,107.769 530.44,107.87 C530.5,107.965 530.57,108.052 530.65,108.13 C530.724867,108.202637 530.825712,108.242254 530.93,108.24 L530.93,108.43 L528.19,108.43 L528.19,108.24 C528.290634,108.238606 528.387043,108.199328 528.46,108.13 C528.544943,108.053865 528.618975,107.966373 528.68,107.87 C528.744724,107.768567 528.792042,107.657031 528.82,107.54 C528.832825,107.430374 528.832825,107.319626 528.82,107.21 L528.82,102 C528.818681,101.791854 528.781469,101.585496 528.71,101.39 C528.637,101.197 528.433,101.093 528.1,101.08 L528.1,100.91 L530.2,100.31 L530.2,101.31 C530.319175,101.191658 530.446124,101.081413 530.58,100.98 C530.754776,100.84815 530.94239,100.734242 531.14,100.64 C531.383118,100.525936 531.63796,100.438753 531.9,100.38 C532.228474,100.308928 532.563956,100.27538 532.9,100.28 C533.474566,100.264823 534.046198,100.366901 534.58,100.58 C535.01,100.757 535.399,101.023 535.72,101.36 C536.004723,101.664984 536.222699,102.026006 536.36,102.42 C536.489,102.78 536.557,103.158 536.56,103.54 L536.76,107.23 Z M541.47,104.64 C541.526,105.073 541.647,105.494 541.83,105.89 C542.014,106.263 542.26,106.601 542.56,106.89 C542.874952,107.203476 543.248791,107.451569 543.66,107.62 C544.14,107.81 544.654,107.901 545.17,107.89 C545.840442,107.880069 546.50006,107.719437 547.1,107.42 C547.388992,107.272458 547.655088,107.083833 547.89,106.86 C548.10941,106.65528 548.271441,106.396719 548.36,106.11 L548.55,106.11 L548.55,107.52 C548.451985,107.526135 548.356461,107.553427 548.27,107.6 L547.9,107.79 C547.532282,107.977733 547.151254,108.138166 546.76,108.27 C546.148221,108.457556 545.509504,108.542042 544.87,108.52 C544.261718,108.524751 543.655788,108.443961 543.07,108.28 C542.526269,108.129185 542.01689,107.874496 541.57,107.53 C541.142867,107.177652 540.800997,106.733222 540.57,106.23 C540.296107,105.638466 540.162634,104.991635 540.18,104.34 C540.183176,103.858377 540.271189,103.38108 540.44,102.93 C540.617,102.45 540.89,102.012 541.24,101.64 C541.629715,101.236683 542.099889,100.919827 542.62,100.71 C543.256139,100.458355 543.93604,100.335973 544.62,100.35 C545.248253,100.336708 545.873122,100.445381 546.46,100.67 C546.955,100.865 547.4,101.17 547.76,101.56 C548.11,101.946 548.372,102.403 548.53,102.9 C548.702536,103.44992 548.786914,104.02369 548.78,104.6 L541.47,104.64 Z M544.52,101.02 C544.082346,101.008318 543.647853,101.09727 543.25,101.28 C542.56641,101.615307 542.03181,102.192674 541.75,102.9 C541.613625,103.239873 541.522836,103.596301 541.48,103.96 L547.48,103.96 C547.464817,103.593807 547.390525,103.232478 547.26,102.89 C547.130162,102.546126 546.94058,102.2279 546.7,101.95 C546.448367,101.663837 546.137977,101.435308 545.79,101.28 C545.392232,101.094928 544.958714,100.999349 544.52,101 L544.52,101.02 Z" id="Shape" fill="#5A0F10" fill-rule="nonzero"></path>
            <g id="b-link" transform="translate(0.000000, 37.000000)" fill="#000000" fill-rule="nonzero">
                <circle id="b" cx="38.78" cy="39.25" r="38.58"></circle>
            </g>
            <g id="b-link" transform="translate(0.000000, 37.000000)" fill="#7F8337">
                <circle id="b" cx="38.78" cy="39.25" r="38.58"></circle>
            </g>
            <g id="Oval" fill-rule="nonzero">
                <use fill="black" fill-opacity="1" filter="url(#filter-2)" xlink:href="#path-1"></use>
                <use fill="#461516" fill-rule="evenodd" xlink:href="#path-1"></use>
            </g>
            <path d="M69.53,2.83 C69.7008027,7.26985127 68.6639834,11.672877 66.53,15.57 C63.99,19.98 61.67,20.33 57.94,26.74 C56.3693021,29.5777564 54.9538843,32.4987247 53.7,35.49 C52.54,38.1 51.2,40.72 51.15,43.65 C51.15,44.84 51.15,46.05 50.76,46.14 C50.37,46.23 49.07,44.58 49.06,42.8 C49.06,41.72 49.93,40.8 50.97,38.54 C51.61,37.17 52.77,35.97 53.09,34.47 C53.2447259,33.6389739 53.1862371,32.7822857 52.92,31.98 C52.09,28.98 52.98,24.35 54.87,21.3 C56.0040091,19.5116118 57.5289411,18.0037754 59.33,16.89 C61.25,15.67 63.44,15 65.16,13.48 C69.51,9.62 69.54,3.9 69.53,2.83 Z" id="Shape" fill="url(#linearGradient-3)" fill-rule="nonzero"></path>
            <path d="M42.59,9.63 C42.4050973,12.3844565 42.7063581,15.1499627 43.48,17.8 C44.166763,19.8171298 45.2062297,21.6962959 46.55,23.35 C47.9728117,25.4595729 48.9369347,27.8443296 49.38,30.35 C50.02,33.53 50.12,36.78 50.5,40 L50.38,30.91 C50.2887039,29.7278916 50.3424368,28.5390526 50.54,27.37 C51.3540002,23.8069549 51.0287012,20.0782597 49.61,16.71 C48.2574151,13.5418587 45.7465154,11.0094983 42.59,9.63 Z" id="Shape" fill="url(#linearGradient-4)" fill-rule="nonzero"></path>
            <path d="M48.07,31.82 C46.1619457,29.7277693 43.7165674,28.1989756 41,27.4 C38.6205328,26.6668915 36.199598,26.0758495 33.75,25.63 C23.75,22.45 15.38,16.32 10.75,6.76 C9.76718448,4.81886527 8.5696953,2.99411987 7.18,1.32 C7.18,1.32 11.07,-0.53 15.84,4.11 C17.95,6.17 21.04,7.05 23.84,7.89 C27.2604063,8.77912217 30.4876464,10.2910435 33.36,12.35 C35.7177313,14.1035181 37.8712098,16.1161149 39.78,18.35 C41.72,20.63 42.44,23.58 44.42,25.8 C46.17,27.8 48.48,29.12 50.23,31.07 C52.35,33.44 52.87,36.6 52.65,39.71 C52.65,40.11 52.53,42.71 51.88,42.71 C51.61,42.71 51.27,41.59 50.88,40.33 C50,37.53 50,34.24 48.07,31.82 Z" id="Shape" fill="url(#linearGradient-5)" fill-rule="nonzero"></path>
            <path d="M27.61,110.48 C27.05,109.17 26.76,108.16 26.23,106.79 C25.8698857,105.856345 25.5364174,104.912629 25.23,103.96 C21.86,93.55 26.81,83.85 28.41,80.96 C26.503776,81.8877967 24.8294853,83.2306461 23.51,84.89 C20.18,89.16 20.66,95.14 20.64,94.7 C20.16,85.01 22.36,74.58 30.72,68.7 C37.4,63.96 50.87,63.1 51.92,52.78 C52.1189524,49.1115223 50.1020755,45.6804681 46.8,44.07 C45.58,43.57 44.14,43.5 42.87,43.07 C37.64,41.28 34.68,37.85 33.36,32.57 C33.36,32.57 32.26,28.16 29.49,27.21 C29.49,27.21 46.12,25.6 52.85,41.57 C51.74,38.93 56.75,36.7 58.34,36.16 C56.95,36.63 55.62,40.47 55.21,41.72 C54.4006147,43.7578483 54.2331398,45.9943362 54.73,48.13 C55.8,51.76 56.13,54.01 54.21,57.43 C53.0449767,59.6711597 51.5100918,61.6996421 49.67,63.43 C50.2672756,63.156017 50.9001549,62.9674997 51.55,62.87 C52.24,62.64 52.92,62.38 53.55,62.09 C57.46,60.33 60.05,56.97 61.99,53.46 C60.5,56.17 60.68,59.86 58.91,62.76 C57.1318667,65.7135999 54.588988,68.1320987 51.55,69.76 C44.78,73.49 37.19,74.27 32.55,81.08 C25.25,91.78 28.74,106.48 41.61,110.55 C42.9668389,110.997054 44.3582153,111.33152 45.77,111.55 C48.0100376,111.901638 50.2873403,111.948731 52.54,111.69 C52.54,111.88 49.08,113.11 45.17,113.75 C42.914673,114.104089 40.6324489,114.258022 38.35,114.21 C37.88,114.21 36.53,114.16 34.79,113.96 L33.79,113.83 C33.09,113.73 32.56,113.63 32.28,113.58 C31.1185919,113.456893 29.976706,113.191572 28.88,112.79 C28.2969974,112.119225 27.8640036,111.331653 27.61,110.48 Z" id="Shape" fill="url(#linearGradient-6)" fill-rule="nonzero"></path>
        </g>
    </g>
</svg>