<svg xmlns="http://www.w3.org/2000/svg" xmlns:xlink="http://www.w3.org/1999/xlink" width="564" height="133"><defs><circle id="b" cx="38.78" cy="76.25" r="38.58"/><filter id="a" width="150.5%" height="150.5%" x="-25.3%" y="-25.3%" filterUnits="objectBoundingBox"><feMorphology in="SourceAlpha" operator="dilate" radius="1.5" result="shadowSpreadOuter1"/><feOffset in="shadowSpreadOuter1" result="shadowOffsetOuter1"/><feGaussianBlur in="shadowOffsetOuter1" result="shadowBlurOuter1" stdDeviation="5"/><feColorMatrix in="shadowBlurOuter1" values="0 0 0 0 0.498039216 0 0 0 0 0.51372549 0 0 0 0 0.215686275 0 0 0 1 0"/></filter><linearGradient id="c" x1="-.195%" x2="99.911%" y1="50.007%" y2="50.007%"><stop offset="37%" stop-color="#888A31"/><stop offset="47%" stop-color="#8E903A"/><stop offset="64%" stop-color="#9D9F53"/><stop offset="86%" stop-color="#B6B87B"/><stop offset="100%" stop-color="#C8CA98"/></linearGradient><linearGradient id="d" x1=".034%" x2="100.02%" y1="49.984%" y2="49.984%"><stop offset="37%" stop-color="#888A31"/><stop offset="47%" stop-color="#8E903A"/><stop offset="64%" stop-color="#9D9F53"/><stop offset="86%" stop-color="#B6B87B"/><stop offset="100%" stop-color="#C8CA98"/></linearGradient><linearGradient id="e" x1=".022%" x2="99.92%" y1="50.089%" y2="50.089%"><stop offset="37%" stop-color="#888A31"/><stop offset="47%" stop-color="#8E903A"/><stop offset="64%" stop-color="#9D9F53"/><stop offset="86%" stop-color="#B6B87B"/><stop offset="100%" stop-color="#C8CA98"/></linearGradient><linearGradient id="f" x1=".005%" x2="100.024%" y1="49.975%" y2="49.975%"><stop offset="37%" stop-color="#888A31"/><stop offset="47%" stop-color="#8E903A"/><stop offset="64%" stop-color="#9D9F53"/><stop offset="86%" stop-color="#B6B87B"/><stop offset="100%" stop-color="#C8CA98"/></linearGradient></defs><g fill="none" fill-rule="nonzero" transform="translate(8 6)"><path fill="#888A35" d="M130.08 49.32a2.55 2.55 0 0 0-2 .91 4.86 4.86 0 0 0-1.1 2l-10.56 32L107.4 58l-9.05 26.33-10.62-32a6.06 6.06 0 0 0-1-2 2.07 2.07 0 0 0-1.65-1v-.53h8.24v.53a1.59 1.59 0 0 0-1.25.56 2.06 2.06 0 0 0-.49 1.42c.01.234.051.466.12.69l7.54 22.64 9.23-26.17 8.88 26.12L125 52a2.44 2.44 0 0 1 .09-.45 2.45 2.45 0 0 0 .09-.56 1.61 1.61 0 0 0-.46-1.2 1.35 1.35 0 0 0-.93-.45v-.53h6.32l-.03.51zM135.83 84v-.53a1.16 1.16 0 0 0 .81-.32c.234-.216.43-.47.58-.75a3.67 3.67 0 0 0 .35-.93 4.22 4.22 0 0 0 .12-.93V65.76a5.22 5.22 0 0 0-.29-1.74c-.193-.553-.753-.847-1.68-.88v-.48l5.8-1.71v19.6c.005.314.045.625.12.93.074.325.191.637.35.93.15.28.346.534.58.75.218.208.509.323.81.32V84h-7.55zm.29-28.2a2.42 2.42 0 0 1 .78-1.82 2.71 2.71 0 0 1 1.94-.75 2.81 2.81 0 0 1 2 .75c.523.46.82 1.124.81 1.82a2.22 2.22 0 0 1-.81 1.76 2.93 2.93 0 0 1-2 .69 2.82 2.82 0 0 1-1.94-.69 2.25 2.25 0 0 1-.78-1.73v-.03zm33.77 22.14a4.65 4.65 0 0 1-.75 2.56 7.16 7.16 0 0 1-2.06 2.06 10.81 10.81 0 0 1-3 1.39 13.44 13.44 0 0 1-3.77.51 11.3 11.3 0 0 1-4.06-.61 19.5 19.5 0 0 1-2.67-1.25c-.5-.287-.963-.527-1.39-.72a3.3 3.3 0 0 0-1.39-.29v-4.06h.58a3.72 3.72 0 0 0 1 1.63 10.53 10.53 0 0 0 2 1.63A13.2 13.2 0 0 0 157 82a8.48 8.48 0 0 0 2.87.51c.722 0 1.442-.071 2.15-.21a7.07 7.07 0 0 0 2-.69 5.09 5.09 0 0 0 1.51-1.2 2.6 2.6 0 0 0 .61-1.74 2.63 2.63 0 0 0-.64-1.76 6 6 0 0 0-1.63-1.31 12.84 12.84 0 0 0-2.26-1 65.828 65.828 0 0 0-2.55-.8 35.952 35.952 0 0 1-3-1 15.16 15.16 0 0 1-2.76-1.26 6.44 6.44 0 0 1-2-1.76 4.12 4.12 0 0 1-.75-2.48A5.78 5.78 0 0 1 151 65a4.83 4.83 0 0 1 1.62-1.95 9.17 9.17 0 0 1 2.93-1.34 16.21 16.21 0 0 1 4.35-.51 13.78 13.78 0 0 1 3.51.35 14.28 14.28 0 0 1 2.06.72 5 5 0 0 0 1 .4c.38.092.77.135 1.16.13v3.74h-.46a6.52 6.52 0 0 0-3.19-2.67 11.22 11.22 0 0 0-4.41-.91 8 8 0 0 0-2.5.35 5.9 5.9 0 0 0-1.71.85c-.418.3-.76.694-1 1.15a2.85 2.85 0 0 0-.32 1.28 2.29 2.29 0 0 0 .55 1.55c.424.47.938.85 1.51 1.12.698.346 1.416.65 2.15.91.793.287 1.633.553 2.52.8 1.08.32 2.163.653 3.25 1a14.1 14.1 0 0 1 2.9 1.36 7.61 7.61 0 0 1 2.09 1.9 4.32 4.32 0 0 1 .88 2.71zm24.9 6.06v-2.35a10.14 10.14 0 0 1-2.64 1.87 9 9 0 0 1-4.15.85 13.47 13.47 0 0 1-5.37-1 11.25 11.25 0 0 1-3.8-2.59 10.25 10.25 0 0 1-2.23-3.66 12.56 12.56 0 0 1 0-8.49 11.06 11.06 0 0 1 2.26-3.77 11.25 11.25 0 0 1 3.77-2.67 12.66 12.66 0 0 1 5.22-1 11.75 11.75 0 0 1 3.89.67 8.11 8.11 0 0 1 3 1.74V53.21a5 5 0 0 0-.29-1.71c-.193-.533-.753-.817-1.68-.85v-.53l5.8-1.66v32.1c.005.314.045.625.12.93.074.325.191.637.35.93.15.28.346.534.58.75.218.208.509.323.81.32V84h-5.64zm-6.38-1.39a6.48 6.48 0 0 0 2.38-.45 6.67 6.67 0 0 0 2-1.23 6.45 6.45 0 0 0 1.42-1.82c.368-.7.557-1.48.55-2.27v-7.32a5.28 5.28 0 0 0-.7-2.7 7.48 7.48 0 0 0-1.74-2.06 7.84 7.84 0 0 0-2.29-1.31 7.11 7.11 0 0 0-5.83.37 8.41 8.41 0 0 0-2.55 2.14 9.16 9.16 0 0 0-1.57 2.94 10.55 10.55 0 0 0-.52 3.23c.002 1.26.198 2.51.58 3.71a10.58 10.58 0 0 0 1.71 3.31 9.63 9.63 0 0 0 2.76 2.43 7.64 7.64 0 0 0 3.79 1.06l.01-.03zm31.33 1.79a14.62 14.62 0 0 1-5.22-.88 12.17 12.17 0 0 1-4-2.4 10.49 10.49 0 0 1-2.55-3.6 12 12 0 0 1 .09-9.32 11 11 0 0 1 2.73-3.71 12.45 12.45 0 0 1 4.12-2.4 16.1 16.1 0 0 1 10.27 0 12.07 12.07 0 0 1 4 2.32 10.47 10.47 0 0 1 2.61 3.55c.63 1.42.946 2.957.93 4.51a12.2 12.2 0 0 1-.84 4.46 11 11 0 0 1-2.5 3.82 12.54 12.54 0 0 1-4.06 2.67 14.35 14.35 0 0 1-5.58.98zm-.38-21.4a8.85 8.85 0 0 0-3.67.93 8.4 8.4 0 0 0-2.66 2.14 9.24 9.24 0 0 0-1.62 3 10.61 10.61 0 0 0-.55 3.36 11.17 11.17 0 0 0 .66 3.82 10.36 10.36 0 0 0 1.91 3.28 9.31 9.31 0 0 0 3 2.3 8.65 8.65 0 0 0 3.88.85 8.11 8.11 0 0 0 3.79-.85 8.5 8.5 0 0 0 2.75-2.22 9.43 9.43 0 0 0 1.65-3.07 11.1 11.1 0 0 0 .55-3.42 11.5 11.5 0 0 0-.58-3.55 9.82 9.82 0 0 0-1.79-3.26 9.22 9.22 0 0 0-3-2.38 9.43 9.43 0 0 0-4.32-.93zm57.13 17.56c.005.313.046.625.12.93.073.325.191.638.35.93a3.2 3.2 0 0 0 .55.75c.205.21.487.326.78.32V84h-7.54v-.53a1.16 1.16 0 0 0 .81-.32 3.46 3.46 0 0 0 .61-.75 3.13 3.13 0 0 0 .38-.93 4.27 4.27 0 0 0 .12-.93V69a7.34 7.34 0 0 0-.38-2.35 5.45 5.45 0 0 0-1.13-1.95 5.72 5.72 0 0 0-1.86-1.34 5.91 5.91 0 0 0-2.5-.51 5.22 5.22 0 0 0-2.7.67 6.3 6.3 0 0 0-1.86 1.63 7.23 7.23 0 0 0-1.07 1.95 5.14 5.14 0 0 0-.35 1.63v11.8c.005.314.045.625.12.93.075.329.203.643.38.93a4 4 0 0 0 .58.75c.205.21.487.326.78.32V84h-7.49v-.53a1.1 1.1 0 0 0 .75-.32 3.44 3.44 0 0 0 .61-.75 3.13 3.13 0 0 0 .38-.93 4.22 4.22 0 0 0 .12-.93V68.7a5.73 5.73 0 0 0-.49-2.38 5.42 5.42 0 0 0-1.34-1.84 6.47 6.47 0 0 0-1.91-1.17 5.85 5.85 0 0 0-2.18-.43 6.13 6.13 0 0 0-2.64.53 5.73 5.73 0 0 0-3 3.07 4.76 4.76 0 0 0-.38 1.79v12.28c.005.314.045.625.12.93.075.329.203.643.38.93.162.272.357.524.58.75.205.21.487.326.78.32V84h-7.49v-.53a1.1 1.1 0 0 0 .75-.32 3.46 3.46 0 0 0 .61-.75 3.11 3.11 0 0 0 .38-.93 4.27 4.27 0 0 0 .12-.93V66.3a9.24 9.24 0 0 0-.06-1 4.35 4.35 0 0 0-.23-1 1.77 1.77 0 0 0-.58-.8 1.73 1.73 0 0 0-1.1-.32v-.48l5.74-1.76v2.72a10.19 10.19 0 0 1 2.41-1.76 8.28 8.28 0 0 1 4-.85 9.13 9.13 0 0 1 2.9.43 8.75 8.75 0 0 1 2.23 1.09 8.09 8.09 0 0 1 1.65 1.52 12.9 12.9 0 0 1 1.16 1.66 14.79 14.79 0 0 1 1.1-1.63 8.42 8.42 0 0 1 1.54-1.52 7.42 7.42 0 0 1 2.15-1.12 9 9 0 0 1 2.93-.43 10.28 10.28 0 0 1 5.11 1.07 7.46 7.46 0 0 1 2.76 2.56 8.31 8.31 0 0 1 1.13 3.12c.14.91.216 1.83.23 2.75l.08 10.01z"/><path fill="#5A0F10" d="M333.3 49.32a2.55 2.55 0 0 0-2 .91 4.86 4.86 0 0 0-1.1 2l-10.56 32L310.61 58l-9.05 26.33-10.62-32a6.06 6.06 0 0 0-1-2 2.07 2.07 0 0 0-1.65-1v-.53h8.24v.53a1.59 1.59 0 0 0-1.25.56 2.06 2.06 0 0 0-.49 1.42c.01.234.051.466.12.69l7.54 22.64 9.23-26.17 8.88 26.12L328.19 52a2.44 2.44 0 0 1 .09-.45 2.45 2.45 0 0 0 .09-.56 1.61 1.61 0 0 0-.46-1.2 1.35 1.35 0 0 0-.93-.45v-.53h6.32v.51zM347.46 84v-2.72l-.29.27a10.7 10.7 0 0 1-3.34 2.08 14.32 14.32 0 0 1-8 .32 6.54 6.54 0 0 1-2.38-1.2A4.76 4.76 0 0 1 332 81a5.36 5.36 0 0 1-.43-2.14 5.09 5.09 0 0 1 1.07-3.2 9.33 9.33 0 0 1 3.1-2.46 28.19 28.19 0 0 1 5-1.95c1.953-.587 4.187-1.167 6.7-1.74a7 7 0 0 0-.93-3.36 6.41 6.41 0 0 0-4.24-3 11.05 11.05 0 0 0-2.09-.24 7.46 7.46 0 0 0-2.64.43 7.3 7.3 0 0 0-2 1.09 7.9 7.9 0 0 0-1.42 1.44 9.92 9.92 0 0 0-.93 1.47h-.52v-3.9c.304-.035.6-.126.87-.27a8.4 8.4 0 0 1 1-.43 86.16 86.16 0 0 0 2.38-.93 11.61 11.61 0 0 1 4.24-.61 14.85 14.85 0 0 1 5.16.75 7.48 7.48 0 0 1 3 2 6.25 6.25 0 0 1 1.42 2.8 14.9 14.9 0 0 1 .35 3.23v10.57a4 4 0 0 0 .52 2 1.56 1.56 0 0 0 1.39.93V84h-5.54zm0-5.07v-7.64l-.58.11c-.927.213-2.057.497-3.39.85a22.16 22.16 0 0 0-3.8 1.39 12.28 12.28 0 0 0-3.08 2 3.6 3.6 0 0 0-1.28 2.72 3.39 3.39 0 0 0 1.51 2.83 6.45 6.45 0 0 0 3.95 1.12 7 7 0 0 0 3.37-.77 11.11 11.11 0 0 0 2.67-2l.63-.61zm20.25 12.74a5.84 5.84 0 0 1-2.06 3 4.72 4.72 0 0 1-2.58.8 5.06 5.06 0 0 1-1.54-.21 5.62 5.62 0 0 1-1.16-.51 4.81 4.81 0 0 1-.78-.56 1.31 1.31 0 0 1-.35-.43l1.92-4.33c.136.501.33.985.58 1.44.2.384.476.724.81 1a2 2 0 0 0 1.28.43c.927 0 1.66-.623 2.2-1.87l2.84-6.57-9.34-19.44a7.2 7.2 0 0 0-1-1.47 2.22 2.22 0 0 0-1.83-.83v-.53h7.66v.53c-.153 0-.347.123-.58.37a1.35 1.35 0 0 0-.35 1c-.005.3.075.594.23.85l7.14 15.11L377.69 64a1.66 1.66 0 0 0 .17-.69 1.07 1.07 0 0 0-.38-.85 1.2 1.2 0 0 0-.78-.32v-.53h5.63v.53a2.1 2.1 0 0 0-1.6.72 6 6 0 0 0-1.07 1.63l-11.95 27.18zm36.84-13.73a4.65 4.65 0 0 1-.75 2.56 7.16 7.16 0 0 1-2.06 2.06 10.81 10.81 0 0 1-3 1.39 13.44 13.44 0 0 1-3.77.51 11.3 11.3 0 0 1-4.06-.61 19.5 19.5 0 0 1-2.67-1.25c-.5-.287-.963-.527-1.39-.72a3.3 3.3 0 0 0-1.39-.29v-4.06h.54a3.72 3.72 0 0 0 1 1.63 10.53 10.53 0 0 0 2 1.63 13.2 13.2 0 0 0 2.61 1.25 8.48 8.48 0 0 0 2.87.51c.722 0 1.442-.071 2.15-.21a7.07 7.07 0 0 0 2-.69 5.09 5.09 0 0 0 1.51-1.2 2.6 2.6 0 0 0 .61-1.74 2.63 2.63 0 0 0-.64-1.76 6 6 0 0 0-1.63-1.31 12.84 12.84 0 0 0-2.26-1 65.828 65.828 0 0 0-2.55-.8 35.952 35.952 0 0 1-3-1 15.16 15.16 0 0 1-2.76-1.26 6.44 6.44 0 0 1-2-1.76 4.12 4.12 0 0 1-.75-2.48 5.78 5.78 0 0 1 .49-2.35 4.83 4.83 0 0 1 1.62-1.95 9.17 9.17 0 0 1 2.93-1.34 16.21 16.21 0 0 1 4.35-.51 13.78 13.78 0 0 1 3.51.35 14.28 14.28 0 0 1 2.06.72 5 5 0 0 0 1 .4c.38.092.77.135 1.16.13v3.74h-.46a6.52 6.52 0 0 0-3.19-2.67 11.22 11.22 0 0 0-4.41-.91 8 8 0 0 0-2.5.35 5.9 5.9 0 0 0-1.71.85c-.418.3-.76.694-1 1.15a2.85 2.85 0 0 0-.32 1.28 2.29 2.29 0 0 0 .55 1.55c.424.47.938.85 1.51 1.12.698.346 1.416.65 2.15.91.793.287 1.633.553 2.52.8 1.08.32 2.163.653 3.25 1a14.1 14.1 0 0 1 2.9 1.36 7.61 7.61 0 0 1 2.09 1.9 4.32 4.32 0 0 1 .89 2.72zm-220.86 30.24h.15c.487 0 .73-.2.73-.6a1.34 1.34 0 0 0-.09-.46l-2.74-6.62h-5.32l-2.64 6.5a1.07 1.07 0 0 0-.09.41.74.74 0 0 0 .21.56.65.65 0 0 0 .46.2h.15v.27h-3.37v-.27h.15a1.07 1.07 0 0 0 .77-.42 3.52 3.52 0 0 0 .62-1l7-16.61 6.81 16.45c.15.378.348.734.59 1.06.222.333.6.53 1 .52h.15v.27h-4.5l-.04-.26zm-7-8.6h4.68l-2.34-5.69-2.34 5.69zm25.17-8.39a9.72 9.72 0 0 0-3.9.72 8.27 8.27 0 0 0-2.75 1.88 7.54 7.54 0 0 0-1.63 2.6 8.22 8.22 0 0 0-.53 2.86 7.52 7.52 0 0 0 .7 3.14 8.81 8.81 0 0 0 1.93 2.72 9.76 9.76 0 0 0 2.87 1.91 8.74 8.74 0 0 0 4.85.61 5.88 5.88 0 0 0 1.47-.42 4.78 4.78 0 0 0 1.35-.88 3.69 3.69 0 0 0 1-1.5h.3v3a4.51 4.51 0 0 0-1 .11l-1.11.24c-.527.127-1.11.243-1.75.35a12 12 0 0 1-2 .16 12.26 12.26 0 0 1-4.65-.82 10.17 10.17 0 0 1-3.34-2.12 8.56 8.56 0 0 1-2-3 8.9 8.9 0 0 1-.66-3.34 9 9 0 0 1 .66-3.35 8.48 8.48 0 0 1 2-3 10.28 10.28 0 0 1 3.43-2.14 13.18 13.18 0 0 1 4.86-.82 9.13 9.13 0 0 1 1.81.16c.54.107 1.02.217 1.44.33a7.7 7.7 0 0 0 .84.2 4.2 4.2 0 0 0 .74.07v3h-.3a3.08 3.08 0 0 0-.67-1.4 3.36 3.36 0 0 0-1.14-.86 5.48 5.48 0 0 0-1.4-.42 8.94 8.94 0 0 0-1.42.01zm9.45-.71h4.32v.27h-.15a.65.65 0 0 0-.43.15 1.5 1.5 0 0 0-.32.37 1.57 1.57 0 0 0-.2.46 1.81 1.81 0 0 0-.06.44v10.75a7.47 7.47 0 0 0 .24 2 3.68 3.68 0 0 0 2.34 2.57 6.37 6.37 0 0 0 2.31.37 5.69 5.69 0 0 0 2.43-.44 3.5 3.5 0 0 0 1.4-1.13 3.87 3.87 0 0 0 .64-1.57A10 10 0 0 0 224 103V92.17a1.86 1.86 0 0 0-.06-.44 1.59 1.59 0 0 0-.2-.46 1.5 1.5 0 0 0-.32-.37.61.61 0 0 0-.4-.15h-.15v-.27h3.31v.27H226a.59.59 0 0 0-.41.15 1.7 1.7 0 0 0-.3.37 1.57 1.57 0 0 0-.2.46 1.82 1.82 0 0 0-.06.44v10.73a7.41 7.41 0 0 1-.49 2.9 4.36 4.36 0 0 1-1.34 1.78 4.91 4.91 0 0 1-2 .9 11.45 11.45 0 0 1-2.42.24 11.75 11.75 0 0 1-2.54-.26 5.06 5.06 0 0 1-2-.91 4.37 4.37 0 0 1-1.34-1.78 7.23 7.23 0 0 1-.49-2.85V92.17a1.82 1.82 0 0 0-.06-.44 1.59 1.59 0 0 0-.2-.46 1.5 1.5 0 0 0-.32-.37.61.61 0 0 0-.39-.15h-.15l.02-.27zm18.91 0h4.32a9.31 9.31 0 0 1 5.12 1.16 3.71 3.71 0 0 1 1.75 3.28 3.55 3.55 0 0 1-.61 2 5.23 5.23 0 0 1-1.6 1.51 8.2 8.2 0 0 1-2.23.94 9.58 9.58 0 0 1-2.46.33h-1.16v6.94c.001.162.021.323.06.48.039.17.107.332.2.48.085.138.185.266.3.38a.56.56 0 0 0 .41.16h.15v.27h-4.26v-.27h.15a.58.58 0 0 0 .39-.16c.12-.11.222-.238.3-.38a2.13 2.13 0 0 0 .24-.96V92.17a2 2 0 0 0-.24-.87.88.88 0 0 0-.7-.54h-.15l.02-.28zm3.13 1v7.35h.92a7.33 7.33 0 0 0 2.18-.3 5.13 5.13 0 0 0 1.6-.79 3.48 3.48 0 0 0 1-1.12 2.68 2.68 0 0 0 .34-1.28 3.81 3.81 0 0 0-.29-1.48 3.13 3.13 0 0 0-.95-1.23 4.93 4.93 0 0 0-1.73-.84 9.49 9.49 0 0 0-2.63-.31h-.44zm11.82-1h4.32v.27h-.15a.65.65 0 0 0-.43.15 1.5 1.5 0 0 0-.32.37 1.57 1.57 0 0 0-.2.46 1.81 1.81 0 0 0-.06.44v10.75a7.47 7.47 0 0 0 .24 2 3.68 3.68 0 0 0 2.34 2.57 6.37 6.37 0 0 0 2.31.37 5.69 5.69 0 0 0 2.43-.44 3.5 3.5 0 0 0 1.4-1.13 3.87 3.87 0 0 0 .64-1.57 10 10 0 0 0 .15-1.72V92.17a1.86 1.86 0 0 0-.06-.44 1.59 1.59 0 0 0-.2-.46 1.5 1.5 0 0 0-.32-.37.61.61 0 0 0-.4-.15h-.15v-.27H260v.27h-.15a.59.59 0 0 0-.41.15 1.7 1.7 0 0 0-.3.37 1.57 1.57 0 0 0-.2.46 1.82 1.82 0 0 0-.06.44v10.73a7.41 7.41 0 0 1-.49 2.9 4.36 4.36 0 0 1-1.34 1.78 4.91 4.91 0 0 1-2 .9 11.45 11.45 0 0 1-2.42.24 11.75 11.75 0 0 1-2.54-.26 5.06 5.06 0 0 1-2-.91 4.37 4.37 0 0 1-1.34-1.78 7.23 7.23 0 0 1-.49-2.85V92.17a1.82 1.82 0 0 0-.06-.44 1.59 1.59 0 0 0-.2-.46 1.5 1.5 0 0 0-.32-.37.61.61 0 0 0-.39-.15h-.15l.03-.27zm22.12 17.7h.15v.27h-3.37v-.27h.15a.64.64 0 0 0 .41-.16 1.33 1.33 0 0 0 .32-.38 2.29 2.29 0 0 0 .2-.48 1.69 1.69 0 0 0 .08-.48V92.17a2.39 2.39 0 0 0 0-.44 1.52 1.52 0 0 0-.17-.46 1.12 1.12 0 0 0-.33-.37.88.88 0 0 0-.52-.15H264v-.27h3.07l11 15.57V92.17a1.48 1.48 0 0 0-.08-.44 1.9 1.9 0 0 0-.21-.46 1.5 1.5 0 0 0-.32-.37.65.65 0 0 0-.43-.15h-.15v-.27h3.4v.27h-.15a.65.65 0 0 0-.43.15 1.5 1.5 0 0 0-.32.37 1.59 1.59 0 0 0-.2.46 1.81 1.81 0 0 0-.06.44v16.28h-1.88l-11-15.63v13.86c.001.162.021.323.06.48.04.17.107.332.2.48.088.141.196.269.32.38a.62.62 0 0 0 .47.16zm24.77 0h.15v.27h-4.32v-.27h.11a.62.62 0 0 0 .43-.16 1.77 1.77 0 0 0 .32-.38c.093-.148.16-.31.2-.48a2.13 2.13 0 0 0 .06-.48V91.49h-3.53a1.82 1.82 0 0 0-.85.19 2 2 0 0 0-.61.48 2 2 0 0 0-.49 1.29h-.3v-3h13.64v3h-.3a2 2 0 0 0-.12-.67 2 2 0 0 0-1-1.1 1.81 1.81 0 0 0-.85-.19h-3.59v15.19c.001.162.021.323.06.48.039.17.107.332.2.48.085.138.185.266.3.38.128.13.31.19.49.16zm7.71-17.7h4.32v.27h-.15a.65.65 0 0 0-.43.15 1.5 1.5 0 0 0-.32.37 1.57 1.57 0 0 0-.2.46 1.81 1.81 0 0 0-.06.44v10.75a7.47 7.47 0 0 0 .24 2 3.68 3.68 0 0 0 2.34 2.57 6.37 6.37 0 0 0 2.31.37 5.69 5.69 0 0 0 2.43-.44 3.5 3.5 0 0 0 1.4-1.13 3.87 3.87 0 0 0 .64-1.57 10 10 0 0 0 .15-1.72V92.17a1.86 1.86 0 0 0-.06-.44 1.59 1.59 0 0 0-.2-.46 1.5 1.5 0 0 0-.32-.37.61.61 0 0 0-.4-.15h-.15v-.27h3.31v.27h-.15a.59.59 0 0 0-.41.15 1.7 1.7 0 0 0-.3.37 1.57 1.57 0 0 0-.2.46 1.82 1.82 0 0 0-.06.44v10.73a7.41 7.41 0 0 1-.49 2.9 4.36 4.36 0 0 1-1.34 1.78 4.91 4.91 0 0 1-2 .9 11.45 11.45 0 0 1-2.42.24 11.75 11.75 0 0 1-2.54-.26 5.06 5.06 0 0 1-2-.91 4.37 4.37 0 0 1-1.34-1.78 7.23 7.23 0 0 1-.49-2.85V92.17a1.82 1.82 0 0 0-.06-.44 1.59 1.59 0 0 0-.2-.46 1.5 1.5 0 0 0-.32-.37.61.61 0 0 0-.39-.15h-.15l.01-.27zm23.07 17.7h.16v.27h-4.3v-.27h.15a.58.58 0 0 0 .39-.16 1.77 1.77 0 0 0 .32-.38c.093-.148.16-.31.2-.48a2.08 2.08 0 0 0 .06-.48V92.17a1.82 1.82 0 0 0-.06-.44 1.59 1.59 0 0 0-.2-.46 1.5 1.5 0 0 0-.32-.37.61.61 0 0 0-.39-.15h-.15v-.27h5.3a8.7 8.7 0 0 1 4.69 1.06 3.48 3.48 0 0 1 1.66 3.13 4.07 4.07 0 0 1-.38 1.81 4.21 4.21 0 0 1-1 1.33 5.08 5.08 0 0 1-1.5.9 9.14 9.14 0 0 1-1.84.5l2.19 3c.527.727 1.063 1.44 1.61 2.14.547.7 1.083 1.42 1.61 2.16.14.18.3.37.47.57a5 5 0 0 0 .55.54c.185.157.39.288.61.39.203.098.425.149.65.15v.27H332a3.45 3.45 0 0 1-2-.53 5.28 5.28 0 0 1-1.29-1.24c-.913-1.2-1.82-2.417-2.72-3.65-.9-1.233-1.797-2.45-2.69-3.65l-.71-.07-.71-.1v7.46c.001.162.021.323.06.48.039.17.107.332.2.48.085.138.185.266.3.38a.57.57 0 0 0 .4.19zm-1-16.77v6.92h2.26a5.63 5.63 0 0 0 1.35-.18 4.14 4.14 0 0 0 1.34-.6 3.47 3.47 0 0 0 1-1.1 3.27 3.27 0 0 0 .41-1.72 3 3 0 0 0-.44-1.69 3.06 3.06 0 0 0-1.22-1 5.87 5.87 0 0 0-1.87-.52 19.58 19.58 0 0 0-2.4-.14l-.43.03zm14.46 16.77h.15a.65.65 0 0 0 .43-.15 1.5 1.5 0 0 0 .32-.37 2 2 0 0 0 .21-.46 1.58 1.58 0 0 0 .08-.46V92.17a1.51 1.51 0 0 0-.08-.44 2 2 0 0 0-.21-.46 1.5 1.5 0 0 0-.32-.37.65.65 0 0 0-.43-.15h-.15v-.27H348V93h-.3a1.75 1.75 0 0 0-.55-1.1 2.1 2.1 0 0 0-1.52-.48h-6.11v6.89h5a1.8 1.8 0 0 0 1.17-.38 1.13 1.13 0 0 0 .47-.9h.3v3.4h-.3a1 1 0 0 0-.46-.84 1.88 1.88 0 0 0-1.18-.35h-5v8.25h6.65a2 2 0 0 0 1-.24c.27-.154.51-.353.71-.59a2.28 2.28 0 0 0 .43-.73c.083-.214.13-.44.14-.67h.3v3.19H336.3v-.27zm28.33.27v-1l-.11.09a3.9 3.9 0 0 1-1.21.74 5.32 5.32 0 0 1-2.91.11 2.41 2.41 0 0 1-.86-.42 1.69 1.69 0 0 1-.49-.63 1.85 1.85 0 0 1-.16-.75 1.77 1.77 0 0 1 .39-1.13 3.38 3.38 0 0 1 1.13-.87 10.37 10.37 0 0 1 1.8-.69c.707-.207 1.517-.41 2.43-.61a2.42 2.42 0 0 0-.34-1.19 2.34 2.34 0 0 0-.69-.71 2.4 2.4 0 0 0-.84-.34 4.09 4.09 0 0 0-.77-.05 2.77 2.77 0 0 0-1 .15 2.83 2.83 0 0 0-1.23.9 3.37 3.37 0 0 0-.34.52h-.19v-1.38a.89.89 0 0 0 .32-.09l.36-.15.86-.33a4.32 4.32 0 0 1 1.54-.22 5.52 5.52 0 0 1 1.87.26c.418.14.796.38 1.1.7.258.282.437.627.52 1 .086.374.13.756.13 1.14v3.73a1.4 1.4 0 0 0 .19.71.57.57 0 0 0 .51.33v.19l-2.01-.01zm0-1.79V104h-.21l-1.23.3a8.2 8.2 0 0 0-1.38.49 4.47 4.47 0 0 0-1.11.72 1.26 1.26 0 0 0-.46 1c.001.405.208.782.55 1a2.39 2.39 0 0 0 1.43.4 2.61 2.61 0 0 0 1.22-.27 4 4 0 0 0 1-.71l.19-.27zm13.37.57a1.41 1.41 0 0 0 0 .33c.028.117.075.229.14.33.06.094.13.182.21.26a.39.39 0 0 0 .28.11v.19h-2.71v-.19a.4.4 0 0 0 .27-.11 1.24 1.24 0 0 0 .22-.26 1.08 1.08 0 0 0 .14-.33 1.41 1.41 0 0 0 0-.33v-3.51a3.09 3.09 0 0 0-.21-1.19 2.44 2.44 0 0 0-.57-.85 2.26 2.26 0 0 0-.81-.5 2.72 2.72 0 0 0-.92-.16 2.58 2.58 0 0 0-.91.17 3 3 0 0 0-.8.44 2.34 2.34 0 0 0-.57.64 1.46 1.46 0 0 0-.22.76v4.18a1.47 1.47 0 0 0 0 .33c.028.117.075.229.14.33.06.095.13.182.21.26a.39.39 0 0 0 .28.11v.19h-2.74v-.19a.4.4 0 0 0 .27-.11 1.24 1.24 0 0 0 .22-.26 1.08 1.08 0 0 0 .14-.33 1.42 1.42 0 0 0 0-.33V102a1.81 1.81 0 0 0-.11-.61c-.073-.193-.277-.297-.61-.31v-.17l2.1-.6v1a3.77 3.77 0 0 1 .56-.31 3.26 3.26 0 0 1 .56-.34 3.69 3.69 0 0 1 .76-.26 4.44 4.44 0 0 1 1-.1 4.23 4.23 0 0 1 1.68.3c.43.177.819.443 1.14.78a3 3 0 0 1 .64 1.06c.129.36.197.738.2 1.12l.02 3.67zm10.21 1.22v-.83a3.71 3.71 0 0 1-1 .66 3.34 3.34 0 0 1-1.5.3 5 5 0 0 1-1.95-.35 4.09 4.09 0 0 1-1.38-.91 3.62 3.62 0 0 1-.81-1.29 4.38 4.38 0 0 1 .01-3c.18-.494.46-.947.82-1.33a4.08 4.08 0 0 1 1.37-.94 4.7 4.7 0 0 1 1.89-.36c.48.002.956.083 1.41.24a3 3 0 0 1 1.09.61v-3.68a1.73 1.73 0 0 0-.11-.6c-.073-.187-.277-.287-.61-.3v-.19l2.1-.58v11.33a1.47 1.47 0 0 0 0 .33c.028.115.072.227.13.33a1 1 0 0 0 .21.26.43.43 0 0 0 .29.11v.19h-1.96zm-2.31-.45a2.4 2.4 0 0 0 .86-.16c.27-.098.52-.244.74-.43a2.27 2.27 0 0 0 .52-.64 1.65 1.65 0 0 0 .2-.8v-2.58a1.83 1.83 0 0 0-.25-1 2.67 2.67 0 0 0-.63-.73 2.86 2.86 0 0 0-.83-.46 2.64 2.64 0 0 0-2.11.13 3 3 0 0 0-.93.75 3.19 3.19 0 0 0-.57 1 3.61 3.61 0 0 0-.19 1.14c0 .445.072.887.21 1.31.135.424.345.82.62 1.17.275.348.615.64 1 .86.408.26.877.412 1.36.44zm21.92.26h.11a.42.42 0 0 0 .27-.1 1 1 0 0 0 .22-.26c.064-.106.11-.22.14-.34a1.47 1.47 0 0 0 0-.33v-5.13h-6.73v5.13a1.47 1.47 0 0 0 0 .33c.028.115.072.227.13.33.054.096.121.184.2.26a.39.39 0 0 0 .28.11h.11v.19h-2.95v-.19h.1a.42.42 0 0 0 .27-.1 1 1 0 0 0 .22-.26c.064-.106.11-.22.14-.34a1.47 1.47 0 0 0 0-.33v-10c.012-.1.012-.2 0-.3a1.31 1.31 0 0 0-.13-.32.88.88 0 0 0-.21-.25.45.45 0 0 0-.29-.1h-.1V96h2.95v.19h-.11a.45.45 0 0 0-.29.1.75.75 0 0 0-.2.25 1.65 1.65 0 0 0-.12.32c-.012.1-.012.2 0 .3v4.26h6.73v-4.26c.012-.1.012-.2 0-.3a1.31 1.31 0 0 0-.13-.32.89.89 0 0 0-.21-.25.45.45 0 0 0-.29-.1h-.11V96h2.95v.19h-.11a.45.45 0 0 0-.29.1.76.76 0 0 0-.2.25 1.58 1.58 0 0 0-.12.32c-.012.1-.012.2 0 .3v10c0 .112.017.223.05.33.034.115.081.226.14.33.054.096.121.184.2.26a.36.36 0 0 0 .26.11h.11v.19h-2.95l-.04-.12zm6.67-3.62c.056.433.177.854.36 1.25.184.373.43.711.73 1a3.37 3.37 0 0 0 1.1.73c.48.19.994.281 1.51.27a4.47 4.47 0 0 0 1.93-.47 3.36 3.36 0 0 0 .79-.56 1.72 1.72 0 0 0 .47-.75h.19v1.41a.68.68 0 0 0-.28.08l-.37.19a8.42 8.42 0 0 1-1.14.48 5.77 5.77 0 0 1-1.89.25 6.49 6.49 0 0 1-1.8-.24 4.37 4.37 0 0 1-1.5-.75 3.67 3.67 0 0 1-1-1.3 4.23 4.23 0 0 1-.39-1.89 4.1 4.1 0 0 1 .26-1.41c.177-.48.45-.918.8-1.29a4 4 0 0 1 1.38-.93 5.15 5.15 0 0 1 2-.36 4.86 4.86 0 0 1 1.84.32c.495.195.94.5 1.3.89.35.386.612.843.77 1.34a5.46 5.46 0 0 1 .25 1.7l-7.31.04zm3.05-3.62a2.86 2.86 0 0 0-1.27.26 3.07 3.07 0 0 0-1.5 1.62 4.15 4.15 0 0 0-.27 1.06h6a3.4 3.4 0 0 0-.22-1.07 3.12 3.12 0 0 0-.56-.94 2.65 2.65 0 0 0-.91-.67 3 3 0 0 0-1.27-.28v.02zm11.95.89a1.12 1.12 0 0 0-.53-.47 1.93 1.93 0 0 0-.63-.09 1.47 1.47 0 0 0-.49.09 3 3 0 0 0-.52.24c-.17.1-.33.21-.49.33-.16.12-.3.23-.41.33v4.9a1.3 1.3 0 0 0 0 .32 1.2 1.2 0 0 0 .14.33c.056.097.127.185.21.26a.41.41 0 0 0 .28.1v.19h-2.73v-.19a.42.42 0 0 0 .27-.1 1 1 0 0 0 .22-.26 1.24 1.24 0 0 0 .14-.33 1.35 1.35 0 0 0 0-.32V102a.91.91 0 0 0-.19-.53.87.87 0 0 0-.55-.34V101l2.13-.57v1.13c.127-.14.26-.277.4-.41a2.87 2.87 0 0 1 .47-.36 2.77 2.77 0 0 1 .58-.26c.24-.072.49-.106.74-.1.257.007.512.044.76.11a4.6 4.6 0 0 1 .76.24l-.56 1.13zm7.28-1.51a5.18 5.18 0 0 1 2 .34 4 4 0 0 1 1.38.9c.36.369.638.808.82 1.29.179.473.27.974.27 1.48a4.38 4.38 0 0 1-.27 1.52 3.91 3.91 0 0 1-.83 1.34 4.13 4.13 0 0 1-1.38 1 4.7 4.7 0 0 1-1.89.36 3.52 3.52 0 0 1-1.45-.29 3.08 3.08 0 0 1-1-.71v.87h-2.06v-.19a.4.4 0 0 0 .27-.11 1.24 1.24 0 0 0 .22-.26 1.08 1.08 0 0 0 .14-.33 1.42 1.42 0 0 0 0-.33v-9.61a1.73 1.73 0 0 0-.11-.6c-.073-.187-.277-.287-.61-.3v-.19l2.1-.58v5.39a3.55 3.55 0 0 1 1.15-.68 3.68 3.68 0 0 1 1.25-.31zm.21 7.54a3.06 3.06 0 0 0 1.3-.33 3 3 0 0 0 .92-.75 3 3 0 0 0 .55-1 4 4 0 0 0 .18-1.18c0-.448-.07-.894-.21-1.32a3.6 3.6 0 0 0-.62-1.15 3.1 3.1 0 0 0-1-.82 3 3 0 0 0-1.39-.31 2.18 2.18 0 0 0-.86.18 2.69 2.69 0 0 0-.75.47c-.22.197-.4.434-.53.7a1.91 1.91 0 0 0-.2.86v2.34a2 2 0 0 0 .23 1c.15.287.357.539.61.74.254.202.542.357.85.46.305.088.623.125.94.11h-.02zm12.47.51v-1l-.11.09a3.9 3.9 0 0 1-1.21.74 5.32 5.32 0 0 1-2.91.11 2.41 2.41 0 0 1-.86-.42 1.69 1.69 0 0 1-.49-.63 1.85 1.85 0 0 1-.16-.75 1.77 1.77 0 0 1 .39-1.13 3.38 3.38 0 0 1 1.13-.87 10.37 10.37 0 0 1 1.8-.69c.707-.207 1.517-.41 2.43-.61a2.42 2.42 0 0 0-.34-1.19 2.34 2.34 0 0 0-.69-.71 2.4 2.4 0 0 0-.84-.34 4.09 4.09 0 0 0-.76-.08 2.77 2.77 0 0 0-1 .15 2.83 2.83 0 0 0-1.23.9 3.37 3.37 0 0 0-.34.52h-.19v-1.38a.89.89 0 0 0 .32-.09l.36-.15.86-.33a4.32 4.32 0 0 1 1.54-.22 5.52 5.52 0 0 1 1.87.26c.418.14.796.38 1.1.7.258.282.437.627.52 1 .086.374.13.756.13 1.14v3.73a1.4 1.4 0 0 0 .19.71.57.57 0 0 0 .51.33v.19l-2.02.02zm0-1.79V104h-.21l-1.23.3a8.2 8.2 0 0 0-1.38.49 4.47 4.47 0 0 0-1.11.72 1.26 1.26 0 0 0-.46 1c.001.405.208.782.55 1a2.39 2.39 0 0 0 1.43.4 2.61 2.61 0 0 0 1.22-.27 4 4 0 0 0 1-.71l.19-.27zm4.97 1.79v-.19a.43.43 0 0 0 .29-.11 1.24 1.24 0 0 0 .22-.26 1.08 1.08 0 0 0 .14-.33 1.47 1.47 0 0 0 0-.33v-9.65a1.73 1.73 0 0 0-.11-.6c-.07-.19-.28-.29-.63-.3v-.19l2.13-.58v11.33a1.41 1.41 0 0 0 0 .33c.028.117.075.229.14.33.06.094.13.182.21.26a.39.39 0 0 0 .28.11v.19l-2.67-.01zm23.2-.19h.11a.4.4 0 0 0 .27-.11 1.24 1.24 0 0 0 .22-.26 1.08 1.08 0 0 0 .14-.33 1.41 1.41 0 0 0 0-.33v-9.92L473 108.66l-5.15-10.76v9.33a1.41 1.41 0 0 0 0 .33 1.18 1.18 0 0 0 .36.59.43.43 0 0 0 .29.11h.11v.19h-2.29v-.19h.11a.4.4 0 0 0 .27-.11 1 1 0 0 0 .21-.26 1.28 1.28 0 0 0 .13-.33 1.47 1.47 0 0 0 0-.33v-10c.012-.1.012-.2 0-.3a1.31 1.31 0 0 0-.13-.32.89.89 0 0 0-.21-.25.43.43 0 0 0-.27-.1h-.11V96h2.15l4.88 10.31L478.23 96h2.38v.19h-.11a.45.45 0 0 0-.29.1 1 1 0 0 0-.22.25 1.08 1.08 0 0 0-.14.32c-.012.1-.012.2 0 .3v10a1.41 1.41 0 0 0 0 .33 1.18 1.18 0 0 0 .36.59.43.43 0 0 0 .29.11h.11v.19h-3l.01-.12zm7.01-3.62c.056.433.177.854.36 1.25.184.373.43.711.73 1a3.37 3.37 0 0 0 1.1.73c.48.19.994.281 1.51.27a4.47 4.47 0 0 0 1.93-.47 3.36 3.36 0 0 0 .79-.56 1.72 1.72 0 0 0 .47-.75h.19v1.41a.68.68 0 0 0-.28.08l-.37.19a8.42 8.42 0 0 1-1.14.48 5.77 5.77 0 0 1-1.89.25 6.49 6.49 0 0 1-1.8-.24 4.37 4.37 0 0 1-1.5-.75 3.67 3.67 0 0 1-1-1.3 4.23 4.23 0 0 1-.39-1.89 4.1 4.1 0 0 1 .26-1.41c.177-.48.45-.918.8-1.29a4 4 0 0 1 1.38-.93 5.15 5.15 0 0 1 2-.36 4.86 4.86 0 0 1 1.84.32c.495.195.94.5 1.3.89.35.386.612.843.77 1.34a5.46 5.46 0 0 1 .25 1.7l-7.31.04zm3.05-3.62a2.86 2.86 0 0 0-1.27.26 3.07 3.07 0 0 0-1.5 1.62 4.15 4.15 0 0 0-.27 1.06h6a3.4 3.4 0 0 0-.22-1.07 3.12 3.12 0 0 0-.56-.94 2.65 2.65 0 0 0-.91-.67 3 3 0 0 0-1.27-.28v.02zm13.5 7.43v-.83a3.71 3.71 0 0 1-1 .66 3.34 3.34 0 0 1-1.5.3 5 5 0 0 1-1.95-.35 4.09 4.09 0 0 1-1.38-.91 3.62 3.62 0 0 1-.81-1.29 4.38 4.38 0 0 1 .01-3c.18-.494.46-.947.82-1.33a4.08 4.08 0 0 1 1.37-.94 4.7 4.7 0 0 1 1.89-.36c.48.002.956.083 1.41.24a3 3 0 0 1 1.09.61v-3.68a1.73 1.73 0 0 0-.11-.6c-.073-.187-.277-.287-.61-.3v-.19l2.1-.58v11.33a1.47 1.47 0 0 0 0 .33c.028.115.072.227.13.33a1 1 0 0 0 .21.26.43.43 0 0 0 .29.11v.19h-1.96zm-2.31-.49a2.4 2.4 0 0 0 .86-.16c.27-.098.52-.244.74-.43a2.27 2.27 0 0 0 .52-.64 1.65 1.65 0 0 0 .2-.8v-2.58a1.83 1.83 0 0 0-.25-1 2.67 2.67 0 0 0-.63-.73 2.86 2.86 0 0 0-.83-.46 2.64 2.64 0 0 0-2.11.13 3 3 0 0 0-.93.75 3.19 3.19 0 0 0-.57 1 3.61 3.61 0 0 0-.19 1.14c0 .445.072.887.21 1.31.135.424.345.82.62 1.17.275.348.615.64 1 .86.404.274.873.44 1.36.48v-.04zm7.53.49v-.19a.43.43 0 0 0 .29-.11 1 1 0 0 0 .21-.26 1.28 1.28 0 0 0 .13-.33 1.47 1.47 0 0 0 0-.33V102a1.79 1.79 0 0 0-.11-.61c-.07-.19-.27-.3-.61-.31v-.17l2.1-.6v6.92a1.41 1.41 0 0 0 0 .33c.027.116.071.227.13.33a1 1 0 0 0 .21.26.43.43 0 0 0 .29.11v.19h-2.64zm.11-10a.84.84 0 0 1 .28-.64 1 1 0 0 1 .7-.26 1 1 0 0 1 .72.26.83.83 0 0 1 .29.64.77.77 0 0 1-.29.62 1.08 1.08 0 0 1-.72.25 1 1 0 0 1-.7-.25.78.78 0 0 1-.28-.57v-.05zm13.49 9.32a.76.76 0 0 0-.32.07l-.34.16a7.26 7.26 0 0 1-.91.39 4.28 4.28 0 0 1-1.43.2 6.15 6.15 0 0 1-2-.31 4.86 4.86 0 0 1-1.58-.87 4 4 0 0 1-1-1.3 3.57 3.57 0 0 1-.37-1.61c0-.534.112-1.062.33-1.55.22-.493.54-.936.94-1.3a4.57 4.57 0 0 1 1.5-.9 5.68 5.68 0 0 1 2-.34 4.12 4.12 0 0 1 1.26.16c.32.11.6.21.82.31.12.06.243.11.37.15.12.039.244.06.37.06v1.43h-.21a1.47 1.47 0 0 0-.38-.63 2.63 2.63 0 0 0-.63-.46 3.13 3.13 0 0 0-.78-.28 3.74 3.74 0 0 0-.82-.09 3.89 3.89 0 0 0-1.51.27 3.12 3.12 0 0 0-1.07.72 2.93 2.93 0 0 0-.63 1c-.14.374-.21.77-.21 1.17a3.83 3.83 0 0 0 .98 2.57 3.6 3.6 0 0 0 1.15.85c.476.22.996.33 1.52.32a3.69 3.69 0 0 0 1.08-.15 3 3 0 0 0 .84-.4 2.34 2.34 0 0 0 .56-.54 1.34 1.34 0 0 0 .25-.56h.22v1.46zm2.5.68v-.19a.43.43 0 0 0 .29-.11 1 1 0 0 0 .21-.26 1.28 1.28 0 0 0 .13-.33 1.47 1.47 0 0 0 0-.33V102a1.79 1.79 0 0 0-.11-.61c-.07-.19-.27-.3-.61-.31v-.17l2.1-.6v6.92a1.41 1.41 0 0 0 0 .33c.027.116.071.227.13.33a1 1 0 0 0 .21.26.43.43 0 0 0 .29.11v.19h-2.64zm.11-10a.84.84 0 0 1 .28-.64 1 1 0 0 1 .7-.26 1 1 0 0 1 .72.26.83.83 0 0 1 .29.64.77.77 0 0 1-.29.62 1.08 1.08 0 0 1-.72.25 1 1 0 0 1-.7-.25.78.78 0 0 1-.29-.57l.01-.05zm14.15 8.78a1.41 1.41 0 0 0 0 .33c.028.117.075.229.14.33.06.094.13.182.21.26a.39.39 0 0 0 .28.11v.19h-2.71v-.19a.4.4 0 0 0 .27-.11 1.24 1.24 0 0 0 .22-.26 1.08 1.08 0 0 0 .14-.33 1.41 1.41 0 0 0 0-.33v-3.51a3.09 3.09 0 0 0-.21-1.19 2.44 2.44 0 0 0-.57-.85 2.26 2.26 0 0 0-.81-.5 2.72 2.72 0 0 0-.92-.16 2.58 2.58 0 0 0-.91.17 3 3 0 0 0-.8.44 2.34 2.34 0 0 0-.57.64 1.46 1.46 0 0 0-.22.76v4.18a1.47 1.47 0 0 0 0 .33c.028.117.075.229.14.33.06.095.13.182.21.26a.39.39 0 0 0 .28.11v.19h-2.74v-.19a.4.4 0 0 0 .27-.11 1.24 1.24 0 0 0 .22-.26 1.08 1.08 0 0 0 .14-.33 1.42 1.42 0 0 0 0-.33V102a1.81 1.81 0 0 0-.11-.61c-.073-.193-.277-.297-.61-.31v-.17l2.1-.6v1a3.77 3.77 0 0 1 .38-.33 3.26 3.26 0 0 1 .56-.34 3.69 3.69 0 0 1 .76-.26 4.44 4.44 0 0 1 1-.1 4.23 4.23 0 0 1 1.68.3c.43.177.819.443 1.14.78a3 3 0 0 1 .64 1.06c.129.36.197.738.2 1.12l.2 3.69zm4.71-2.59c.056.433.177.854.36 1.25.184.373.43.711.73 1a3.37 3.37 0 0 0 1.1.73c.48.19.994.281 1.51.27a4.47 4.47 0 0 0 1.93-.47 3.36 3.36 0 0 0 .79-.56 1.72 1.72 0 0 0 .47-.75h.19v1.41a.68.68 0 0 0-.28.08l-.37.19a8.42 8.42 0 0 1-1.14.48 5.77 5.77 0 0 1-1.89.25 6.49 6.49 0 0 1-1.8-.24 4.37 4.37 0 0 1-1.5-.75 3.67 3.67 0 0 1-1-1.3 4.23 4.23 0 0 1-.39-1.89 4.1 4.1 0 0 1 .26-1.41c.177-.48.45-.918.8-1.29a4 4 0 0 1 1.38-.93 5.15 5.15 0 0 1 2-.36 4.86 4.86 0 0 1 1.84.32c.495.195.94.5 1.3.89.35.386.612.843.77 1.34a5.46 5.46 0 0 1 .25 1.7l-7.31.04zm3.05-3.62a2.86 2.86 0 0 0-1.27.26 3.07 3.07 0 0 0-1.5 1.62 4.15 4.15 0 0 0-.27 1.06h6a3.4 3.4 0 0 0-.22-1.07 3.12 3.12 0 0 0-.56-.94 2.65 2.65 0 0 0-.91-.67 3 3 0 0 0-1.27-.28v.02z"/><use fill="#000" filter="url(#a)" xlink:href="#b"/><use fill="#7F8337" fill-rule="evenodd" xlink:href="#b"/><circle cx="38.78" cy="76.25" r="37.05" fill="#5B0B0C"/><path fill="url(#c)" d="M69.53 2.83a24.56 24.56 0 0 1-3 12.74c-2.54 4.41-4.86 4.76-8.59 11.17a89.58 89.58 0 0 0-4.24 8.75c-1.16 2.61-2.5 5.23-2.55 8.16 0 1.19 0 2.4-.39 2.49-.39.09-1.69-1.56-1.7-3.34 0-1.08.87-2 1.91-4.26.64-1.37 1.8-2.57 2.12-4.07a5 5 0 0 0-.17-2.49c-.83-3 .06-7.63 1.95-10.68a14 14 0 0 1 4.46-4.41c1.92-1.22 4.11-1.89 5.83-3.41 4.35-3.86 4.38-9.58 4.37-10.65z"/><path fill="url(#d)" d="M42.59 9.63a23.53 23.53 0 0 0 .89 8.17 18 18 0 0 0 3.07 5.55 18.18 18.18 0 0 1 2.83 7c.64 3.18.74 6.43 1.12 9.65l-.12-9.09a14.53 14.53 0 0 1 .16-3.54 17.45 17.45 0 0 0-.93-10.66 13.52 13.52 0 0 0-7.02-7.08z"/><path fill="url(#e)" d="M48.07 31.82A15.48 15.48 0 0 0 41 27.4a62.84 62.84 0 0 0-7.25-1.77c-10-3.18-18.37-9.31-23-18.87a29.09 29.09 0 0 0-3.57-5.44s3.89-1.85 8.66 2.79c2.11 2.06 5.2 2.94 8 3.78a28.76 28.76 0 0 1 9.52 4.46 39.27 39.27 0 0 1 6.42 6c1.94 2.28 2.66 5.23 4.64 7.45 1.75 2 4.06 3.32 5.81 5.27 2.12 2.37 2.64 5.53 2.42 8.64 0 .4-.12 3-.77 3-.27 0-.61-1.12-1-2.38-.88-2.8-.88-6.09-2.81-8.51z"/><path fill="url(#f)" d="M27.61 110.48c-.56-1.31-.85-2.32-1.38-3.69a52.74 52.74 0 0 1-1-2.83c-3.37-10.41 1.58-20.11 3.18-23a14.2 14.2 0 0 0-4.9 3.93c-3.33 4.27-2.85 10.25-2.87 9.81-.48-9.69 1.72-20.12 10.08-26 6.68-4.74 20.15-5.6 21.2-15.92a9.14 9.14 0 0 0-5.12-8.71c-1.22-.5-2.66-.57-3.93-1-5.23-1.79-8.19-5.22-9.51-10.5 0 0-1.1-4.41-3.87-5.36 0 0 16.63-1.61 23.36 14.36-1.11-2.64 3.9-4.87 5.49-5.41-1.39.47-2.72 4.31-3.13 5.56a10.76 10.76 0 0 0-.48 6.41c1.07 3.63 1.4 5.88-.52 9.3a22.45 22.45 0 0 1-4.54 6 7 7 0 0 1 1.88-.56c.69-.23 1.37-.49 2-.78 3.91-1.76 6.5-5.12 8.44-8.63-1.49 2.71-1.31 6.4-3.08 9.3a19.14 19.14 0 0 1-7.36 7c-6.77 3.73-14.36 4.51-19 11.32-7.3 10.7-3.81 25.4 9.06 29.47a26 26 0 0 0 4.16 1 25.15 25.15 0 0 0 6.77.14c0 .19-3.46 1.42-7.37 2.06a38.72 38.72 0 0 1-6.82.46c-.47 0-1.82-.05-3.56-.25l-1-.13c-.7-.1-1.23-.2-1.51-.25a14.26 14.26 0 0 1-3.4-.79 6.24 6.24 0 0 1-1.27-2.31z"/></g></svg>