<svg xmlns="http://www.w3.org/2000/svg" xmlns:xlink="http://www.w3.org/1999/xlink" width="563" height="129" viewBox="0 0 563 129">
  <defs>
    <circle id="logo-c" cx="38.78" cy="76.25" r="37.05"/>
    <filter id="logo-b" width="164.8%" height="164.8%" x="-32.4%" y="-32.4%">
      <feMorphology in="SourceAlpha" operator="dilate" radius="3" result="shadowSpreadOuter1"/>
      <feOffset in="shadowSpreadOuter1" result="shadowOffsetOuter1"/>
      <feGaussianBlur in="shadowOffsetOuter1" result="shadowBlurOuter1" stdDeviation="5"/>
      <feColorMatrix in="shadowBlurOuter1" values="0 0 0 0 0.498039216   0 0 0 0 0.51372549   0 0 0 0 0.215686275  0 0 0 1 0"/>
    </filter>
    <linearGradient id="logo-a">
      <stop offset=".37" stop-color="#888a31"/>
      <stop offset=".47" stop-color="#8e903a"/>
      <stop offset=".64" stop-color="#9d9f53"/>
      <stop offset=".86" stop-color="#b6b87b"/>
      <stop offset="1" stop-color="#c8ca98"/>
    </linearGradient>
    <linearGradient id="logo-d" x1="-.195%" x2="99.911%" y1="50.007%" y2="50.007%" xlink:href="#logo-a"/>
    <linearGradient id="logo-e" x1=".034%" x2="100.02%" y1="49.984%" y2="49.984%" xlink:href="#logo-a"/>
    <linearGradient id="logo-f" x1=".022%" x2="99.92%" y1="50.089%" y2="50.089%" xlink:href="#logo-a"/>
    <linearGradient id="logo-g" x1=".005%" x2="100.024%" y1="49.975%" y2="49.975%" xlink:href="#logo-a"/>
  </defs>
  <g fill="none" fill-rule="evenodd" transform="translate(14)">
    <path fill="#888a35" fill-rule="nonzero" d="m130.08 49.32c-.769866-.0141836-1.504917.3202647-2 .91-.52024.5698883-.897306 1.2554616-1.1 2l-10.56 32-9.02-26.23-9.05 26.33-10.62-32c-.2063866-.7229254-.5454916-1.4011354-1-2-.3515315-.5849431-.9687844-.9590358-1.65-1v-.53h8.24v.53c-.4798326-.0115697-.9392142.1942332-1.25.56-.3362417.3947866-.5112192.9018642-.49 1.42.01.234.051.466.12.69l7.54 22.64 9.23-26.17 8.88 26.12 7.65-22.59c.015796-.1524943.045929-.3031605.09-.45.051579-.1825529.081781-.3704785.09-.56.01988-.4465102-.146748-.8811905-.46-1.2-.238069-.2673797-.572595-.4292472-.93-.45v-.53h6.32zm5.75 34.68v-.53c.301314.002586.59181-.1121779.81-.32.234-.216.43-.47.58-.75.158289-.2926992.276034-.6055663.35-.93.074425-.3045795.114673-.6165047.12-.93v-14.78c.002743-.5922518-.095324-1.1806514-.29-1.74-.193-.553-.753-.847-1.68-.88v-.48l5.8-1.71v19.6c.005.314.045.625.12.93.074.325.191.637.35.93.15.28.346.534.58.75.218.208.509.323.81.32v.52zm.29-28.2c-.01145-.690142.272346-1.3523311.78-1.82.521169-.4980854 1.219318-.7679881 1.94-.75.739399-.0230048 1.458045.2464873 2 .75.523.46.82 1.124.81 1.82.01375.6797487-.28474 1.3283185-.81 1.76-.557462.4710648-1.270664.7171194-2 .69-.710521.0227458-1.403419-.2236972-1.94-.69-.502366-.4334492-.787802-1.066533-.78-1.73zm33.77 22.14c.005388.9082682-.255343 1.7982292-.75 2.56-.538238.8205833-1.239417 1.5217618-2.06 2.06-.922806.6144281-1.934639 1.0832439-3 1.39-1.226128.3478964-2.495508.5196163-3.77.51-1.379228.0462847-2.755268-.1604603-4.06-.61-.920267-.3486958-1.812817-.7665563-2.67-1.25-.5-.287-.963-.527-1.39-.72-.436801-.1963843-.911113-.2953414-1.39-.29v-4.06h.58c.185599.6211908.530323 1.1830901 1 1.63.59733.6232624 1.269037 1.1707041 2 1.63.826486.4978764 1.705069.9036341 2.62 1.21.920058.3343831 1.891067.5069318 2.87.51.722 0 1.442-.071 2.15-.21.697501-.1283843 1.371715-.3609881 2-.69.575212-.3001087 1.087745-.7074199 1.51-1.2.409069-.4860052.626058-1.1049562.61-1.74.009843-.6453213-.217943-1.2717333-.64-1.76-.462462-.5287138-1.014173-.9721134-1.63-1.31-.719427-.4052248-1.476266-.7401089-2.26-1-.844499-.2838955-1.694674-.5506171-2.55-.8-1.014183-.2891715-2.015151-.6228276-3-1-.959819-.3266508-1.884448-.7487642-2.76-1.26-.782053-.4408514-1.463295-1.0403439-2-1.76-.51019-.7245032-.7732-1.5941896-.75-2.48-.008634-.789352.144513-1.5721064.45-2.3.356741-.7826488.916006-1.4558381 1.62-1.95.88993-.6160867 1.881904-1.0697542 2.93-1.34 1.420251-.3660076 2.883605-.5375733 4.35-.51 1.180163-.0341818 2.359825.0834483 3.51.35.704026.1871053 1.392703.427808 2.06.72.317959.1689502.653237.3030614 1 .4.38.092.77.135 1.16.13v3.74h-.46c-.743271-1.2144419-1.863653-2.1521915-3.19-2.67-1.393403-.5982242-2.89361-.9077907-4.41-.91-.846605-.0163753-1.690441.1017618-2.5.35-.612375.1885978-1.189938.4756907-1.71.85-.418.3-.76.694-1 1.15-.205319.3957628-.314923.8341766-.32 1.28-.014929.5669477.181054 1.119266.55 1.55.424.47.938.85 1.51 1.12.698.346 1.416.65 2.15.91.793.287 1.633.553 2.52.8 1.08.32 2.163.653 3.25 1 1.015187.3417076 1.98813.7979843 2.9 1.36.809128.4973629 1.518002 1.1417944 2.09 1.9.591366.77782.901581 1.7331419.88 2.71zm24.9 6.06v-2.35c-.77425.7606043-1.665592 1.3919717-2.64 1.87-1.296.609491-2.71874.9008958-4.15.85-1.83951.0369116-3.667081-.3034181-5.37-1-1.431491-.5924719-2.725182-1.4742244-3.8-2.59-.992938-1.0492275-1.752882-2.2964888-2.23-3.66-.985472-2.7442088-.985472-5.7457912 0-8.49.493516-1.3952142 1.262024-2.6771938 2.26-3.77 1.058433-1.1412151 2.342161-2.050381 3.77-2.67 1.64964-.6989363 3.428843-1.0397797 5.22-1 1.325171.002377 2.640392.2289061 3.89.67 1.113765.3568986 2.137162.9504685 3 1.74v-10.39c.003688-.5825416-.094455-1.1612464-.29-1.71-.193-.533-.753-.817-1.68-.85v-.53l5.8-1.66v32.1c.005.314.045.625.12.93.074.325.191.637.35.93.15.28.346.534.58.75.218.208.509.323.81.32v.51zm-6.38-1.39c.814565.0009218 1.622002-.1517448 2.38-.45.734153-.2885122 1.411309-.7049632 2-1.23.578927-.5163398 1.059962-1.1328785 1.42-1.82.368-.7.557-1.48.55-2.27v-7.32c.012904-.9464753-.228866-1.879016-.7-2.7-.450418-.7864041-1.039997-1.4844105-1.74-2.06-.683855-.5628875-1.458149-1.0058241-2.29-1.31-1.9066-.71757-4.029412-.5828461-5.83.37-.984101.5362968-1.851083 1.2638818-2.55 2.14-.698721.8757432-1.230861 1.8722354-1.57 2.94-.340233 1.0430775-.515676 2.1328442-.52 3.23.002 1.26.198 2.51.58 3.71.369721 1.1957965.948696 2.316502 1.71 3.31.755371.9797659 1.692452 1.8048051 2.76 2.43 1.149093.6782316 2.455778 1.0436896 3.79 1.06zm31.33 1.79c-1.779052.0267473-3.548044-.2714737-5.22-.88-1.475614-.5345921-2.833894-1.3495601-4-2.4-1.095577-1.0056763-1.964796-2.2328097-2.55-3.6-1.226985-2.991894-1.194535-6.3523589.09-9.32.637977-1.4154723 1.568372-2.6798556 2.73-3.71 1.205886-1.0579621 2.604871-1.8729045 4.12-2.4 3.331542-1.1211283 6.938458-1.1211283 10.27 0 1.470392.5083141 2.828647 1.2961018 4 2.32 1.111967.9847984 2.001666 2.1949253 2.61 3.55.63 1.42.946 2.957.93 4.51.001419 1.5261196-.28351 3.0389575-.84 4.46-.557019 1.4341544-1.408692 2.7355111-2.5 3.82-1.166301 1.1462044-2.545524 2.0532305-4.06 2.67-1.776393.6942346-3.673357 1.027393-5.58.98zm-.38-21.4c-1.276096.0416382-2.528074.3588969-3.67.93-1.023805.5237315-1.929168 1.2521057-2.66 2.14-.721417.8908529-1.270767 1.908168-1.62 3-.363012 1.0830901-.548736 2.2176952-.55 3.36-.004328 1.3020685.219035 2.5948671.66 3.82.429243 1.2016268 1.076775 2.3136189 1.91 3.28.832192.9637548 1.853237 1.7465554 3 2.3 1.209891.580462 2.538243.8714668 3.88.85 1.313534.0278414 2.614167-.2638573 3.79-.85 1.062085-.5391494 1.999001-1.2954965 2.75-2.22.735976-.9119215 1.295532-1.9530336 1.65-3.07.361178-1.1041931.546771-2.2582421.55-3.42-.005924-1.206431-.201651-2.4044158-.58-3.55-.383566-1.1907648-.991127-2.2972719-1.79-3.26-.822413-.9945478-1.844454-1.805367-3-2.38-1.346015-.6477842-2.826666-.9665354-4.32-.93zm57.13 17.56c.005.313.046.625.12.93.073.325.191.638.35.93.145831.2754503.331121.5281183.55.75.205.21.487.326.78.32v.51h-7.54v-.53c.301314.002586.59181-.1121779.81-.32.237429-.2202218.442767-.4726855.61-.75.175915-.287517.304235-.6015614.38-.93.074021-.3046545.114263-.6165347.12-.93v-11.54c.00205-.7987921-.126305-1.5925624-.38-2.35-.236686-.7216328-.621582-1.3858325-1.13-1.95-.523225-.5676029-1.155929-1.0234222-1.86-1.34-.786258-.350003-1.639473-.5240587-2.5-.51-.944037-.0250114-1.877175.2065453-2.7.67-.721605.4151066-1.353784.9691129-1.86 1.63-.455115.590917-.816052 1.2486993-1.07 1.95-.204591.5206667-.322813 1.0712405-.35 1.63v11.8c.005.314.045.625.12.93.075.329.203.643.38.93.162917.2721095.357617.5238776.58.75.205.21.487.326.78.32v.54h-7.49v-.53c.281763-.0066454.550227-.1211899.75-.32.237624-.2200397.442984-.4725324.61-.75.175915-.287517.304235-.6015614.38-.93.074425-.3045795.114673-.6165047.12-.93v-11.84c.008694-.8192409-.158396-1.6308203-.49-2.38-.311389-.7012692-.768127-1.3284311-1.34-1.84-.563804-.4980768-1.210154-.8940087-1.91-1.17-.692522-.2812892-1.432535-.4272551-2.18-.43-.908405-.0211808-1.810157.1598528-2.64.53-1.360002.5959739-2.435548 1.6966158-3 3.07-.241242.5664748-.370293 1.1743724-.38 1.79v12.28c.005.314.045.625.12.93.075.329.203.643.38.93.162.272.357.524.58.75.205.21.487.326.78.32v.52h-7.49v-.53c.281763-.0066454.550227-.1211899.75-.32.237429-.2202218.442767-.4726855.61-.75.176231-.2873573.304572-.6014545.38-.93.074021-.3046545.114263-.6165347.12-.93v-14.24c-.001902-.3341731-.021931-.6679969-.06-1-.036946-.34124-.11415-.676908-.23-1-.113468-.3163194-.314642-.5938003-.58-.8-.319684-.228497-.707632-.3413547-1.1-.32v-.48l5.74-1.76v2.72c.712609-.7017572 1.524649-1.2947817 2.41-1.76 1.241296-.613308 2.616571-.9055539 4-.85.983518-.0138174 1.962807.1313875 2.9.43.791352.25552 1.542239.6225453 2.23 1.09.617923.4275784 1.173261.9391627 1.65 1.52.42957.5220805.817431 1.0771238 1.16 1.66.3301-.5671343.697579-1.1116709 1.1-1.63.445824-.5707913.96343-1.0816754 1.54-1.52.650421-.4886737 1.37678-.867056 2.15-1.12.946224-.3041349 1.93629-.4494348 2.93-.43 1.76703-.0890122 3.527125.27954 5.11 1.07 1.123717.6033602 2.073972 1.4847558 2.76 2.56.582593.953454.966921 2.0146068 1.13 3.12.14.91.216 1.83.23 2.75z"/>
    <path fill="#5a0f10" fill-rule="nonzero" d="m333.3 49.32c-.769866-.0141836-1.504917.3202647-2 .91-.52024.5698883-.897306 1.2554616-1.1 2l-10.56 32-9.03-26.23-9.05 26.33-10.62-32c-.206387-.7229254-.545492-1.4011354-1-2-.351531-.5849431-.968784-.9590358-1.65-1v-.53h8.24v.53c-.479833-.0115697-.939214.1942332-1.25.56-.336242.3947866-.511219.9018642-.49 1.42.01.234.051.466.12.69l7.54 22.64 9.23-26.17 8.88 26.12 7.63-22.59c.015796-.1524943.045929-.3031605.09-.45.051579-.1825529.081781-.3704785.09-.56.01988-.4465102-.146748-.8811905-.46-1.2-.238069-.2673797-.572595-.4292472-.93-.45v-.53h6.32zm14.16 34.68v-2.72l-.29.27c-.975185.8938357-2.107663 1.599091-3.34 2.08-2.582.8651349-5.357149.9761408-8 .32-.867297-.2323815-1.677453-.6408636-2.38-1.2-.617543-.4577004-1.115055-1.0581469-1.45-1.75-.2886-.6762883-.434968-1.4047237-.43-2.14-.017536-1.1572974.359878-2.2860131 1.07-3.2.845536-1.0322399 1.902646-1.8711082 3.1-2.46 1.60086-.8075314 3.275112-1.4604897 5-1.95 1.953-.587 4.187-1.167 6.7-1.74-.021669-1.180509-.341591-2.3363565-.93-3.36-.926727-1.5534641-2.46668-2.6430541-4.24-3-.687449-.1462857-1.387286-.2266498-2.09-.24-.898719-.016888-1.793093.1287864-2.64.43-.719593.2564481-1.394473.6242577-2 1.09-.533072.4171816-1.010314.9011462-1.42 1.44-.352446.4618229-.663642.9537134-.93 1.47h-.52v-3.9c.304-.035.6-.126.87-.27.323686-.1648031.65772-.308438 1-.43.797887-.2982184 1.591307-.6082524 2.38-.93 1.363263-.4645637 2.801065-.6714173 4.24-.61 1.750772-.0562884 3.497696.1976249 5.16.75 1.148119.4120754 2.178038 1.0986881 3 2 .703857.7973126 1.19261 1.7610505 1.42 2.8.234051 1.0606907.351415 2.1437944.35 3.23v10.57c-.004839.7007055.174478 1.3903884.52 2 .243981.5531547.785602.915534 1.39.93v.52zm0-5.07v-7.64l-.58.11c-.927.213-2.057.497-3.39.85-1.306405.3464801-2.578373.8117524-3.8 1.39-1.121111.5085158-2.159385 1.1827198-3.08 2-.802914.676617-1.270413 1.670053-1.28 2.72-.003036 1.1368509.56398 2.1995358 1.51 2.83 1.159525.7936128 2.546487 1.1868779 3.95 1.12 1.170041.0291021 2.328703-.2356368 3.37-.77.985588-.5284852 1.885733-1.2027513 2.67-2zm20.25 12.74c-.349614 1.1938836-1.071334 2.244932-2.06 3-.763703.5123097-1.660429.7903645-2.58.8-.521085.0097271-1.040545-.0611084-1.54-.21-.404657-.1257254-.793796-.2968126-1.16-.51-.278028-.1601829-.539329-.3477841-.78-.56-.14601-.1167203-.265349-.2633369-.35-.43l1.92-4.33c.136.501.33.985.58 1.44.2.384.476.724.81 1 .363916.287386.816386.4393876 1.28.43.927 0 1.66-.623 2.2-1.87l2.84-6.57-9.34-19.44c-.271323-.5294312-.607217-1.0231947-1-1.47-.442708-.5527026-1.122535-.8610393-1.83-.83v-.53h7.66v.53c-.153 0-.347.123-.58.37-.248057.2717146-.374472.6329001-.35 1-.005.3.075.594.23.85l7.14 15.11 6.89-15.45c.10581-.215032.163806-.4504251.17-.69.009707-.3264814-.130238-.6395165-.38-.85-.212738-.1974967-.489854-.3111853-.78-.32v-.53h5.63v.53c-.612845-.0049704-1.19728.2580258-1.6.72-.443155.4813584-.804593 1.0319603-1.07 1.63zm36.84-13.73c.005388.9082682-.255343 1.7982292-.75 2.56-.538238.8205833-1.239417 1.5217618-2.06 2.06-.922806.6144281-1.934639 1.0832439-3 1.39-1.226128.3478964-2.495508.5196163-3.77.51-1.379228.0462847-2.755268-.1604603-4.06-.61-.920267-.3486958-1.812817-.7665563-2.67-1.25-.5-.287-.963-.527-1.39-.72-.436801-.1963843-.911113-.2953414-1.39-.29v-4.06h.54c.185599.6211908.530323 1.1830901 1 1.63.59733.6232624 1.269037 1.1707041 2 1.63.821559.5110625 1.696817.9302476 2.61 1.25.920058.3343831 1.891067.5069318 2.87.51.722 0 1.442-.071 2.15-.21.697501-.1283843 1.371715-.3609881 2-.69.575212-.3001087 1.087745-.7074199 1.51-1.2.409069-.4860052.626058-1.1049562.61-1.74.009843-.6453213-.217943-1.2717333-.64-1.76-.462462-.5287138-1.014173-.9721134-1.63-1.31-.719427-.4052248-1.476266-.7401089-2.26-1-.844499-.2838955-1.694674-.5506171-2.55-.8-1.014183-.2891715-2.015151-.6228276-3-1-.959819-.3266508-1.884448-.7487642-2.76-1.26-.782053-.4408514-1.463295-1.0403439-2-1.76-.51019-.7245032-.7732-1.5941896-.75-2.48-.002925-.8089928.164008-1.6095901.49-2.35.356741-.7826488.916006-1.4558381 1.62-1.95.88993-.6160867 1.881904-1.0697542 2.93-1.34 1.420251-.3660076 2.883605-.5375733 4.35-.51 1.180163-.0341818 2.359825.0834483 3.51.35.704026.1871053 1.392703.427808 2.06.72.317959.1689502.653237.3030614 1 .4.38.092.77.135 1.16.13v3.74h-.46c-.743271-1.2144419-1.863653-2.1521915-3.19-2.67-1.393403-.5982242-2.89361-.9077907-4.41-.91-.846605-.0163753-1.690441.1017618-2.5.35-.612375.1885978-1.189938.4756907-1.71.85-.418.3-.76.694-1 1.15-.205319.3957628-.314923.8341766-.32 1.28-.014929.5669477.181054 1.119266.55 1.55.424.47.938.85 1.51 1.12.698.346 1.416.65 2.15.91.793.287 1.633.553 2.52.8 1.08.32 2.163.653 3.25 1 1.015187.3417076 1.98813.7979843 2.9 1.36.809128.4973629 1.518002 1.1417944 2.09 1.9.597096.7792093.910997 1.7385469.89 2.72zm-241.238498 30.57h.15c.487 0 .73-.2.73-.6-.002741-.15743-.033207-.313145-.09-.46l-2.74-6.62h-5.32l-2.64 6.5c-.056776.129384-.087364.268732-.09.41-.011911.207899.064325.411196.21.56.120399.125527.286084.197564.46.2h.15v.27h-3.37v-.27h.15c.304891-.023538.585142-.176402.77-.42.261308-.296187.470902-.634242.62-1l7-16.61 6.81 16.45c.15.378.348.734.59 1.06.222.333.6.53 1 .52h.15v.27h-4.5zm-6.55-9.35h4.68l-2.34-5.69zm24.85-7.5971122c-1.335667-.0305786-2.663297.2145224-3.9.72-1.034696.4336492-1.970341 1.0732901-2.75 1.88-.715815.7457694-1.270637 1.6307619-1.63 2.6-.345274.9142477-.52475 1.8827406-.53 2.86.004097 1.0849072.242894 2.1560822.7 3.1400002.464284 1.021279 1.119353 1.944485 1.93 2.72.835755.80192 1.807579 1.448674 2.87 1.91 1.525742.660491 3.208221.872101 4.85.61.50619-.075431 1.000366-.216624 1.47-.42.49656-.214818.953045-.512379 1.35-.88.452225-.409631.795812-.925012 1-1.5h.3v3c-.336392-.000742-.671812.036154-1 .11l-1.11.24c-.527.127-1.11.243-1.75.35-.661031.10907-1.330036.162591-2 .16-1.58849.030547-3.167774-.24795-4.65-.82-1.241368-.48123-2.376167-1.201522-3.34-2.12-.872099-.846663-1.553887-1.869346-2-3-.43288-1.060489-.65698-2.194569-.66-3.3400002.004225-1.1485507.228256-2.285677.66-3.35.44391-1.1318047 1.125992-2.1549278 2-3 .990413-.933338 2.156288-1.6607353 3.43-2.14 1.554027-.5764978 3.202851-.8546944 4.86-.82.607153-.0069866 1.213488.0466121 1.81.16.54.107 1.02.217 1.44.33.276039.0823262.55648.1490978.84.2.244113.0451575.49175.0685825.74.07v3h-.3c-.100163-.5162088-.33082-.9981778-.67-1.4-.31399-.3650384-.702769-.6583279-1.14-.86-.445818-.2018866-.916672-.3431427-1.4-.42-.472849-.0343237-.94768-.0309799-1.42.01zm9.17-1.0928878h4.32v.27h-.15c-.156732-.0034911-.309445.049781-.43.15-.126194.1049921-.234298.2299872-.32.37-.090888.141624-.158416.2969391-.2.46-.037984.143648-.058136.2914266-.06.44v10.75c-.010665.674445.070069 1.347227.24 2 .30082 1.194252 1.179099 2.158857 2.34 2.57.740555.264883 1.523761.390332 2.31.37.832444.032995 1.661979-.117208 2.43-.44.557159-.24824 1.039771-.637777 1.4-1.13.326756-.469596.545334-1.005795.64-1.57.106201-.567353.16308-1.142835.17-1.72v-10.83c-.002357-.1485365-.0225-.2962556-.06-.44-.041908-.1629494-.109415-.3182144-.2-.46-.085701-.1400128-.193805-.2650079-.32-.37-.110894-.0965803-.252945-.1498494-.4-.15h-.15v-.27h3.31v.27h-.18c-.150819-.0042634-.29754.0494152-.41.15-.116869.1086427-.21786.2331984-.3.37-.090888.141624-.158416.2969391-.2.46-.037885.1436677-.058035.2914341-.06.44v10.73c.032075.989697-.13454 1.975783-.49 2.9-.28497.699372-.746713 1.312731-1.34 1.78-.590281.446959-1.274002.754633-2 .9-.795859.16568-1.607101.246134-2.42.24-.853597.005854-1.705291-.081327-2.54-.26-.725274-.153175-1.408037-.463832-2-.91-.592957-.467591-1.054629-1.080856-1.34-1.78-.353593-.907308-.52026-1.876696-.49-2.85v-10.75c-.001965-.1485659-.022115-.2963323-.06-.44-.041908-.1629494-.109415-.3182144-.2-.46-.085701-.1400128-.193805-.2650079-.32-.37-.108287-.0943544-.246395-.1474729-.39-.15h-.15zm19 .018483h4.32c1.782606-.1124827 3.559944.2901953 5.12 1.16 1.128563.7011094 1.796059 1.952187 1.75 3.28.002064.7127883-.210491 1.4096913-.61 2-.420238.6110834-.965637 1.1258032-1.6 1.51-.692751.4219004-1.444267.7386828-2.23.94-.80222.2162089-1.629159.3271397-2.46.33h-1.16v6.94c.001.162.021.323.06.48.039.17.107.332.2.48.085.138.185.266.3.38.109103.107053.257225.164857.41.16h.15v.27h-4.26v-.27h.15c.145466-.002532.284669-.05964.39-.16.12-.11.222-.238.3-.38.154254-.296722.236472-.625596.24-.96v-14.47c-.012669-.304498-.094759-.6020734-.24-.87-.119421-.292651-.38662-.4987758-.7-.54h-.15zm2.98.983952v7.35h.92c.737623.0102678 1.47257-.0908717 2.18-.3.575389-.1678425 1.116912-.4352199 1.6-.79.41086-.2961197.752136-.6783484 1-1.12.218633-.3915036.335536-.8316081.34-1.28.002915-.5077284-.095683-1.0109182-.29-1.48-.208222-.4833481-.534961-.9063887-.95-1.23-.515933-.3908519-1.103782-.6762817-1.73-.84-.857869-.2257446-1.743153-.3300937-2.63-.31zm12.03-1.002435h4.32v.27h-.15c-.156732-.0034911-.309445.049781-.43.15-.126194.1049921-.234298.2299872-.32.37-.090888.141624-.158416.2969391-.2.46-.037984.143648-.058136.2914266-.06.44v10.75c-.010665.674445.070069 1.347227.24 2 .30082 1.194252 1.179099 2.158857 2.34 2.57.740555.264883 1.523761.390332 2.31.37.832444.032995 1.661979-.117208 2.43-.44.557159-.24824 1.039771-.637777 1.4-1.13.326756-.469596.545334-1.005795.64-1.57.099493-.567937.14968-1.143414.15-1.72v-10.83c-.002357-.1485365-.0225-.2962556-.06-.44-.041908-.1629494-.109415-.3182144-.2-.46-.085701-.1400128-.193805-.2650079-.32-.37-.110894-.0965803-.252945-.1498494-.4-.15h-.15v-.27h3.29v.27h-.15c-.150819-.0042634-.29754.0494152-.41.15-.116869.1086427-.21786.2331984-.3.37-.090888.141624-.158416.2969391-.2.46-.037885.1436677-.058035.2914341-.06.44v10.73c.032075.989697-.13454 1.975783-.49 2.9-.28497.699372-.746713 1.312731-1.34 1.78-.590281.446959-1.274002.754633-2 .9-.795859.16568-1.607101.246134-2.42.24-.853597.005854-1.705291-.081327-2.54-.26-.725274-.153175-1.408037-.463832-2-.91-.592957-.467591-1.054629-1.080856-1.34-1.78-.353593-.907308-.52026-1.876696-.49-2.85v-10.75c-.001965-.1485659-.022115-.2963323-.06-.44-.041908-.1629494-.109415-.3182144-.2-.46-.085701-.1400128-.193805-.2650079-.32-.37-.108287-.0943544-.246395-.1474729-.39-.15h-.15zm29.548498 1.0928878c-1.335667-.0305786-2.663297.2145224-3.9.72-1.034696.4336492-1.970341 1.0732901-2.75 1.88-.715815.7457694-1.270638 1.6307619-1.63 2.6-.345274.9142477-.52475 1.8827406-.53 2.86.004097 1.0849072.242894 2.1560822.7 3.1400002.464284 1.021279 1.119353 1.944485 1.93 2.72.835754.80192 1.807578 1.448674 2.87 1.91 1.525742.660491 3.208221.872101 4.85.61.50619-.075431 1.000366-.216624 1.47-.42.496559-.214818.953045-.512379 1.35-.88.452224-.409631.795811-.925012 1-1.5h.3v3c-.336393-.000742-.671812.036154-1 .11l-1.11.24c-.527.127-1.11.243-1.75.35-.661031.10907-1.330036.162591-2 .16-1.58849.030547-3.167774-.24795-4.65-.82-1.241368-.48123-2.376167-1.201522-3.34-2.12-.872099-.846663-1.553888-1.869346-2-3-.43288-1.060489-.65698-2.194569-.66-3.3400002.004225-1.1485507.228256-2.285677.66-3.35.44391-1.1318047 1.125992-2.1549278 2-3 .990413-.933338 2.156288-1.6607353 3.43-2.14 1.554027-.5764978 3.20285-.8546944 4.86-.82.607153-.0069866 1.213488.0466121 1.81.16.54.107 1.02.217 1.44.33.276039.0823262.556479.1490978.84.2.244113.0451575.491749.0685825.74.07v3h-.3c-.100163-.5162088-.33082-.9981778-.67-1.4-.31399-.3650384-.702769-.6583279-1.14-.86-.445819-.2018866-.916673-.3431427-1.4-.42-.47285-.0343237-.947681-.0309799-1.42.01zm12.95 16.6171122h.15v.27h-3.37v-.27h.15c.151284-.003187.296545-.059875.41-.16.129587-.105444.238147-.234359.32-.38.084675-.151887.151774-.312925.2-.48.049683-.155303.076629-.316978.08-.48v-14.51c.013529-.1463547.013529-.2936453 0-.44-.031395-.1615242-.088808-.3168791-.17-.46-.080979-.1464369-.193741-.2728674-.33-.37-.153273-.1033822-.335213-.1558649-.52-.15h-.21v-.27h3.07l11 15.57v-13.88c-.004226-.1498722-.0312-.2982322-.08-.44-.049192-.162005-.119817-.3167081-.21-.46-.085702-.1400128-.193806-.2650079-.32-.37-.120554-.100219-.273268-.1534911-.43-.15h-.15v-.27h3.4v.27h-.15c-.156732-.0034911-.309446.049781-.43.15-.126194.1049921-.234298.2299872-.32.37-.090585.1417856-.158092.2970506-.2.46-.037984.143648-.058136.2914266-.06.44v16.28h-1.88l-11-15.63v13.86c.001.162.021.323.06.48.04.17.107.332.2.48.088.141.196.269.32.38.127541.116472.297886.174462.47.16zm24.77 0h.15v.27h-4.32v-.27h.11c.15852.003614.312399-.053644.43-.16.124001-.110993.231728-.23892.32-.38.093-.148.16-.31.2-.48.038163-.157202.058292-.318241.06-.48v-15.19h-3.53c-.294535-.0063951-.58622.0588051-.85.19-.232729.1186288-.439964.2816994-.61.48-.311201.3582516-.484879.8154856-.49 1.29h-.3v-3h13.64v3h-.3c-.001423-.2285494-.042011-.4551638-.12-.67-.179618-.4815326-.537714-.8754383-1-1.1-.263644-.1315758-.555425-.1967973-.85-.19h-3.59v15.19c.001.162.021.323.06.48.039.17.107.332.2.48.085.138.185.266.3.38.128.13.31.19.49.16zm7.71-17.7h4.32v.27h-.15c-.156732-.0034911-.309446.049781-.43.15-.126194.1049921-.234298.2299872-.32.37-.090888.141624-.158417.2969391-.2.46-.037984.143648-.058136.2914266-.06.44v10.75c-.010665.674445.070069 1.347227.24 2 .30082 1.194252 1.179099 2.158857 2.34 2.57.740555.264883 1.523761.390332 2.31.37.832444.032995 1.661978-.117208 2.43-.44.557159-.24824 1.039771-.637777 1.4-1.13.326755-.469596.545334-1.005795.64-1.57.099493-.567937.14968-1.143414.15-1.72v-10.83c-.002357-.1485365-.022501-.2962556-.06-.44-.041908-.1629494-.109415-.3182144-.2-.46-.085702-.1400128-.193806-.2650079-.32-.37-.110894-.0965803-.252945-.1498494-.4-.15h-.15v-.27h3.31v.27h-.15c-.150819-.0042634-.29754.0494152-.41.15-.116869.1086427-.21786.2331984-.3.37-.090888.141624-.158417.2969391-.2.46-.037885.1436677-.058035.2914341-.06.44v10.73c.032074.989697-.13454 1.975783-.49 2.9-.284971.699372-.746713 1.312731-1.34 1.78-.590281.446959-1.274002.754633-2 .9-.79586.16568-1.607101.246134-2.42.24-.853597.005854-1.705291-.081327-2.54-.26-.725275-.153175-1.408037-.463832-2-.91-.592957-.467591-1.054629-1.080856-1.34-1.78-.353593-.907308-.52026-1.876696-.49-2.85v-10.75c-.001965-.1485659-.022115-.2963323-.06-.44-.041908-.1629494-.109415-.3182144-.2-.46-.085702-.1400128-.193806-.2650079-.32-.37-.108287-.0943544-.246395-.1474729-.39-.15h-.15zm23.07 17.7h.16v.27h-4.3v-.27h.15c.145466-.002532.284668-.05964.39-.16.124001-.110993.231728-.23892.32-.38.093-.148.16-.31.2-.48.0386-.157122.058737-.318211.06-.48v-14.51c-.001965-.1485659-.022115-.2963323-.06-.44-.041908-.1629494-.109415-.3182144-.2-.46-.085702-.1400128-.193806-.2650079-.32-.37-.108287-.0943544-.246395-.1474729-.39-.15h-.15v-.27h5.3c1.63187-.0942704 3.257287.2730948 4.69 1.06 1.082773.6624971 1.71893 1.8619989 1.66 3.13.013909.6245-.116114 1.2438216-.38 1.81-.241527.505449-.5815.957613-1 1.33-.444198.3844776-.951721.6889914-1.5.9-.594224.2303605-1.210912.3979388-1.84.5l2.19 3c.527.727 1.063 1.44 1.61 2.14s1.083 1.42 1.61 2.16c.14.18.3.37.47.57.169166.193884.353045.37442.55.54.185.157.39.288.61.39.203.098.425.149.65.15v.27h-1.32c-.705189.032108-1.403256-.152879-2-.53-.497415-.336932-.933679-.756285-1.29-1.24-.913-1.2-1.82-2.417-2.72-3.65s-1.797-2.45-2.69-3.65l-.71-.07-.71-.1v7.46c.001.162.021.323.06.48.039.17.107.332.2.48.085.138.185.266.3.38.102277.114655.246509.183165.4.19zm-1-16.77v6.92h2.26c.455626-.0051489.908942-.065591 1.35-.18.478846-.1185679.932648-.3217625 1.34-.6.408885-.2901199.750046-.6653976 1-1.1.292024-.5248036.433877-1.1198943.41-1.72.024168-.5945018-.128989-1.1827638-.44-1.69-.312283-.434227-.732927-.7790172-1.22-1-.590159-.275901-1.22213-.4516362-1.87-.52-.796377-.0957819-1.597888-.1425367-2.4-.14zm14.46 16.77h.15c.156732.003491.309446-.049781.43-.15.126194-.104992.234298-.229987.32-.37.08918-.143831.159744-.298399.21-.46.0493-.148525.076261-.303551.08-.46v-14.57c-.004679-.1498245-.031642-.2981171-.08-.44-.050256-.1616006-.12082-.3161691-.21-.46-.085702-.1400128-.193806-.2650079-.32-.37-.120554-.100219-.273268-.1534911-.43-.15h-.15v-.27h11.7v2.52h-.3c-.044212-.4211325-.239621-.8119508-.55-1.1-.423893-.3535456-.96994-.5259815-1.52-.48h-6.11v6.89h5c.422524.0146671.836729-.1198609 1.17-.38.290213-.2087626.464521-.5425431.47-.9h.3v3.4h-.3c-.000566-.339992-.17384-.6564045-.46-.84-.342919-.2457643-.758537-.3690408-1.18-.35h-5v8.25h6.65c.348555.008532.693284-.074203 1-.24.27-.154.51-.353.71-.59.187682-.214332.333533-.461939.43-.73.083-.214.13-.44.14-.67h.3v3.19h-12.45zm28.33.27v-1l-.11.09c-.354712.318551-.764826.569365-1.21.74-.94089.306601-1.948648.344695-2.91.11-.311862-.081098-.604295-.223914-.86-.42-.211289-.167867-.379308-.383891-.49-.63-.105133-.23608-.159637-.491569-.16-.75-.004978-.410497.13289-.809959.39-1.13.310504-.367067.695744-.663668 1.13-.87.577274-.28539 1.179877-.516388 1.8-.69.707-.207 1.517-.41 2.43-.61-.008273-.419431-.125438-.829508-.34-1.19-.176728-.283171-.411993-.525255-.69-.71-.255869-.165646-.54095-.281036-.84-.34-.254517-.040895-.512331-.057636-.77-.05-.339713-.01178-.678694.039067-1 .15-.484588.181874-.910018.493164-1.23.9-.129103.162494-.24292.336567-.34.52h-.19v-1.38c.111372-.009637.219932-.040169.32-.09l.36-.15.86-.33c.495792-.165916 1.017583-.240458 1.54-.22.633639-.021366 1.266223.066587 1.87.26.418.14.796.38 1.1.7.258.282.437.627.52 1 .086.374.13.756.13 1.14v3.73c-.001029.249364.064565.494478.19.71.092342.198968.290665.327294.51.33v.19zm0-1.79v-2.66h-.21l-1.23.3c-.473693.121849-.935534.285836-1.38.49-.403667.18361-.777764.426268-1.11.72-.298523.245191-.468072.613775-.46 1 .001.405.208.782.55 1 .422106.281782.922954.421879 1.43.4.422529.010108.841193-.082547 1.22-.27.367849-.183855.705146-.423336 1-.71zm13.37.57c-.012917.109621-.012917.220379 0 .33.028.117.075.229.14.33.06.094.13.182.21.26.074867.072637.175712.112254.28.11v.19h-2.71v-.19c.100634-.001394.197043-.040672.27-.11.084943-.076135.158975-.163627.22-.26.064724-.101433.112042-.212969.14-.33.012917-.109621.012917-.220379 0-.33v-3.51c.008999-.406622-.062365-.81102-.21-1.19-.127775-.320442-.322048-.610147-.57-.85-.231441-.222282-.507565-.392729-.81-.5-.29515-.105969-.606403-.1601-.92-.16-.311102.001338-.619397.058931-.91.17-.287554.104991-.557344.253376-.8.44-.22778.176424-.42102.393395-.57.64-.141887.228255-.218016.491246-.22.76v4.18c-.012386.109651-.012386.220349 0 .33.028.117.075.229.14.33.06.095.13.182.21.26.074867.072637.175712.112254.28.11v.19h-2.74v-.19c.100634-.001394.197043-.040672.27-.11.084943-.076135.158975-.163627.22-.26.064724-.101433.112042-.212969.14-.33.012825-.109626.012825-.220374 0-.33v-5.21c-.001319-.208146-.038531-.414504-.11-.61-.073-.193-.277-.297-.61-.31v-.17l2.1-.6v1c.177541-.119021.364883-.222728.56-.31.174776-.13185.36239-.245758.56-.34.243118-.114064.49796-.201247.76-.26.328474-.071072.663956-.10462 1-.1.574566-.015177 1.146198.086901 1.68.3.43.177.819.443 1.14.78.284723.304984.502699.666006.64 1.06.129.36.197.738.2 1.12zm10.21 1.22v-.83c-.295372.272728-.633109.495635-1 .66-.470059.214694-.983525.317387-1.5.3-.666838.014566-1.329851-.104437-1.95-.35-.517142-.206245-.986732-.515902-1.38-.91-.358436-.367685-.634547-.807419-.81-1.29-.349916-.969999-.346374-2.032355.01-3 .18-.494.46-.947.82-1.33.387359-.403984.853693-.72395 1.37-.94.598436-.249043 1.241916-.371611 1.89-.36.48.002.956.083 1.41.24.402108.124605.77349.332442 1.09.61v-3.68c-.000839-.2049367-.038084-.4080941-.11-.6-.073-.187-.277-.287-.61-.3v-.19l2.1-.58v11.33c-.012386.109651-.012386.220349 0 .33.028.115.072.227.13.33.054919.097833.12591.185727.21.26.079616.071467.183015.110687.29.11v.19zm-2.31-.45c.294048-.000199.585555-.054433.86-.16.27-.098.52-.244.74-.43.210953-.179797.387194-.396708.52-.64.133302-.245441.202118-.520704.2-.8v-2.58c.014205-.350402-.072571-.697507-.25-1-.163956-.279551-.377437-.526918-.63-.73-.249121-.198483-.529648-.353956-.83-.46-.690739-.25245-1.455475-.205334-2.11.13-.357149.185119-.67342.440176-.93.75-.249064.296014-.442207.634862-.57 1-.124145.36733-.1883.752262-.19 1.14 0 .445.072.887.21 1.31.135.424.345.82.62 1.17.275.348.615.64 1 .86.408.26.877.412 1.36.44zm21.92.26h.11c.098971-.00048.194594-.035895.27-.1.087661-.073449.162074-.161391.22-.26.064-.106.11-.22.14-.34.012386-.109651.012386-.220349 0-.33v-5.13h-6.73v5.13c-.012386.109651-.012386.220349 0 .33.028.115.072.227.13.33.054.096.121.184.2.26.074867.072637.175712.112254.28.11h.11v.19h-2.95v-.19h.1c.098971-.00048.194594-.035895.27-.1.087661-.073449.162074-.161391.22-.26.064-.106.11-.22.14-.34.012386-.109651.012386-.220349 0-.33v-10c.012-.1.012-.2 0-.3-.02902-.1119369-.072733-.2195386-.13-.32-.053793-.0957031-.125018-.1804956-.21-.25-.081971-.0662694-.184605-.1016603-.29-.1h-.1v-.26h2.95v.19h-.11c-.105395-.0016603-.208029.0337306-.29.1-.083883.067967-.152104.153243-.2.25-.050969.1022254-.091184.2094672-.12.32-.012.1-.012.2 0 .3v4.26h6.73v-4.26c.012-.1.012-.2 0-.3-.02902-.1119369-.072733-.2195386-.13-.32-.053985-.09557-.125183-.1803292-.21-.25-.081971-.0662694-.184605-.1016603-.29-.1h-.11v-.19h2.95v.19h-.11c-.105395-.0016603-.208029.0337306-.29.1-.083662.0681867-.151841.1534108-.2.25-.051452.1020141-.091688.2093083-.12.32-.012.1-.012.2 0 .3v10c0 .112.017.223.05.33.034.115.081.226.14.33.054.096.121.184.2.26.068075.070537.161971.110262.26.11h.11v.19h-2.95zm6.67-3.62c.056.433.177.854.36 1.25.184.373.43.711.73 1 .314952.313476.688791.561569 1.1.73.48.19.994.281 1.51.27.670442-.009931 1.33006-.170563 1.93-.47.288992-.147542.555088-.336167.79-.56.21941-.20472.381441-.463281.47-.75h.19v1.41c-.098015.006135-.193539.033427-.28.08l-.37.19c-.367718.187733-.748746.348166-1.14.48-.611779.187556-1.250496.272042-1.89.25-.608282.004751-1.214212-.076039-1.8-.24-.543731-.150815-1.05311-.405504-1.5-.75-.427133-.352348-.769003-.796778-1-1.3-.273893-.591534-.407366-1.238365-.39-1.89.003176-.481623.091189-.95892.26-1.41.177-.48.45-.918.8-1.29.389715-.403317.859889-.720173 1.38-.93.636139-.251645 1.31604-.374027 2-.36.628253-.013292 1.253122.095381 1.84.32.495.195.94.5 1.3.89.35.386.612.843.77 1.34.172536.54992.256914 1.12369.25 1.7zm3.05-3.62c-.437654-.011682-.872147.07727-1.27.26-.68359.335307-1.21819.912674-1.5 1.62-.136375.339873-.227164.696301-.27 1.06h6c-.015183-.366193-.089475-.727522-.22-1.07-.129838-.343874-.31942-.6621-.56-.94-.251633-.286163-.562023-.514692-.91-.67-.397768-.185072-.831286-.280651-1.27-.28zm11.95.89c-.121165-.209881-.307137-.3748-.53-.47-.203573-.064654-.416467-.095068-.63-.09-.167264.001902-.332977.032339-.49.09-.18059.063234-.354717.1436-.52.24-.17.1-.33.21-.49.33s-.3.23-.41.33v4.9c-.013178.10626-.013178.21374 0 .32.029881.116389.077074.22763.14.33.056.097.127.185.21.26.077534.067193.177442.102874.28.1v.19h-2.73v-.19c.098971-.00048.194594-.035895.27-.1.087661-.073449.162074-.161391.22-.26.062404-.102638.109563-.2138.14-.33.012687-.106289.012687-.213711 0-.32v-5.24c-.005714-.19231-.072232-.377861-.19-.53-.132845-.179784-.329795-.301534-.55-.34v-.13l2.13-.57v1.13c.127-.14.26-.277.4-.41.143838-.135881.301342-.256523.47-.36.182717-.108634.377331-.195875.58-.26.24-.072.49-.106.74-.1.257.007.512.044.76.11.2598.057862.514087.138163.76.24zm7.28-1.51c.68256-.019597 1.36226.095952 2 .34.517469.20099.987436.50749 1.38.9.36.369.638.808.82 1.29.179.473.27.974.27 1.48.000705.518656-.090715 1.033316-.27 1.52-.182833.49838-.465237.954309-.83 1.34-.385475.425649-.85548.766233-1.38 1-.598436.249043-1.241916.371611-1.89.36-.498415.007091-.992652-.091757-1.45-.29-.377558-.167238-.717632-.408691-1-.71v.87h-2.06v-.19c.100634-.001394.197043-.040672.27-.11.084943-.076135.158975-.163627.22-.26.064724-.101433.112042-.212969.14-.33.012825-.109626.012825-.220374 0-.33v-9.61c-.000839-.2049367-.038084-.4080941-.11-.6-.073-.187-.277-.287-.61-.3v-.19l2.1-.58v5.39c.336843-.297406.727085-.528158 1.15-.68.395205-.176006.818351-.280946 1.25-.31zm.21 7.54c.452405-.012511.896402-.125218 1.3-.33.353557-.186232.666345-.441222.92-.75.245632-.295069.432344-.634544.55-1 .11868-.382117.179356-.779878.18-1.18 0-.448-.07-.894-.21-1.32-.134797-.41794-.344923-.80769-.62-1.15-.27198-.340595-.612727-.620007-1-.82-.431734-.213406-.908501-.319735-1.39-.31-.295912.00101-.588521.062254-.86.18-.274236.114181-.527666.272997-.75.47-.22.197-.4.434-.53.7-.132921.267111-.201418.561647-.2.86v2.34c-.011602.347663.067674.69234.23 1 .15.287.357.539.61.74.254.202.542.357.85.46.305.088.623.125.94.11zm12.47.51v-1l-.11.09c-.354712.318551-.764826.569365-1.21.74-.94089.306601-1.948648.344695-2.91.11-.311862-.081098-.604295-.223914-.86-.42-.211289-.167867-.379308-.383891-.49-.63-.105133-.23608-.159637-.491569-.16-.75-.004978-.410497.13289-.809959.39-1.13.310504-.367067.695744-.663668 1.13-.87.577274-.28539 1.179877-.516388 1.8-.69.707-.207 1.517-.41 2.43-.61-.008273-.419431-.125438-.829508-.34-1.19-.176728-.283171-.411993-.525255-.69-.71-.255869-.165646-.54095-.281036-.84-.34-.250281-.050327-.504725-.077111-.76-.08-.339713-.01178-.678694.039067-1 .15-.484588.181874-.910018.493164-1.23.9-.129103.162494-.24292.336567-.34.52h-.19v-1.38c.111372-.009637.219932-.040169.32-.09l.36-.15.86-.33c.495792-.165916 1.017583-.240458 1.54-.22.633639-.021366 1.266223.066587 1.87.26.418.14.796.38 1.1.7.258.282.437.627.52 1 .086.374.13.756.13 1.14v3.73c-.001029.249364.064565.494478.19.71.092342.198968.290665.327294.51.33v.19zm0-1.79v-2.66h-.21l-1.23.3c-.473693.121849-.935534.285836-1.38.49-.403667.18361-.777764.426268-1.11.72-.298523.245191-.468072.613775-.46 1 .001.405.208.782.55 1 .422106.281782.922954.421879 1.43.4.422529.010108.841193-.082547 1.22-.27.367849-.183855.705146-.423336 1-.71zm4.97 1.79v-.19c.106985.000687.210384-.038533.29-.11.084943-.076135.158975-.163627.22-.26.064724-.101433.112042-.212969.14-.33.012386-.109651.012386-.220349 0-.33v-9.65c-.000839-.2049367-.038084-.4080941-.11-.6-.07-.19-.28-.29-.63-.3v-.19l2.13-.58v11.33c-.012917.109621-.012917.220379 0 .33.028.117.075.229.14.33.06.094.13.182.21.26.074867.072637.175712.112254.28.11v.19zm23.2-.19h.11c.100634-.001394.197043-.040672.27-.11.084943-.076135.158975-.163627.22-.26.064724-.101433.112042-.212969.14-.33.012917-.109621.012917-.220379 0-.33v-9.92l-5.36 11.35-5.15-10.76v9.33c-.012917.109621-.012917.220379 0 .33.058423.22819.183802.433673.36.59.079616.071467.183015.110687.29.11h.11v.19h-2.29v-.19h.11c.100634-.001394.197043-.040672.27-.11.08409-.074273.155081-.162167.21-.26.058437-.103434.102191-.2145.13-.33.012386-.109651.012386-.220349 0-.33v-10c.012-.1.012-.2 0-.3-.02902-.1119369-.072733-.2195386-.13-.32-.053985-.09557-.125183-.1803292-.21-.25-.075835-.0633697-.171183-.0986839-.27-.1h-.11v-.26h2.15l4.88 10.31 4.88-10.31h2.38v.19h-.11c-.105395-.0016603-.208029.0337306-.29.1-.086791.0704511-.161155.154956-.22.25-.06372.0983638-.111005.2064436-.14.32-.012.1-.012.2 0 .3v10c-.012917.109621-.012917.220379 0 .33.058423.22819.183802.433673.36.59.079616.071467.183015.110687.29.11h.11v.19h-3zm7.01-3.62c.056.433.177.854.36 1.25.184.373.43.711.73 1 .314952.313476.688791.561569 1.1.73.48.19.994.281 1.51.27.670442-.009931 1.33006-.170563 1.93-.47.288992-.147542.555088-.336167.79-.56.21941-.20472.381441-.463281.47-.75h.19v1.41c-.098015.006135-.193539.033427-.28.08l-.37.19c-.367718.187733-.748746.348166-1.14.48-.611779.187556-1.250496.272042-1.89.25-.608282.004751-1.214212-.076039-1.8-.24-.543731-.150815-1.05311-.405504-1.5-.75-.427133-.352348-.769003-.796778-1-1.3-.273893-.591534-.407366-1.238365-.39-1.89.003176-.481623.091189-.95892.26-1.41.177-.48.45-.918.8-1.29.389715-.403317.859889-.720173 1.38-.93.636139-.251645 1.31604-.374027 2-.36.628253-.013292 1.253122.095381 1.84.32.495.195.94.5 1.3.89.35.386.612.843.77 1.34.172536.54992.256914 1.12369.25 1.7zm3.05-3.62c-.437654-.011682-.872147.07727-1.27.26-.68359.335307-1.21819.912674-1.5 1.62-.136375.339873-.227164.696301-.27 1.06h6c-.015183-.366193-.089475-.727522-.22-1.07-.129838-.343874-.31942-.6621-.56-.94-.251633-.286163-.562023-.514692-.91-.67-.397768-.185072-.831286-.280651-1.27-.28zm13.5 7.43v-.83c-.295372.272728-.633109.495635-1 .66-.470059.214694-.983525.317387-1.5.3-.666838.014566-1.329851-.104437-1.95-.35-.517142-.206245-.986732-.515902-1.38-.91-.358436-.367685-.634547-.807419-.81-1.29-.349916-.969999-.346374-2.032355.01-3 .18-.494.46-.947.82-1.33.387359-.403984.853693-.72395 1.37-.94.598436-.249043 1.241916-.371611 1.89-.36.48.002.956.083 1.41.24.402108.124605.77349.332442 1.09.61v-3.68c-.000839-.2049367-.038084-.4080941-.11-.6-.073-.187-.277-.287-.61-.3v-.19l2.1-.58v11.33c-.012386.109651-.012386.220349 0 .33.028.115.072.227.13.33.054919.097833.12591.185727.21.26.079616.071467.183015.110687.29.11v.19zm-2.31-.49c.294048-.000199.585555-.054433.86-.16.27-.098.52-.244.74-.43.210953-.179797.387194-.396708.52-.64.133302-.245441.202118-.520704.2-.8v-2.58c.014205-.350402-.072571-.697507-.25-1-.163956-.279551-.377437-.526918-.63-.73-.249121-.198483-.529648-.353956-.83-.46-.690739-.25245-1.455475-.205334-2.11.13-.357149.185119-.67342.440176-.93.75-.249064.296014-.442207.634862-.57 1-.124145.36733-.1883.752262-.19 1.14 0 .445.072.887.21 1.31.135.424.345.82.62 1.17.275.348.615.64 1 .86.404.274.873.44 1.36.48zm7.53.49v-.19c.106985.000687.210384-.038533.29-.11.08409-.074273.155081-.162167.21-.26.058437-.103434.102191-.2145.13-.33.012386-.109651.012386-.220349 0-.33v-5.23c-.000915-.208183-.038139-.414611-.11-.61-.07-.19-.27-.3-.61-.31v-.17l2.1-.6v6.92c-.012917.109621-.012917.220379 0 .33.027.116.071.227.13.33.054919.097833.12591.185727.21.26.079616.071467.183015.110687.29.11v.19zm.11-10c-.004007-.2438664.098179-.4774334.28-.64.191008-.1738017.441848-.2669707.7-.26.264985-.0122605.523985.081267.72.26.186651.1598777.292853.3942532.29.64.005551.2406334-.101742.4700189-.29.62-.201643.1680636-.457593.2569352-.72.25-.256788.0097018-.507455-.0798222-.7-.25-.169957-.1416846-.27174-.3488857-.28-.57zm13.49 9.32c-.110487-.000204-.21969.023684-.32.07l-.34.16c-.294106.150556-.598146.280858-.91.39-.4619.147171-.945447.2148-1.43.2-.679212.007824-1.355027-.096927-2-.31-.576338-.188873-1.112232-.483953-1.58-.87-.419549-.35961-.760038-.802246-1-1.3-.247512-.500358-.374238-1.051786-.37-1.61 0-.534.112-1.062.33-1.55.22-.493.54-.936.94-1.3.437383-.393788.946712-.699385 1.5-.9.640862-.232435 1.318332-.347604 2-.34.425745-.012115.850795.041859 1.26.16.32.11.6.21.82.31.12.06.243.11.37.15.12.039.244.06.37.06v1.43h-.21c-.071217-.238816-.201979-.455606-.38-.63-.185967-.183797-.398302-.338836-.63-.46-.24644-.127493-.508739-.221652-.78-.28-.269178-.060145-.544184-.090328-.82-.09-.516265-.011116-1.029577.080668-1.51.27-.402919.16286-.767371.408099-1.07.72-.275748.287078-.490108.627333-.63 1-.14.374-.21.77-.21 1.17-.00282.948459.346384 1.864229.98 2.57.322636.357385.713683.64642 1.15.85.476.22.996.33 1.52.32.365442.003758.729414-.046794 1.08-.15.299097-.08884.582504-.223796.84-.4.21549-.147493.404772-.330014.56-.54.125503-.164831.211077-.356517.25-.56h.22zm2.5.68v-.19c.106985.000687.210384-.038533.29-.11.08409-.074273.155081-.162167.21-.26.058437-.103434.102191-.2145.13-.33.012386-.109651.012386-.220349 0-.33v-5.23c-.000915-.208183-.038139-.414611-.11-.61-.07-.19-.27-.3-.61-.31v-.17l2.1-.6v6.92c-.012917.109621-.012917.220379 0 .33.027.116.071.227.13.33.054919.097833.12591.185727.21.26.079616.071467.183015.110687.29.11v.19zm.11-10c-.004007-.2438664.098179-.4774334.28-.64.191008-.1738017.441848-.2669707.7-.26.264985-.0122605.523985.081267.72.26.186651.1598777.292853.3942532.29.64.005551.2406334-.101742.4700189-.29.62-.201643.1680636-.457593.2569352-.72.25-.256788.0097018-.507455-.0798222-.7-.25-.173695-.1398155-.279249-.3472831-.29-.57zm14.15 8.78c-.012917.109621-.012917.220379 0 .33.028.117.075.229.14.33.06.094.13.182.21.26.074867.072637.175712.112254.28.11v.19h-2.71v-.19c.100634-.001394.197043-.040672.27-.11.084943-.076135.158975-.163627.22-.26.064724-.101433.112042-.212969.14-.33.012917-.109621.012917-.220379 0-.33v-3.51c.008999-.406622-.062365-.81102-.21-1.19-.127775-.320442-.322048-.610147-.57-.85-.231441-.222282-.507565-.392729-.81-.5-.29515-.105969-.606403-.1601-.92-.16-.311102.001338-.619397.058931-.91.17-.287554.104991-.557344.253376-.8.44-.22778.176424-.42102.393395-.57.64-.141887.228255-.218016.491246-.22.76v4.18c-.012386.109651-.012386.220349 0 .33.028.117.075.229.14.33.06.095.13.182.21.26.074867.072637.175712.112254.28.11v.19h-2.74v-.19c.100634-.001394.197043-.040672.27-.11.084943-.076135.158975-.163627.22-.26.064724-.101433.112042-.212969.14-.33.012825-.109626.012825-.220374 0-.33v-5.21c-.001319-.208146-.038531-.414504-.11-.61-.073-.193-.277-.297-.61-.31v-.17l2.1-.6v1c.119175-.118342.246124-.228587.38-.33.174776-.13185.36239-.245758.56-.34.243118-.114064.49796-.201247.76-.26.328474-.071072.663956-.10462 1-.1.574566-.015177 1.146198.086901 1.68.3.43.177.819.443 1.14.78.284723.304984.502699.666006.64 1.06.129.36.197.738.2 1.12zm4.71-2.59c.056.433.177.854.36 1.25.184.373.43.711.73 1 .314952.313476.688791.561569 1.1.73.48.19.994.281 1.51.27.670442-.009931 1.33006-.170563 1.93-.47.288992-.147542.555088-.336167.79-.56.21941-.20472.381441-.463281.47-.75h.19v1.41c-.098015.006135-.193539.033427-.28.08l-.37.19c-.367718.187733-.748746.348166-1.14.48-.611779.187556-1.250496.272042-1.89.25-.608282.004751-1.214212-.076039-1.8-.24-.543731-.150815-1.05311-.405504-1.5-.75-.427133-.352348-.769003-.796778-1-1.3-.273893-.591534-.407366-1.238365-.39-1.89.003176-.481623.091189-.95892.26-1.41.177-.48.45-.918.8-1.29.389715-.403317.859889-.720173 1.38-.93.636139-.251645 1.31604-.374027 2-.36.628253-.013292 1.253122.095381 1.84.32.495.195.94.5 1.3.89.35.386.612.843.77 1.34.172536.54992.256914 1.12369.25 1.7zm3.05-3.62c-.437654-.011682-.872147.07727-1.27.26-.68359.335307-1.21819.912674-1.5 1.62-.136375.339873-.227164.696301-.27 1.06h6c-.015183-.366193-.089475-.727522-.22-1.07-.129838-.343874-.31942-.6621-.56-.94-.251633-.286163-.562023-.514692-.91-.67-.397768-.185072-.831286-.280651-1.27-.28z"/>
    <circle cx="38.78" cy="76.25" r="38.58" fill="#000" fill-rule="nonzero"/>
    <circle cx="38.78" cy="76.25" r="38.58" fill="#7f8337"/>
    <g fill-rule="nonzero">
      <use fill="#000" filter="url(#logo-b)" xlink:href="#logo-c"/>
      <use fill="#461516" xlink:href="#logo-c"/>
      <path fill="url(#logo-d)" d="m69.53 2.83c.1708027 4.43985127-.8660166 8.842877-3 12.74-2.54 4.41-4.86 4.76-8.59 11.17-1.5706979 2.8377564-2.9861157 5.7587247-4.24 8.75-1.16 2.61-2.5 5.23-2.55 8.16 0 1.19 0 2.4-.39 2.49s-1.69-1.56-1.7-3.34c0-1.08.87-2 1.91-4.26.64-1.37 1.8-2.57 2.12-4.07.1547259-.8310261.0962371-1.6877143-.17-2.49-.83-3 .06-7.63 1.95-10.68 1.1340091-1.7883882 2.6589411-3.2962246 4.46-4.41 1.92-1.22 4.11-1.89 5.83-3.41 4.35-3.86 4.38-9.58 4.37-10.65z"/>
      <path fill="url(#logo-e)" d="m42.59 9.63c-.1849027 2.7544565.1163581 5.5199627.89 8.17.686763 2.0171298 1.7262297 3.8962959 3.07 5.55 1.4228117 2.1095729 2.3869347 4.4943296 2.83 7 .64 3.18.74 6.43 1.12 9.65l-.12-9.09c-.0912961-1.1821084-.0375632-2.3709474.16-3.54.8140002-3.5630451.4887012-7.2917403-.93-10.66-1.3525849-3.1681413-3.8634846-5.7005017-7.02-7.08z"/>
      <path fill="url(#logo-f)" d="m48.07 31.82c-1.9080543-2.0922307-4.3534326-3.6210244-7.07-4.42-2.3794672-.7331085-4.800402-1.3241505-7.25-1.77-10-3.18-18.37-9.31-23-18.87-.98281552-1.94113473-2.1803047-3.76588013-3.57-5.44 0 0 3.89-1.85 8.66 2.79 2.11 2.06 5.2 2.94 8 3.78 3.4204063.88912217 6.6476464 2.4010435 9.52 4.46 2.3577313 1.7535181 4.5112098 3.7661149 6.42 6 1.94 2.28 2.66 5.23 4.64 7.45 1.75 2 4.06 3.32 5.81 5.27 2.12 2.37 2.64 5.53 2.42 8.64 0 .4-.12 3-.77 3-.27 0-.61-1.12-1-2.38-.88-2.8-.88-6.09-2.81-8.51z"/>
      <path fill="url(#logo-g)" d="m27.61 110.48c-.56-1.31-.85-2.32-1.38-3.69-.3601143-.933655-.6935826-1.877371-1-2.83-3.37-10.41 1.58-20.11 3.18-23-1.906224.9277967-3.5805147 2.2706461-4.9 3.93-3.33 4.27-2.85 10.25-2.87 9.81-.48-9.69 1.72-20.12 10.08-26 6.68-4.74 20.15-5.6 21.2-15.92.1989524-3.6684777-1.8179245-7.0995319-5.12-8.71-1.22-.5-2.66-.57-3.93-1-5.23-1.79-8.19-5.22-9.51-10.5 0 0-1.1-4.41-3.87-5.36 0 0 16.63-1.61 23.36 14.36-1.11-2.64 3.9-4.87 5.49-5.41-1.39.47-2.72 4.31-3.13 5.56-.8093853 2.0378483-.9768602 4.2743362-.48 6.41 1.07 3.63 1.4 5.88-.52 9.3-1.1650233 2.2411597-2.6999082 4.2696421-4.54 6 .5972756-.273983 1.2301549-.4625003 1.88-.56.69-.23 1.37-.49 2-.78 3.91-1.76 6.5-5.12 8.44-8.63-1.49 2.71-1.31 6.4-3.08 9.3-1.7781333 2.9535999-4.321012 5.3720987-7.36 7-6.77 3.73-14.36 4.51-19 11.32-7.3 10.7-3.81 25.4 9.06 29.47 1.3568389.447054 2.7482153.78152 4.16 1 2.2400376.351638 4.5173403.398731 6.77.14 0 .19-3.46 1.42-7.37 2.06-2.255327.354089-4.5375511.508022-6.82.46-.47 0-1.82-.05-3.56-.25l-1-.13c-.7-.1-1.23-.2-1.51-.25-1.1614081-.123107-2.303294-.388428-3.4-.79-.5830026-.670775-1.0159964-1.458347-1.27-2.31z"/>
    </g>
  </g>
</svg>
