<svg xmlns="http://www.w3.org/2000/svg" xmlns:xlink="http://www.w3.org/1999/xlink" width="171" height="256"><defs><path id="a" d="M62.988 60.104c6.22 2.138 8.69 12.07 8.69 12.07 2.957 11.892 9.604 19.617 21.354 23.64 2.842.974 6.09 1.134 8.823 2.255 7.12 2.933 12.257 12.075 11.496 19.602-2.35 23.235-32.59 25.168-47.584 35.827-18.628 13.252-23.628 36.475-22.651 58.153-.063-2.515.112-13.457 6.465-21.61 3.327-4.266 7.373-7.019 11-8.838-3.591 6.454-14.688 28.289-7.132 51.73a124.81 124.81 0 0 0 2.247 6.38c1.172 3.07 1.832 5.353 3.09 8.302 1.288 3.023 1.953 4.545 2.808 5.175.671.495 3 .932 7.626 1.783a84.733 84.733 0 0 0 5.7.85c3.908.442 6.948.532 8.003.557.561.013 1.116.02 1.659.02h.339c6.748-.016 12.082-.855 13.32-1.058 8.781-1.436 16.596-4.21 16.538-4.637-.01-.07-.76.058-2.133.185-2.503.23-7.085.456-13.059-.491-4.997-.793-8.598-2.053-9.339-2.287-28.908-9.166-36.734-42.256-20.348-66.347 10.428-15.333 27.471-17.078 42.665-25.479 6.96-3.849 12.323-8.837 16.52-15.723 3.98-6.528 3.568-14.848 6.915-20.943-4.337 7.894-10.152 15.469-18.94 19.42a49.29 49.29 0 0 1-4.558 1.768c-1.046.35-3.419.56-4.213 1.27 4.294-3.82 7.408-8.556 10.194-13.542 4.299-7.696 3.547-12.763 1.156-20.944-1.4-4.787-.467-9.771 1.073-14.429.93-2.813 3.902-11.464 7.024-12.52-3.549 1.202-14.814 6.22-12.313 12.174C102.85 62.512 74.895 60 65.86 60c-1.822 0-2.873.104-2.873.104"/><path id="b" d="M13 .83c2.979 3.665 6.03 8.08 8.087 12.355C31.542 34.907 50.591 48.83 73.16 56.045c2.507.803 8.585 1.262 16.412 4.013 6.16 2.164 12.03 5.14 16.023 10.037 4.488 5.497 4.397 12.983 6.332 19.5.85 2.862 1.626 5.476 2.229 5.404 1.468-.173 1.68-5.977 1.744-6.896.485-7.049-.686-14.224-5.487-19.618-3.96-4.45-9.204-7.516-13.16-11.977-4.48-5.054-6.116-11.76-10.501-16.934a89.066 89.066 0 0 0-14.548-13.696c-6.885-5.152-13.486-7.646-21.569-10.124-6.227-1.91-13.22-3.92-18.01-8.592C26.618 1.299 21.226 0 17.62 0 14.74 0 13 .83 13 .83"/></defs><g fill="none" fill-rule="evenodd" transform="translate(2)"><path fill="#55090B" stroke="#780D10" stroke-width="4" d="M167 170.5c0 46.116-37.384 83.5-83.5 83.5S0 216.616 0 170.5 37.384 87 83.5 87s83.5 37.384 83.5 83.5"/><path fill="#780D10" d="M143.105 29.408c-3.864 3.424-8.771 4.952-13.08 7.69-4.025 2.562-7.485 5.842-10.006 9.926-4.246 6.876-6.24 17.392-4.373 24.053.242.865.921 2.998.379 5.6-.702 3.368-3.32 6.092-4.748 9.166-2.335 5.026-4.29 7.169-4.277 9.61.018 4.02 2.707 7.8 3.801 7.534.864-.212.835-2.92.877-5.612.101-6.58 3.115-12.489 5.717-18.37 2.951-6.676 5.844-13.396 9.505-19.719 8.371-14.458 13.575-15.233 19.264-25.17C149.472 28.326 152.982 19.372 153 6c-.025 3.465-.693 15.258-9.895 23.408"/><path fill="#780D10" d="M143.105 29.408c-3.864 3.424-8.771 4.952-13.08 7.69-4.025 2.562-7.485 5.842-10.006 9.926-4.246 6.876-6.24 17.392-4.373 24.053.242.865.921 2.998.379 5.6-.702 3.368-3.32 6.092-4.748 9.166-2.335 5.026-4.29 7.169-4.277 9.61.018 4.02 2.707 7.8 3.801 7.534.864-.212.835-2.92.877-5.612.101-6.58 3.115-12.489 5.717-18.37 2.951-6.676 5.844-13.396 9.505-19.719 8.371-14.458 13.575-15.233 19.264-25.17C149.472 28.326 152.982 19.372 153 6c-.025 3.465-.693 15.258-9.895 23.408"/><path fill="#780D10" d="M94.247 38.287c1.535 4.908 4.19 8.38 7.267 12.437 3.432 4.53 5.44 9.911 6.7 15.66 1.514 7.114 1.744 14.41 2.654 21.616-.095-6.787-.19-13.575-.287-20.362-.038-2.761-.26-5.283.382-7.932 1.918-7.91 1.17-16.39-2.196-23.863-3.302-7.331-9.015-12.47-16.64-15.843-.45 6.06.303 12.475 2.12 18.287"/><use fill="#780D10" xlink:href="#a"/><use fill="#780D10" xlink:href="#b"/></g></svg>