<svg xmlns="http://www.w3.org/2000/svg" width="30" height="40" viewBox="0 0 30 40">
  <path fill="#461516" d="m27.9322167.29812808c-1.0177339-.17891626-1.9903448.49970443-2.1678817 1.5182266-.1426601.80098522.2530049 1.56669951.9237438 1.94719212l-2.2254187 12.617931.0910345 1.2831527-2.2918227 12.9980296-.3062069 2.2189163-3.3639409-3.364138v-11.8297537l.3103449-1.2478817v-12.81103453c.7259113-.25832512 1.2502463-.94246305 1.2502463-1.75763547 0-1.03330049-.84-1.871133-1.8723153-1.871133-1.0350739 0-1.8707389.83881773-1.8707389 1.871133 0 .81261084.5229556 1.49832513 1.2468965 1.75763547v12.81261083l.311133 1.2474877v11.2055172l-4.2768473-4.2772413-1.8593103-6.9416749-.0232512-1.2851232-3.31546801-12.37615761c.63231527-.43724138.96039409-1.23408867.7515271-2.02049261-.26778325-.99802955-1.29576355-1.59093596-2.29261084-1.32256157-.99862069.26640394-1.5897537 1.2937931-1.32433498 2.29123152.21103449.78502463.89458128 1.31231527 1.66167488 1.37418719l3.31566505 12.37596058.6234483 1.1251232 1.4195073 5.2967487-9.00827582-9.0108374c.3302463-.6947783.21517241-1.5479803-.36118227-2.1235468-.73004926-.7304433-1.91408867-.7304433-2.64532019 0-.73201971.7300493-.73201971 1.9150739 0 2.6455172.57536945.5751725 1.42857142.6900493 2.12433497.3601971l9.05911331 9.0602956 1.1030542.6618719.2130049.2124138 1.5129064 5.644532 2.4863054 8.0740887-1.8837438-8.2333005-1.2329064-4.6029557 3.9531034 3.9529064v1.1136946l.3127094 8.4403941.3117241-8.4403941v-.4894581l3.2561577 3.2583251-.7450247 5.3737931 1.0817734-5.0372414.066404.066798 6.1889655 5.7479803-5.7477833-6.1873891-.3529064-.3531035.5371429-2.493596 2.2928079-12.999803.5235468-1.1741872 2.2234482-12.61733989c.76-.12945813 1.3938917-.71330049 1.5355665-1.51389163.1771429-1.02147783-.5028571-1.99310344-1.52-2.1720197zm-10.9018719 1.57300492c0-.68886699.5596059-1.24729063 1.24867-1.24729063.6882758 0 1.2474877.55842364 1.2474877 1.24729063 0 .68807882-.5592119 1.24768473-1.2474877 1.24768473-.6890641 0-1.24867-.55960591-1.24867-1.24768473zm-9.27231524 1.81201971c-.66561577.17753695-1.35034483-.21773399-1.52807882-.88256158-.17753695-.66522167.21655172-1.34995074.88236453-1.52886699.66600985-.17793104 1.35014778.21773399 1.52807882.88315271.17753694.66364532-.21753695 1.34817734-.88236453 1.52827586zm-4.92197045 10.52078819c-.48571428.4857143-1.27665024.4857143-1.76433497 0-.48571429-.4868966-.48571429-1.2770443 0-1.7641379.48669951-.4872907 1.27743842-.4872907 1.76433497 0 .48689656.4870936.48689656 1.2762561 0 1.7641379zm24.55487689-10.83448277c-.6788178-.11901478-1.1316257-.7670936-1.0120197-1.4453202.1186206-.67763547.7674876-1.13162561 1.4443349-1.01359606.6792119.11960591 1.1326109.76768473 1.0124138 1.44748769-.1180295.6782266-.7676847 1.13162561-1.444729 1.01142857z"/>
</svg>
