<svg xmlns="http://www.w3.org/2000/svg" width="453" height="421" viewBox="0 0 453 421">
  <path d="m449.483 174.4.001-.001-57.824-38.335v-128.134c0-4.142-3.358-7.5-7.5-7.5h-315.49c-4.142 0-7.5 3.358-7.5 7.5v128.143l-57.814 38.326.001.002c-2.022 1.343-3.357 3.639-3.357 6.249v232.26c0 4.142 3.358 7.5 7.5 7.5h437.84c4.142 0 7.5-3.358 7.5-7.5v-232.26c0-2.61-1.335-4.906-3.357-6.25zm-388.313 26.229-23.525-12.479h23.525zm-46.17-7.511 172.475 91.49-172.475 114.327zm211.417 83.671 194.037 128.621h-388.073zm38.945 7.82 172.477-91.491v205.821zm126.298-96.459h23.536l-23.536 12.484zm28.794-15h-28.794v-19.09zm-43.794-157.72v193.161l-125.527 66.586-20.573-13.637c-2.511-1.665-5.776-1.665-8.287 0l-20.57 13.635-125.533-66.589v-193.156zm-315.49 157.72h-28.782l28.782-19.08z"/>
</svg>
