<svg xmlns="http://www.w3.org/2000/svg" width="28" height="40" viewBox="0 0 28 40">
  <g fill="#461516">
    <circle cx="17.226" cy="14.194" r="1"/>
    <circle cx="10.774" cy="14.194" r="1"/>
    <path d="m15.2903226 17.4193548c0 .7116129-.5787097 1.2903226-1.2903226 1.2903226s-1.2903226-.5787097-1.2903226-1.2903226h-1.2903226c0 1.4232258 1.1574194 2.5806452 2.5806452 2.5806452s2.5806452-1.1574194 2.5806452-2.5806452z"/>
    <path d="m24.4606452 25.6025806-.7832258-.2612903v-15.66387095c0-5.33612903-4.3412904-9.67741935-9.6774194-9.67741935-5.33612903 0-9.67741935 4.34129032-9.67741935 9.67741935v15.66387095l-.78322581.2612903c-1.84709678.6154839-3.08774194 2.3374194-3.08774194 4.2845162v10.1129032h5.80645162 1.29032258 20v-10.1129032c0-1.9470968-1.2406452-3.6690323-3.0877419-4.2845162zm-18.84774197-15.92516125c0-4.62451612 3.76258064-8.38709677 8.38709677-8.38709677 4.6245161 0 8.3870968 3.76258065 8.3870968 8.38709677v2.59741935c-.3767742-.2851613-.8109678-.4987097-1.2903226-.596129v-2.00129035h-1.2903226v1.29032255h-1.2903226v-1.29032255h-1.2903225v1.29032255h-1.2903226v-1.29032255h-1.2903226v1.29032255h-1.2903226v-1.29032255h-1.2903226v1.29032255h-1.2903226v-1.29032255h-1.29032253v1.29032255h-1.29032258v-1.29032255h-1.29032258v2.00064515c-.47935484.0980645-.91354839.3109678-1.29032258.596129zm8.38709677 12.25806455c-3.2012903 0-5.80645161-2.6051613-5.80645161-5.8064516v-3.8709678h11.61290321v3.8709678c0 3.2012903-2.6051613 5.8064516-5.8064516 5.8064516zm2.5806452.7974193v.8451613c-.3812904.3051613-1.3212904.9380645-2.5806452.9380645-1.2458065 0-2.1954839-.6354838-2.5806452-.9406451v-.8425807c.8012904.3141936 1.6696775.4929033 2.5806452.4929033s1.7793548-.1787097 2.5806452-.4929033zm-2.5806452 3.0735484c1.6167742 0 2.8258065-.7806451 3.3677419-1.2083871l1.3587097.4529032c-.6535484.8374194-2.056129 2.0458065-4.7264516 2.0458065-2.6716129 0-4.07354839-1.2096774-4.72645161-2.0458065l1.35870971-.4529032c.5419354.427742 1.7509677 1.2083871 3.3677419 1.2083871zm3.8709677-2.4006451v-1.3367742c1.4258065-.9322581 2.4929033-2.3632258 2.9606452-4.0432258.5806452-.0690323 1.1109677-.2870968 1.5554839-.6232259v7.5083871zm3.1987097-6.7419355c.0135484-.1774194.0270968-.3541936.0270968-.5348387v-3.1070968c.7490323.2670968 1.2903226.9767742 1.2903226 1.8167742 0 .8496774-.5541936 1.5658064-1.3174194 1.8251613zm-14.16645159-3.6419355v3.1070968c0 .1806451.01354838.3574193.02709677.5348387-.76322581-.2593549-1.31741935-.9754839-1.31741935-1.8251613 0-.84.54129032-1.5496774 1.29032258-1.8167742zm-1.29032258 4.3806451c.44451612.3361291.97483871.5541936 1.55548387.6232259.46709677 1.6806451 1.53483871 3.1109677 2.9606452 4.0432258v1.3367742l-4.51612907 1.5051612zm.64516129 21.3070968h-4.51612904v-8.8225806c0-1.3909678.88645162-2.6206452 2.20580646-3.0606452l1.15870967-.3864516 1.08258065 4.3296774-.48322581.4832258c-.89225806.8916129-1.3832258 2.0780645-1.3832258 3.3393549 0 1.5141935.72 2.9245161 1.93548387 3.812258zm14.60064518-1.9070968-.4070968.2716129v1.6354839h-12.9032258v-.9903226l-.40709678-.2716129c-.95741935-.6380645-1.52838709-1.7058064-1.52838709-2.8554838 0-.9167742.35677419-1.7787097 1.00516129-2.4270968l.99935483-.9993548-1.28387096-5.1348388 1.66-.5535483c.70258064 1.0606451 2.43548391 2.9096774 6.00645161 2.9096774s5.303871-1.8490323 6.0058065-2.9096774l1.5109677.5038709-1.1348387 4.5387097.9993548.9993548c.6490323.6490323 1.0058065 1.5109678 1.0058065 2.427742 0 1.1503226-.5709678 2.2180645-1.5283871 2.8554838zm5.3993548 1.9070968h-4.516129v-.9503226c1.2154839-.8877419 1.9354839-2.2980645 1.9354839-3.812258 0-1.2612903-.4909678-2.4470968-1.3832259-3.3393549l-.4832258-.4832258.9335484-3.7341935 1.307742.436129c1.3193548.44 2.2058064 1.6696774 2.2058064 3.0606452z"/>
  </g>
</svg>
