<svg xmlns="http://www.w3.org/2000/svg" width="38" height="40" viewBox="0 0 38 40">
  <g fill="#461516">
    <path d="M34.6027443 12.023368h-2.24c2.1077755-4.00016634.5736382-8.95168401-3.4266112-11.05937632-3.1735551-1.67226611-7.0661955-1.0837422-9.6035759 1.45205822l-.6965489.69588357-.6965488-.69588357c-3.1849481-3.20632017-8.36607073-3.22353431-11.57230773-.03858628-2.55983368 2.54286902-3.15201663 6.46220374-1.45779626 9.64781708h-2.24008316c-.36740125 0-.66528067.2978794-.66528067.6652806 0 .3674013.29787942.6652807.66528067.6652807v-.0019958h3.11950104c.17754678.2206237.36632017.4320166.56548856.6333471l10.70303535 10.6903951c.8729314.8692723 2.2844906.8692723 3.157422 0l10.7030354-10.6903951c.1991684-.2013305.3879418-.4127234.5654885-.6333471h3.1195011c.3674012 0 .6652806-.2978795.6652806-.6652807 0-.3674013-.2977962-.6651975-.6652806-.6651975zm-15.3287318 11.7142619c-.3527651.3513514-.9232433.3513514-1.2760083 0l-10.396341-10.3837006h5.7120998c.2526403.0019959.4845738-.13921.5987526-.3645738l1.2766736-2.5520166 2.1541788 6.4532224c.0906445.2712682.3446154.4543036.6306861.4543867h.0199584c.2936382-.0088149.5467775-.2091476.6227027-.4929729l1.9599168-7.33937635.7391268 3.32640335c.0794179.3587526.4345946.5851975.7933472.5057796.1555094-.0344283.293472-.1234927.3888566-.2509771l1.3498544-1.7962578.8455718 1.6918087c.1134303.2263618.3455301.3687318.5987526.3672349h4.3815384zm11.541289-11.7122661h-5.1153431l-1.1429522-2.29056131c-.1626611-.32948024-.56158-.4647817-.8910603-.30212058-.0947193.04673597-.1770478.1154262-.2399168.20033264l-1.1309771 1.50220375-1.0165489-4.56981289c-.0667775-.29929314-.3294802-.51409564-.6360083-.52024948-.3051975-.00316009-.5744699.19900207-.656632.49297297l-2.0889813 7.8250312-1.9599168-5.87043661c-.1162578-.34852391-.4930562-.53688149-.8415801-.4206237-.1673181.05580042-.3056133.17571726-.3845322.33347194l-1.8115593 3.61979207h-6.44257792c-1.49056133-2.20374218-1.56665281-5.07234925-.19492724-7.35201661 1.95201663-3.24906445 6.16839916-4.30045738 9.41738046-2.34844075.4803326.28856549.9234927.63484408 1.3195842 1.03118504l1.1669023 1.16490644c.2597921.25970894.6809147.25970894.9407068 0l1.1669023-1.16490644c2.6730977-2.68158004 7.0138878-2.68848233 9.6954678-.01538462 2.3258212 2.31841996 2.6809148 5.96066528.8465697 8.68465694zM11.5268191 29.2255301l-2.87002076-1.6385862v-2.9365489c.01555093-1.4523077-1.14927235-2.6422453-2.60158004-2.6577962-.24482329-.002578-.48873181.0289397-.72482329.0938045v-2.7522661c0-1.4696881-1.19143451-2.6611226-2.66112266-2.6611226s-2.66112266 1.1914345-2.66112266 2.6611226v5.5051975c0 4.2569647 2.12981289 8.2316009 5.67417879 10.5892724l2.30918919 1.5381289v2.3012058c0 .3674012.29787942.6652807.66528067.6652807.36740124 0 .66528066-.2978795.66528066-.6652807v-2.657131c-.00016632-.2221206-.11126819-.4295218-.29604989-.5528482l-2.60523909-1.735052c-3.17430353-2.1115177-5.08182952-5.6711019-5.082079-9.4835759v-5.5051975c0-.7348856.59567567-1.3305613 1.33056133-1.3305613.73488565 0 1.33056133.5956757 1.33056133 1.3305613v3.5765489c-.42627859.479501-.66286902 1.0981289-.66528067 1.7397089v2.6611227c0 .3674012.29787942.6652806.66528067.6652806s.66528067-.2978794.66528067-.6652806v-2.6611227c0-.7348856.59567567-1.3305613 1.33056133-1.3305613.73488565 0 1.33056133.5956757 1.33056133 1.3305613v3.3224117c-.00024948.237921.12656964.4578794.33264033.5767983l3.20532226 1.8295218c1.5135967.8619543 2.4486486 2.4694387 2.4495634 4.2112266v4.6775884c0 .3674012.2978794.6652807.6652807.6652807.3674012 0 .6652806-.2978795.6652806-.6652807v-4.6775884c.0004158-2.2185447-1.1897713-4.2666944-3.1175052-5.3648233zM34.6027443 16.676341c-1.4683576 0-2.6592932 1.1893555-2.6611227 2.6577962v2.7522661c-1.4004989-.3847817-2.847817.4386695-3.2325987 1.8391684-.0648649.2360915-.0964657.48-.0938046.7248233v2.9365489l-2.8700208 1.6385862c-1.9277339 1.0981289-3.1178378 3.1462786-3.1175052 5.3648233v4.6775884c0 .3674012.2978794.6652807.6652807.6652807.3674012 0 .6652806-.2978795.6652806-.6652807v-4.6775884c.0008316-1.7411226.9346362-3.3482744 2.4469023-4.2112266l3.2053223-1.8295218c.2060707-.1189189.3328898-.3388773.3326403-.5767983v-3.3224117c0-.7348856.5956757-1.3305613 1.3305613-1.3305613.7348857 0 1.3305614.5956757 1.3305614 1.3305613v2.6611227c0 .3674012.2978794.6652806.6652806.6652806.3674013 0 .6652807-.2978794.6652807-.6652806v-2.6611227c-.0024116-.64158-.2390021-1.2602079-.6652807-1.7397089v-3.5765489c0-.7348856.5956757-1.3305613 1.3305614-1.3305613.7348856 0 1.3305613.5956757 1.3305613 1.3305613v5.5051975c-.0010811 3.8122246-1.9083576 7.3714761-5.082079 9.4835759l-2.6052391 1.735052c-.1847817.1233264-.2958836.3307276-.2960499.5528482v2.657131c0 .3674012.2978794.6652807.6652807.6652807.3674012 0 .6652806-.2978795.6652806-.6652807v-2.3018711l2.3091892-1.5381289c3.5445323-2.3575052 5.6751767-6.3316424 5.6768399-10.5886071v-5.5051975c-.0018295-1.4684407-1.1926819-2.6577962-2.6611226-2.6577962z"/>
  </g>
</svg>
