<svg xmlns="http://www.w3.org/2000/svg" width="50" height="50"><g fill="#fff"><path d="M36.002 0h-22.28C6.156 0 0 6.156 0 13.722v22.28c0 7.567 6.156 13.722 13.722 13.722h22.28c7.567 0 13.722-6.156 13.722-13.722v-22.28C49.724 6.156 43.57 0 36.002 0zm9.31 36.002c0 5.134-4.176 9.31-9.31 9.31h-22.28c-5.134 0-9.31-4.176-9.31-9.31v-22.28c0-5.133 4.176-9.31 9.31-9.31h22.28c5.134 0 9.31 4.177 9.31 9.31z"/><path d="M24.862 12.05c-7.065 0-12.813 5.748-12.813 12.813 0 7.064 5.748 12.812 12.813 12.812s12.813-5.748 12.813-12.812c0-7.065-5.748-12.813-12.813-12.813zm0 21.213c-4.632 0-8.4-3.769-8.4-8.4 0-4.633 3.768-8.402 8.4-8.402s8.4 3.769 8.4 8.401-3.768 8.4-8.4 8.4zM38.212 8.31c-.85 0-1.685.343-2.285.946a3.25 3.25 0 0 0-.95 2.288c0 .85.347 1.686.95 2.289.6.6 1.435.947 2.285.947.853 0 1.685-.347 2.288-.947a3.26 3.26 0 0 0 .947-2.289 3.25 3.25 0 0 0-.947-2.288 3.25 3.25 0 0 0-2.288-.947z"/></g></svg>