<svg xmlns="http://www.w3.org/2000/svg" width="28" height="40" viewBox="0 0 28 40">
  <path fill="#461516" d="m26.728655 19.525848c-.0185575-.0778948-.048655-.1511112-.088655-.2179338-.3249903-.7784015-.7210916-1.5286549-1.1863548-2.2385185l-.4290838-.6546589c-.0221442-.0337621-.0470955-.0644834-.0732943-.0936452.128577-.2809357.2008577-.5928265.2008577-.9214035 0-1.8272904-1.4865498-3.3138401-3.3138402-3.3138401h-1.8348538c.4425731-.614347.7042495-1.3672515.7042495-2.18050687 0-1.11329435-.4750097-2.1785575-1.3033138-2.9225731l-7.5323977-6.76584795c-.3203899-.2877193-.8133333-.2614425-1.1011306.05902534-.2877193.32031189-.2613645.81333333.0590253 1.1011306l7.5323197 6.76576998c.4994932.44865497.7859649 1.09107213.7859649 1.76249513 0 1.20226117-.9781676 2.18042887-2.1804288 2.18042887h-.0807797c-.0437427 0-.0873295.0036647-.1303704.0109941l-7.7720078 1.3185186c-.00647173.0010916-.01988304.0033528-.03539961-.0096687-.01543859-.0130214-.01543859-.0266666-.01543859-.0332163v-8.38214429c0-.43064327-.34908382-.77972709-.7797271-.77972709-.43064327 0-.77972709.34908382-.77972709.77972709v8.38206629c0 .4729824.20725146.9193762.56857699 1.2245614.36132554.3052631.83617934.4347758 1.30245614.3557895l7.70736846-1.3074464h4.885614c.9674074 0 1.754386.7869785 1.754386 1.7543859 0 .3654581-.29731.6627681-.6627681.6627681h-5.8869395c-.1016765 0-.2024172.019883-.2964523.0585575l-8.37083819 3.4414035c-1.22471734.5035477-2.62269005.4873294-3.83547758-.0444445-1.78346978-.7819883-2.93582846-2.545575-2.93582846-4.4929434v-11.82807021c0-.43064327-.34908382-.77972709-.77972709-.77972709-.43064328 0-.7797271.34908382-.7797271.77972709v11.82807021c0 2.3579727 1.28265107 4.5106432 3.31384016 5.6441325v2.9865107c0 .6207408-.09933724 1.2341521-.29520468 1.8231579-1.42432749 4.283041-1.54307992 8.8467837-.34362573 13.1980507l.1854191.6727486c.09536062.3458089.40912281.5727095.75126706.5727095.06861598 0 .13832358-.0091228.2077193-.0282261.4151267-.1144639.65886939-.5437817.54448343-.9589084l-.18541911-.6727485c-1.11711501-4.0523197-1.00647173-8.3026121.32-12.291462.24873295-.7479922.37489279-1.5269396.37489279-2.3152437v-2.3668616c.52148148.1316179 1.05707602.1986745 1.59290448.1986745.83695907 0 1.67415205-.1607797 2.45754386-.482807l8.22822616-3.382846h5.7328655c.3190643 0 .6223781-.0681482.89692-.1897076l.3225731.4921637c.4077193.6220663.7522807 1.2689279 1.0355556 1.9324756-.077193 1.0474854-.9535283 1.8763353-2.0203509 1.8763353-1.7098635 0-3.1430799 1.2031969-3.4998051 2.8070955-.0489668-.0001559-.0979337.0010137-.1470565.0049123-.4580896.0364133-1.139961.2672905-1.7867446 1.1604678-.1013645.140039-.2995712.2039767-.5392593.2187915.5692788-.6366472.9161794-1.4761014.9161794-2.3953996 0-1.9840156-1.6141911-3.5982067-3.5982067-3.5982067s-3.5981286 1.6141911-3.5981286 3.5982067c0 .63423.165536 1.2302534.4548148 1.7482261-.0090448.0290838-.0169981.0587914-.0226901.0895127-.0086549.0465497-.2091228 1.1549317.0645614 2.4764912.3737232 1.8049123 1.4383626 3.1576608 3.0787525 3.9118908 1.1871345.545809 2.2287719.7718519 3.1230409.7717739 1.7916569-.000078 2.9904873-.9079922 3.5747368-1.971306.0518519.0674463.0976219.1419103.1154776.1919688.1480702.531384.6967642.8343859 1.3683431.754308.8439766-.1008188 1.768733-.7846394 1.8048343-2.0477973.0293957-1.0298636-.6026511-2.1897856-1.5728655-2.8863158-.4658869-.334425-.9593762-.5232749-1.4478752-.5632749-.060039-.2899025-.1736452-.5413645-.3134503-.7330994.0254971-1.0954386.9238986-1.9788694 2.0253411-1.9788694 1.0865497 0 2.0611306-.4864717 2.7192983-1.2522417.8480312 3.8697856-.2216765 8.0052242-3.0873295 11.0300195-.9950877 1.0502924-1.5430799 2.4254971-1.5430799 3.8722807v2.1997661c0 .4306433.3490838.7797271.7797271.7797271s.7797271-.3490838.7797271-.7797271v-2.1996881c0-1.0460819.3962573-2.0403899 1.1156335-2.7998441 2.1303704-2.2486549 3.4553606-5.1862768 3.7309942-8.2715789.1930604-2.1612476-.1341911-4.3421443-.9308382-6.3453411zm-12.2189474 1.9644444c1.1241326 0 2.0387524.9145419 2.0387524 2.0387524 0 1.1241326-.9145419 2.0386745-2.0387524 2.0386745-1.1241326 0-2.0386745-.9145419-2.0386745-2.0386745 0-1.1242105.9145419-2.0387524 2.0386745-2.0387524zm6.7235867 6.0678363c.3063548-.0072515.5942301.1590643.7578168.2764912.5321638.3820663.9378558 1.0738401.9235088 1.5749707-.0053801.188772-.0603509.3269396-.1681872.4224562-.0401559.0356335-.0831189.0616764-.1238206.0803898-.2482651-.4433528-.717193-.9748927-1.3682651-1.0438986-.2711891-.028616-.9516569.0005458-1.4123197.8910721-.5537622 1.0705653-2.080156 1.7847174-4.7036257.5785575-1.8479533-.8496686-2.257388-2.5281871-2.3120468-3.6304093.5026121.2672125 1.0754776.4193372 1.6833528.4193372.2038986 0 .4036647-.0179337.5984405-.0506822.3793373.1563352 2.783002 1.0668226 3.885926-.4562184.225731-.3117349.4676803-.5062768.6472514-.5205458.1040156-.0078752.1898636.048499.2469396.1022222.0309552.0532554.1012866.2605069-.0039766.5504874-.2409357.6637817-1.2005458 1.2693177-2.6326706 1.6615204-.4153606.1137622-.659805.5426121-.5461208.9579728.0948928.3464327.4089668.5739571.7515789.5739571.0682261 0 .1374659-.0090449.2063938-.0278363 2.2099025-.6051462 3.1692787-1.5454971 3.5698245-2.359844z"/>
</svg>
