<svg xmlns="http://www.w3.org/2000/svg" width="29" height="40" viewBox="0 0 29 40">
  <path fill="#461516" d="m28.2189844 9.80492187h-.0000782c0-3.64203125-2.9647656-6.60507812-6.6089843-6.60507812h-2.3489063c-.6628906 0-1.2021875-.53859375-1.2021875-1.20054688v-1.99929687h-7.8086718v1.99921875c0 .66203125-.53937505 1.20054687-1.20218755 1.20054687h-2.37671875c-3.64421875 0-6.60890625 2.96304688-6.60890625 6.60507813v16.10015625h.00015625c0 .0055469-.00023437.0110938-.00023437.0166406 0 7.7628906 6.31554687 14.0783594 14.07828127 14.0783594 7.7628125 0 14.0784375-6.3154687 14.0784375-14.0783594 0-.0055468-.0001563-.0110937-.0001563-.0166406h.0001563zm-6.2275 2.13367183c.2344531.4752344.3560156.9981251.3560156 1.5439063 0 1.9313281-1.5713281 3.5027344-3.5027344 3.5027344-1.65875 0-3.0517968-1.1588281-3.4121093-2.7095313zm-14.94765627-6.39789057h2.00398437c1.8385156 0 3.3542969-1.40671875 3.5267969-3.19984375h3.1595312c.1725 1.79304687 1.6884375 3.19984375 3.5267969 3.19984375h2.03375v4.16101562l-7.1255469 2.53914065-7.12531248-2.53906252v-4.16109375zm-.696875 6.39789057 6.55874997 2.3371094c-.3602343 1.5507031-1.7533593 2.7095313-3.41210935 2.7095313-1.93132812 0-3.50265625-1.5713281-3.50265625-3.5027344-.00007812-.5458594.12164063-1.06875.35601563-1.5439063zm-1.64390625-5.91554682v4.11445312c-.68117188.97625-1.05304688 2.1478125-1.05304688 3.3449219 0 .8220312.17140625 1.6045312.47921875 2.3148437-.6371875.6221094-1.2165625 1.3469532-1.7259375 2.1453125v-8.13765622h-.00007812c-.00000001-1.64226563.93460937-3.0696875 2.29984375-3.781875zm9.43750002 31.63601562c-5.3511719 0-9.87726565-3.5996875-11.28453128-8.5047656 3.65640625-1.1392188 7.44703128-1.7179688 11.28460938-1.7179688s7.628125.57875 11.2845313 1.7179688c-1.4072657 4.9050781-5.9333594 8.5047656-11.2846094 8.5047656zm11.7022656-10.8255469c-3.7957031-1.1527343-7.7252344-1.7382031-11.7021875-1.7382031-3.9770312 0-7.90648437.5853906-11.70226562 1.7382031-.02328125-.3009375-.03515625-.6050781-.03515625-.9119531 0-2.9989063 1.23734375-6.1935156 3.09609375-8.1796094 1.04578125.98125 2.45054687 1.5840625 3.99429687 1.5840625 1.91000005 0 3.60867185-.9211719 4.67562505-2.3424219 1.0670312 1.42125 2.7656249 2.3424219 4.6756249 2.3424219 1.4902344 0 2.8511719-.5614844 3.8845313-1.4829687 2.1422656 2.4126562 3.1485938 5.0069531 3.1485938 8.0785156 0 .3069531-.0119532.6110156-.0351563.9119531zm.0351563-8.7339844c-.4957813-.7454687-1.0711719-1.46875-1.7276563-2.171875.3445313-.7444531.5382031-1.5724218.5382031-2.4451562 0-1.1969531-.3717968-2.3683594-1.0528125-3.3446094v-4.08523435c1.3340625.72179687 2.2422657 2.13304687 2.2422657 3.75234375z"/>
</svg>
