<svg xmlns="http://www.w3.org/2000/svg" width="32" height="40" viewBox="0 0 32 40">
  <g fill="#461516">
    <path d="m28.68075 2.865c-.0445833 0-.0890833.00458333-.1328333.0135-4.3444167.88966667-8.8645834.0885-12.6386667-2.24l-.8793333-.54c-.2139167-.13125-.4834167-.13125-.6973334 0l-.8793333.54c-3.77441667 2.32758333-8.29458333 3.12775-12.63866667 2.23733333-.36075-.07366666-.71291666.15908334-.7865.51983334-.00908333.04458333-.01358333.09-.0135.1355v20.49333333c-.00116666 2.6336667.69933334 5.2201667 2.02933334 7.4933333 1.52291666 2.6184167 3.83925 4.6844167 6.614 5.8993334l5.75666663 2.5246666c.17.07425.3633334.07425.5333334 0l5.7586666-2.5246666c.324-.142.6426667-.296.9533334-.4606667.3253333-.1726667.449-.5763333.2763333-.9016667-.1726667-.3253333-.5763333-.449-.9016667-.2763333-.28175.1493333-.5695833.2884167-.8633333.4173333l-5.49 2.4073334-5.488-2.4053334c-2.5175-1.1030833-4.61875-2.9784166-6-5.3546666-1.21033333-2.0694167-1.84733333-4.424-1.84533333-6.8213334v-19.6940833c4.435.70833333 8.97691663-.19833333 12.80000003-2.55533333l.5333333-.326.5333333.32533333c3.8225834 2.35816667 8.3649167 3.26516667 12.8 2.556v19.694c0 .3681667.2985.6666667.6666667.6666667s.6666667-.2985.6666667-.6666667v-20.49066667c-.00025-.36816666-.2989167-.66641666-.6671667-.66608333z"/>
    <path d="M14.63275 5.00491667c-.172-.32558334-.5753333-.45008334-.9008333-.27808334-.01725.00908334-.0341667.019-.0505834.02958334-3.0751666 1.80141666-6.70316663 2.41583333-10.19999997 1.72733333-.36075-.07366667-.71291666.15908333-.7865.51983333-.009.04416667-.0135.08908334-.0135.13416667v15.9266667c.00125 2.087.58066667 4.1329166 1.674 5.9106666 1.27675 2.0815 3.179 3.7060834 5.43466667 4.6413334.3396667.1423333.7303333-.0176667.8726667-.3573334.1423333-.3396666-.0176667-.7303333-.3573334-.8726666-1.99766663-.8275-3.68249997-2.2656667-4.8133333-4.1086667-.96441667-1.568-1.47575-3.3725-1.47733333-5.2133333v-15.13733337c3.57616666.51991667 7.22283333-.193 10.34000003-2.02133333.3255-.17191667.45-.57525.2780833-.90083333zM31.08675 33.5285833c-.2498333-.2170833-.6211667-.2180833-.8720833-.0021666l-3.188 3.188c-.22225-.0666667-.4590834-.0666667-.6813334 0l-5.8546666-5.8546667c-.2648334-.25575-.6869167-.2484167-.9426667.0164167-.2495.2583333-.2495.6679166 0 .92625l5.854 5.8546666c-.1974167.6998334.21 1.42725.9098333 1.6245834.1201667.0339166.2445834.0505.3695.0494166.7364167 0 1.3333334-.5969166 1.3333334-1.3333333-.0015834-.11525-.0184167-.2298333-.05-.3406667l3.188-3.188c.2415-.2779166.212-.699-.0659167-.9405z"/>
    <path d="m25.1526667 14.85975-2.6666667-2.6666667c-.2603333-.26025-.6823333-.26025-.9426667 0l-8.1953333 8.1953334-2.1953333-2.1953334c-.2603334-.26025-.6823334-.26025-.9426667 0l-2.66666667 2.6666667c-.26025.2603333-.26025.6823333 0 .9426667l5.33333337 5.3333333c.125.125.2945.1953333.4713333.1953333s.3463333-.0703333.4713333-.1953333l11.3333334-11.3333333c.26025-.2603334.26025-.6823334 0-.9426667zm-11.8046667 10.862-4.388-4.3906667 1.7213333-1.724 2.2 2.1953334c.2603334.26025.6823334.26025.9426667 0l8.1906667-8.1953334 1.7266666 1.724z"/>
  </g>
</svg>
