<svg height="100" width="100" xmlns="http://www.w3.org/2000/svg"><path d="M50 0C22.4 0 0 22.4 0 50s22.4 50 50 50 50-22.4 50-50S77.6 0 50 0zm25.4 73.4c-1.5.2-.2 5.2-2.2 5.1s-8.2-2.4-10.9-.1c-2.4 2.1-5.8 5.4-11.2 6.1-.2.1-1.8.1-2.2 0-5.4-.7-8.8-4.1-11.2-6.1-2.7-2.3-8.9 0-10.9.1s-.7-4.9-2.2-5.1c-4-.5-12.8-3.4-7.6-5.1 7.4-2.4 11.5-7.5 13.4-11.6 1.7-3.6 1-6-.8-6.8-2-.9-7.6-1.1-6.6-4.8 1.1-3.8 7.4-.6 7.4-.6s1.7.4 1.7-1.5c0-4.8-2.2-14.5 3.4-21 3.9-4.5 9.5-6 12.4-6.4h.2c1-.2 1.9-.2 1.9-.2s.9 0 1.9.2h.2c2.9.5 8.5 1.9 12.4 6.4 5.6 6.5 3.4 16.2 3.4 21 0 2 1.7 1.5 1.7 1.5s6.4-3.2 7.4.6c1 3.7-4.6 3.9-6.6 4.8-1.8.8-2.5 3.2-.8 6.8 2 4.1 6 9.2 13.4 11.6 5.1 1.7-3.6 4.6-7.6 5.1z" fill="#fff"/></svg>