<svg height="41" width="50" xmlns="http://www.w3.org/2000/svg"><path d="M50 4.841a20.483 20.483 0 0 1-5.89 1.616A10.3 10.3 0 0 0 48.62.786a20.678 20.678 0 0 1-6.518 2.49 10.228 10.228 0 0 0-7.486-3.24c-5.664 0-10.257 4.593-10.257 10.254 0 .803.09 1.588.265 2.337C16.1 12.2 8.543 8.116 3.483 1.911a10.18 10.18 0 0 0-1.387 5.155c0 3.559 1.813 6.699 4.562 8.536a10.258 10.258 0 0 1-4.646-1.287v.128c0 4.967 3.537 9.114 8.227 10.057-.86.231-1.766.36-2.703.36a9.845 9.845 0 0 1-1.93-.191c1.305 4.077 5.092 7.042 9.579 7.124a20.58 20.58 0 0 1-12.739 4.383c-.827 0-1.643-.05-2.446-.14a28.993 28.993 0 0 0 15.722 4.614c18.868 0 29.182-15.628 29.182-29.182l-.034-1.328A20.482 20.482 0 0 0 50 4.841z" fill="#fff"/></svg>