<?xml version="1.0" encoding="iso-8859-1"?>
<!-- Generator: Adobe Illustrator 19.0.0, SVG Export Plug-In . SVG Version: 6.00 Build 0)  -->
<svg xmlns="http://www.w3.org/2000/svg" xmlns:xlink="http://www.w3.org/1999/xlink" version="1.1" id="Layer_1" x="0px" y="0px" viewBox="0 0 485 485" style="enable-background:new 0 0 485 485;" xml:space="preserve" width="512px" height="512px">
<g>
	<g>
		<g>
			<path d="M340.424,360.56c-1.156-0.619-3.963-2.133-7.637-4.196c10.747-4.778,24.297-6.239,29.867-6.365l9.053-0.185     l-21.11-100.187c3.254-8.464,5.679-17.247,7.223-26.185C375.026,218.507,390,202.357,390,187.5c0-15.043-11.308-25.026-30-27.094     V61.771l-0.141-0.716c-0.13-0.661-3.37-16.357-20.109-31.6C318.286,9.91,285.566,0,242.5,0c-43.066,0-75.786,9.91-97.25,29.455     c-16.74,15.243-19.98,30.939-20.11,31.6L125,61.771v98.635c-18.692,2.068-30,12.051-30,27.094     c0,14.857,14.975,31.008,32.182,35.942c1.548,8.953,3.971,17.727,7.221,26.183l-19.243,91.329l-1.854,8.84l9.032,0.205     c5.576,0.126,19.126,1.588,29.874,6.365c-3.693,2.074-6.507,3.592-7.652,4.205C47.112,392.198,45.04,449.93,45,452.378V485h395     v-32.541C439.986,449.996,438.532,391.9,340.424,360.56z M360,175.482c13.367,1.874,15,8.786,15,12.018     c0,6.126-6.627,14.467-15.266,19.07C359.899,203.606,360,175.482,360,175.482z M110,187.5c0-3.232,1.633-10.144,15-12.018     c0,0,0.101,28.127,0.266,31.088C116.627,201.966,110,193.626,110,187.5z M353.406,335.716     c-9.417,1.147-24.365,4.129-35.525,11.835c-9.539-6.033-14.896-10.258-17.881-13.088v-24.318     c16.215-9.267,29.714-22.436,39.848-38.777L353.406,335.716z M242.5,310c-16.917,0-32.575-3.685-46.553-10.961     c-21.017-10.875-37.199-29.151-46.793-52.849c-3.875-9.592-6.54-19.681-7.927-30.035C140.413,210.366,140,204.09,140,197.5     v-49.844c12.435-5.036,45.571-20.133,76.508-48.794c11.962,13.61,45.574,39.585,128.492,41.069V197.5     c0,6.586-0.413,12.863-1.233,18.705c-1.38,10.305-4.045,20.394-7.919,29.981c-9.596,23.703-25.777,41.979-46.811,52.862     C275.075,306.315,259.418,310,242.5,310z M285,317.299v18.477c-1.624,3.241-6.07,11.604-12.547,19.813     C265.466,364.444,254.598,375,242.5,375c-19.299,0-36.562-27.05-42.5-39.194v-18.508c13.182,5.108,27.424,7.702,42.5,7.702     C257.579,325,271.824,322.405,285,317.299z M139.999,63.423c0.73-2.574,4.314-13.173,16.196-23.634     C174.612,23.572,204.456,15,242.5,15s67.888,8.572,86.306,24.789C340.735,50.293,344.3,60.936,345,63.41v61.513     c-51.067-0.958-80.986-11.594-97.268-20.59c-17.5-9.669-23.09-19.394-23.498-20.136l-4.348-9.689l-7.69,7.69     c-26.6,26.599-56.898,42.274-72.197,49.115V63.423z M131.594,335.715l13.558-64.346c10.135,16.344,23.636,29.514,39.848,38.776     v24.317c-2.988,2.833-8.348,7.062-17.88,13.089C155.959,339.845,141.011,336.863,131.594,335.715z M425,470H60v-17.409     c0.056-1.515,2.773-49.93,89.799-77.952c0,0,10.397-5.371,20.699-11.531c8.313-5.057,14.914-9.538,19.919-13.53     C198.716,363.842,217.362,390,242.5,390c25.139,0,43.784-26.158,52.083-40.422c5.01,3.995,11.624,8.484,19.968,13.559     c10.253,6.132,20.685,11.513,20.685,11.513c25.456,8.064,59.721,23.256,78.396,49.835c10.718,15.254,11.344,27.458,11.368,28.096     V470z" fill="#FFFFFF"/>
			<path d="M250,187.5h-15v40c0,4.142,3.358,7.5,7.5,7.5h20v-15H250V187.5z" fill="#FFFFFF"/>
		</g>
	</g>
</g>
<g>
</g>
<g>
</g>
<g>
</g>
<g>
</g>
<g>
</g>
<g>
</g>
<g>
</g>
<g>
</g>
<g>
</g>
<g>
</g>
<g>
</g>
<g>
</g>
<g>
</g>
<g>
</g>
<g>
</g>
</svg>
